<?xml version="1.0" encoding="UTF-8"?>
<!-- Generator: Adobe Illustrator 21.0.0, SVG Export Plug-In . SVG Version: 6.00 Build 0)  -->
<svg xmlns="http://www.w3.org/2000/svg" id="图层_1" style="enable-background:new 0 0 2232.3 2372.6" version="1.1" viewBox="0 0 2232.3 2372.6" x="0px" xml:space="preserve" y="0px">
<g id="AACPKK.tif">
	<g id="change1_1">
		<path d="m970.6 1270.7c-0.1 1 0.1 2.3-0.5 2.9-8.9 8.6-10.3 20.9-15.5 31.4-1 2-4.2 4.4 0.3 6.4 0.4 0.2 0.4 1.9 0.2 2.7-1.3 4.3-2.8 8.6-4.4 13.2-4.5-1-5.9-3.2-3.4-6.9 2.7-4 2.5-7.2-2.4-10.8-1.2 2.2-2.3 4-3 5.9-1.4 3.6-2.8 7.2-3.9 10.9-0.4 1.5-0.2 3.3 0.1 4.9 1.5 7.9-0.5 11.2-6.8 16.4-5.1 4.3-9.8 9.6-13.2 15.3-2.4 4.1 2 6.7 7.8 7.9-4.4 3-6.7 4.6-9.7 6.7-1.1-2.3-1.9-4-2.7-5.8-0.4 0.1-1.1 0.1-1.4 0.4-6.3 6.1-13.1 11.8-18.5 18.6-3.5 4.4-5.3 10.5-6.7 16.1-2.3 9-5.1 16.7-14.9 20.7-7.2 2.9-12.5 15.6-10.9 22.4 9-0.9 9.2-10.7 15.2-15.5 1.8 0.9 3.5 1.8 5.1 2.6-2.1 7.7-4.2 15.1-6.6 23.8 8.5-2.6 12.8-8.4 16.3-14.4 2.6-4.5 4.3-9.4 1.2-15-2.8-4.9-0.4-8.5 7.5-13.8 0.3 5.1 0.6 10 0.9 14.8 13.6-2.6 16.8-15.9 24.7-24.1 9.1-9.4 15.8-21 24-31.3 2-2.6 5.6-4 7.2-5.1 2.7-5.9 4.9-10.8 7.3-16.2 3.6 1.9 6.7 5.4 9.8-0.2-2.9-3.3-7.1-6.9-2.1-11.9 3.2-3.2 5.1-7.4 10.9-7.5 2.7 0 5.5-3 8.1-4.8 2-1.4 3.7-3.2 5.5-4.9 0.6 0.4 1.3 0.8 1.9 1.2-0.7 2.3-1.3 4.6-2.3 6.8-3.8 8.1-7.5 16.2-11.6 24.2-2.1 4-4.2 8.2-10.1 8-0.9 0-3.2 4-2.7 5.3 2.8 6.5-1.4 10.7-4.3 15.4-3.5 5.6-6.9 11.2-10.4 16.8-0.7 1.1-1.2 2.3-2.1 3.4-18.7 23.7-37.5 47.4-56.1 71.2-2.8 3.6-7.5 7-4.7 13.1 0.4 1-1 3-1.9 4.3-3.7 5.5-7.4 10.9-11.2 16.3-0.5 0.7-1.4 1.6-2.2 1.7-5.6 1.1-8 5.5-10.7 9.7-5.1 7.8-10.8 15.2-15.4 23.3-1 1.7-3.3 2.8-5 4.1-2.5 2-5.9 3.6-7.2 6.2-2.2 4.6-3.5 9.8-4.5 14.8-2 10.1-3.8 20.2-5 30.4-0.7 5.5-0.1 11.2-0.1 17.9 5.4-5.1 3-11.9 6.2-16.3 0.3 7.3 0.7 14.8 1.1 23.3-9.2 5.8-2.9 17.7-8.2 26.3-0.6-2.2-1.3-4.5-2.4-8.4-1.8 2.8-3.3 4.1-3.6 5.7-0.8 3.9-1.4 7.8-1.6 11.8-0.2 4.5-2.8 5.6-7.3 4.9-0.9 9.1-1.6 17.6-2.6 26.1-0.3 2.2-1.9 4.4-1.9 6.5 0 2.7 0.4 5.7 1.8 7.9 3.2 4.9 3.9 10.1 0 14-5.1 5.1-5.5 11-3.9 17.2 0.9 3.6 1.1 6.4-1.9 9-0.7 0.6-1.4 1.7-1.4 2.5-0.1 11.5-1.8 23-2 34.3-0.2 9-3.1 17.3-3.3 26.3-0.2 13.2-3.1 26.4-3 39.6 0.1 12-4.3 22.6-7.1 33.8-1.5 6.1-2.8 12.3-3.6 18.5-0.3 2.2 1.1 4.5 3 6.8 5.9-16.9 6.3-34.6 10.3-52.5 1.9 4.4 3.4 18.5 1.8 21.5-6.5 12.1-6 25.8-9.1 38.6-0.2 0.9-0.3 1.8-0.6 3-0.8-2.1-1.5-3.8-3.1-7.9-1.2 6.8-4.4 10.2-3.6 16 1.1 8.7-1.9 17.6 0.3 26.7 0.9 3.7-3.2 7-8.1 6.7-0.5-2.1-1-4.2-1.6-6.3-0.4-0.1-0.8-0.1-1.2-0.2-1 4.1-1.9 8.2-2.9 12.3 0.3 0.1 0.7 0.3 1 0.4 1.6-2.2 3.3-4.4 4.9-6.6-0.2 6-0.2 12-0.8 17.9-0.4 3.9-1.7 7.7-2.6 11.5-1 4.6-2.7 9.1 3.6 11.8 1.4 0.6 2.5 3.8 2.5 5.8 0.1 3.6-1 7.3-1 10.9 0 4.2-2.6 9.5 4.7 11.1 1.3 0.3 2.3 4.6 2.3 7.1 0.3 16 5.4 31.2 7.5 46.9 0.2 1.7 1.8 3.3 2.8 4.9 4.5 6.5 9 12.9 13.5 19.2-3.8 2.3-7.6 3.4-9.3 5.9-1.5 2.2-0.6 6.1-0.8 9.7h-5.1c-1.4 6.5 8.1 6.6 7.2 13.1-8.4-0.2-12.1-10-21.8-10.1-0.8 6.9-1.6 14.1-2.5 21.3-0.8 0.4-1.6 0.7-2.4 1.1-2.8-3.4-5.5-6.8-8.3-10.2-0.6 0.4-1.3 0.8-1.9 1.1 1.1 3.5 2.7 6.9 3.1 10.5 0.4 3.9-0.5 7.8-0.9 12.5 2.1 0.6 4.1 1.2 5.5 1.6 1.9 7.6 3.2 15.1 5.8 22.2 2.4 6.6 6.1 12.7 8.8 19.4-7.9-4.6-11.2-15.3-22.6-15.8-1.3 3.5-6.1 6.2-3.6 10.9 0.8 1.5 4.2 1.5 6.7 2.3 1.5 7.2 3 15 4.6 22.5 4 1.9 7.5 3.5 11.4 5.4-3.1 5.2-7.5 5.3-11.6 4.5-3.5-0.7-6.9-2.3-11-3.8 0.3-0.7 0.1 0.1-0.4 0.7-2 2.3-5.1 4.3-5.7 6.9-0.7 3 1.1 6.4 1.3 9.7 0.6 9.6 1 19.2 1.5 29.6-1.3 0.4-3.7 1.2-6.5 2.2 0.3 4.8-2.3 9.9 2.7 13.8 0.4 0.3 0.5 1.2 0.5 1.9-0.3 8.7-1.7 17.6-0.6 26.2 1.3 10-0.7 20.7 4.9 30.7 2.5-0.2 4.9-0.4 7.6-0.5 0.5 4.8 1 9.3 1.5 14.2-11 4.8-21.6 5.5-33 0.1-3.9-1.9-9.5 0-14.3-0.2-7.8-0.4-15.5-0.9-21.8-7-4.6-4.5-10.7-7.4-15.6-11.6-16.5-14-27.3-32.3-37.6-50.9-0.3-0.5 0.1-1.3 0.3-2.6 2.1-0.6 4.4-1.3 7.4-2.2-4.1-3.8-7.6-6.9-11.1-10.1-0.6 0.9-1.6 2.4-3.2 4.7-4.2-11-10.6-20.1-10.2-31.6 0-1.2-0.4-2.8-1.2-3.6-10.2-10.9-12.9-25.3-17.8-38.6-6.1-16.5-11.8-33.2-20.3-48.7-1-1.7-2.4-3.5-2.5-5.3-0.6-11.6-6.8-21.4-10.1-32.2-4.9-16.2-9.6-32.5-14.2-48.8-1.5-5.3-2.8-10.8-3.6-16.3-0.6-4.2-0.5-8.4-0.6-12.7 0-0.7 0.4-1.4 0.2-2-4-12.9-3.5-27.1-11.2-38.9-1.1-1.7-2.3-3.5-2.6-5.3-1.2-7.7-2.1-15.5-3.2-23.3-0.4-2.6-0.7-5.3-1.2-7.9-2.9-14.6-5.9-29.1-8.6-43.7-2.5-13.7-3.5-27.7-7.3-41-3.5-12.2-3.9-24.8-6.7-37-0.3-1.5-1.2-2.9-2.6-5.9-6.5 7.1-12.6 13.1-17.9 19.7-5.3 6.7-9 14.9-14.9 21-4.9 5.1-7.8 12.1-15.4 15.1-4.2 1.7-7.5 6.5-10.4 10.5-10.8 14.6-21.3 29.5-31.8 44.3-0.9 1.3-2.2 3.1-1.9 4.4 2 9.2-4.5 14.4-9.8 19.3-5.9 5.4-8 11-5.3 18.7-2.2 1.3-4.2 2.4-6.6 3.8 0.3 3.4 0.7 7 1.1 10.9 3.1 0.9 5.8 1.8 9.4 2.9-3.1 5.6 1 12.2-4.5 17.6-4.7 4.5-4.2 5 1.2 11.2 5.8-18.9 18.1-31 37.6-36.8 0.5 0.5 1.8 1.9 3.3 3.1 4.4 3.3 6.4 2.8 9.5-2.1 1.9-2.9 4-5.6 6.6-9.2 4.5 5.1 8.2 9.2 11.8 13.3-2.7 3.6-5.3 7.1-8.6 11.4 6.4 1.1 7.8-3.8 11.6-6.6 1.9 4.3 3.4 8 4.7 10.9-2.9 7.8-5.5 14.8-8.3 22.5-1.2-0.9-2-1.3-2.5-1.8-0.4-0.5-0.6-1.2-1.3-2.6-3.4 1.9-6.7 3.8-10.9 6.1-0.5-3.4-0.9-6.3-1.3-9.1-0.5-0.2-1-0.3-1.6-0.5-2.4 5.4-4.8 10.7-7.2 16.1-2.7 5.9-6.2 11.7-7.9 17.9-1.6 5.9-1.3 12.3-2 19.8-3.5-5.4-9.4-3.3-13.1-5.8-3.9-2.6-6.5-7.2-10.1-11.4-5.8 3.5-11.9 8.2-18.4 1.9-3.6 1.8-7 3.5-12.5 6.3 2.3-4.1 3.6-6.3 5.1-9-5.5-1.8-8.2-0.1-9.7 4.5-3.3 9.7-6.3 19.6-10.4 28.9-1.6 3.7-5.7 6.6-9 9.4-3 2.5-6.5 4.4-10.6 7.1-0.2-2.7-0.1-4.6-0.5-6.4-0.8-4-3.3-6.2-7.1-4.2-4.1 2.1-7.4 1-11.3-0.6-5.9-2.5-8.4-0.9-9.3 5.8-0.4 3.4-1.2 5.8-4.3 7-2.5 1-4.6 4.7-8.2 0.4 2.3-7 7.4-12.6 11.4-18.9 3.9-6 7-12.6 10.5-19-2.7-3.2-5.1-6.2-7.9-9.5-1.3 0.9-3.1 1.4-3.3 2.3-2 10.4-10.8 15.6-17.2 22.6s-13.2 13.7-19.4 20.9c-1.5 1.7-2 4.9-1.9 7.3 0.6 9.7-1 13-9.2 17.4-2.9 1.5-5.8 3-9.7 4.9 0.2-2.8 0.4-5.1 0.7-8.1-2.6 0.6-5.1 1.2-8.1 2-1.6-2.2-3.3-4.4-5.3-7-1.4 0.8-3.1 1.2-3.4 2.2-3.3 9.6-11.4 14.2-19.3 19.3-3 1.9-4.9 1.3-6.7-2.3 12-6.8 7.8-19 9.7-30.4 9.4-1.6 9.5-11.5 13.8-18.1 0.7-1.1-0.2-4.2-1.4-5.1-1.1-0.9-4.4-1-5.2-0.1-4.4 4.8-9.7 9.5-12.1 15.4-4.3 10.5-9.9 19.1-20.9 23.2-1.1 0.4-2 1.7-2 1.7-0.7 5.9-1.2 10.7-1.7 15.5-0.4 3.2-2.4 4.3-5.5 4.4-5.5 0.3-5.5 0.4-8.3 4.5-2.7-3.2-5.2-6.9-8.3-9.8-3-2.8-6.6-4.9-11.3-8.2 3.6-2.5 6.4-4.5 9.2-6.4 3-2 6.1-3.8 9.2-5.7 5 6.3-1 7.6-4.4 9.8 2.7 6.9 4.9 7.9 7.9 3 2.6-4.2 8.8-6 8-12.9-0.2-1.7 4.6-3.8 6.9-5.9 1.4-1.2 2.6-2.6 4-4.1-5.3-1.5-9.5-2-12.9-3.9-5.1-2.8-8.9 1.2-13.4 1.3-5.2 0.1-7.7 2.3-8.1 7.8-0.1 2.2-2.6 4.7-4.6 6.2-4.5 3.4-9.4 6.2-13.9 9.1-8.4-6.4-19.8-3.8-26-12 0.4-3.1 0.6-6.7 1.4-10.2 0.4-1.7 2-3.1 2.9-4.8 0.8-1.5 1.4-3.1 2.7-6.3-3.9 1.6-6.1 2.5-8 3.2-3.8-1.9-3.4-7.3 1.1-15.7-5.5 0.4-10.3 0.7-14.7 1 1.1-1.3 3-3.7 5.5-6.8 5.4 3.8 9.6-1.4 15.1-2.1 0-4.1 2.9-7.8-1.9-11-1-0.7 0.1-4.6 0.3-7.2 6.3 2 6.6 2 16.7-1.3-3.5 5.5-5.9 10.6 1.2 14.9 2.7-2.7 5.6-5.6 8.5-8.4 1.2-1.2 2.8-1.9 4.1-3 1.1-0.9 2.1-1.9 3.1-2.9-1.3-1.1-2.5-2.2-3.8-3.2-0.7-0.5-1.6-0.8-3.3-1.6 5.8-5.5 11.9-9.9 16.3-15.7 4.4-5.7 7-12.6 10.4-18.9-2.2-4.1-5-4.8-8.2-2.2-4.9 3.9-9.9 7.7-14.3 12.2-7.3 7.5-14.1 15.4-21.7 23.9-0.6-2.6-1-4.3-1.7-7.7-3.1 2.7-6.3 4.6-8 7.3-5.7 8.7-11.3 17.3-23.3 19.7-1.2-0.6-3.9-1.7-7.1-3.2-0.4-2.1-1-5-1.6-8.4 2.9-2.7 6-5.7 10.2-9.6 1.5-0.7 5 6.2 6.6 0.9 1-3.4-0.8-8.3-2.7-11.7-1.5-2.7-5.2-4.3-8.3-6.6 3.6-6.1 2.2-14.5 10.9-16.8 0.3-0.1 0.7-0.4 0.7-0.6 0.3-12.7 10.5-20.7 14.8-31.4 0.2-0.5-0.3-1.3-0.6-2.4h-17.8c-2.2 9.2-11.6 4.8-18.1 9.9 4.7-10 15.1-14.4 14.8-27.4-4.7 4.3-8 7.3-13 11.8 1.1-11.5 9.8-14.9 14.4-21 4.8-6.4 11.2-11.7 18.3-19-3.5 0-5.3-0.6-6.1 0.1-8.6 7-17 14.3-26.5 22.3-2.5-3.9-5.1-6.4-5.8-9.5-1.4-5.8-2-11.4 2.7-16.9 8.3-9.8 16.3-20.1 23.3-30.9 3.1-4.8 9.4-8.9 6.8-16.3 4.1-3.8 3.9-8.9 4.6-13.8 0.9-6 1.9-12 3.1-19.8-14.6 7.7-15.3 23.3-23.8 32.8l-2.1-1.2c3.9-10.4 7.8-20.7 11.8-31.3-2.1-0.8-3.5-1.3-5.7-2.2 3.8-6.6 8.3-13.1 6.7-21.2-0.4-2-1.5-3.9-3-7.9-2.9 7.9-6.8 12.2-6.6 19.8 0.3 6.8-4.8 13.9-7.7 20.7-1.4 3.4-5.4 5.8-4.1 11.6 4.1-3.4 7.5-6.2 11.3-9.4 2.3 4.5-0.5 6.6-2.7 8.8-1.8 1.8-5 3.4-5.3 5.5-1.5 10-9.4 11.4-17.2 13.7-0.7 3.7-1.4 7.4-2.3 11.8-2.9-0.9-4.9-1.5-7.4-2.3-2.3 5.2-4.4 10.1-7.3 16.8-9.6-12.2-2.2-25.2-6.4-37.7-4.1 3.1-7.5 5.7-11 8.4-2.4-7.6-4.5-14.7-6.9-22.2-2.9 0.8-5.2 1.4-8.1 2.1-0.2-1.9-0.9-3.8-0.3-4.4 4.1-4.3 2.8-9.2 2.2-14.1-1.1-8.8-2.8-17.5-3.4-26.3-0.2-3.3 1.6-6.8 2.7-10.2 1.5-4.3 2.9-8.7 5-12.7 2.2-4.1 5.1-7.7 8-12 5.6 8.3 4.9 10.6-3.5 14.9-0.3 4.7-0.7 9.5-1.1 16.4 6.1-5.7 10.5-9.9 15.7-14.8 1.1-5.8-2.1-13.6 3-20.1 7.2 4.8 8.3 7.2 4.1 13.2-3.8 5.5-3.6 9.3 1.1 13.9 3.4 3.3 4.9 7.4 3.8 12.7-1.2 5.6-0.4 5.9 7.2 7.2 3-5 5.9-10 7.9-13.4 6.7-0.6 12-1.1 15.1-1.3 3.2-4.3 5-7.2 7.2-9.8 1-1.3 2.6-2 3.8-3.2 5-4.9 5-5.9-0.9-13.1 3.9-1.8 7.5-3.4 11.2-5.1 1.6 2.6 3 4.7 5 7.9 1.3-2.2 1.7-4.2 2.7-4.6 7.9-3.6 8.1-10 7.2-17.3-0.2-1.7 0.9-3.8 2-5.4 2.8-3.9 7-5.5 11.5-7.3s8-3.2 13-1.1c6.1 2.6 16.8-2.9 18.9-9.1 0.7-2 0.6-4.8-0.3-6.6-2.5-4.5-5.8-8.6-8.9-13.1-1.2-7 5.5-9.4 9.2-13.4 4-4.2 9.8-6.7 14.4-10.3 3-2.4 6.7-5.1 7.9-8.5 2-6.1 6.3-6.2 11-6.1 2.8 0.1 5.5 0.9 8.5 1.4 0.3-2.2 0.8-3.3 0.4-4-4.6-8.9-0.3-17 3.1-24.7 3.6-8.1 8.4-15.6 12.8-23.3 1.9-3.4 4.3-6.5 6.8-10.3-0.7-1.7-1.5-3.8-2.4-6 2.9-4.5 5.8-9.1 8.8-13.7-0.8 8.4-4 16.4-0.7 26.3 1.7-3.4 3.4-5.4 3.7-7.7 1-7.1 5.4-11.8 10.1-16.6 1.6-1.6 3.6-3.2 4.4-5.2 4.3-11.1 8.5-22.2 12.2-33.5 1.7-5.2 0.8-9.9-6.5-12-2 2.4-4.2 5.1-6.5 7.8-0.3-0.1-0.7-0.3-1-0.4 2.7-6.3 5-12.8 8.1-18.8 4.8-9.3 10.3-18.3 15.4-27.6 1.6-2.9 2.9-6 3.6-9.2 1.9-8.8-0.3-11.5-9.7-13.1 2.3-4.1 4.6-8.3 6.9-12.4-0.4-0.3-0.8-0.6-1.3-0.9-1.9 1.2-3.7 2.3-7.5 4.6 3.2-8.1 5.3-14.9 8.5-21 3.9-7.6 8.8-14.7 13.3-22 0.2-0.3 0.5-0.6 0.5-0.9-0.3-3.7-1.1-7.5-0.8-11.1 0.3-3.8 3.4-8.5 2.1-11.3-4.5-9.7 1.5-14.9 6.9-20.8 1.3-1.4 3.5-2.5 4-4.1 0.5-1.5-0.7-3.6-1.1-5.4l-2.4-0.3c-7.9 12-15.9 24-23.5 36.2-3.6 5.8-7.7 11.2-8.9 18.4-0.8 5.1-5.6 4.6-9.7 3.1 1.3-2.9 2.9-5.6 3.7-8.6 3.4-12.3 8.8-23.6 15.7-34.2 2.7-4.2 4.9-8.7 7.5-13 2.7-4.5 4.7-9.2 11-10.6 2.3-0.5 4.8-4.6 5.5-7.5 1.4-5.7 1.3-11.7 2.5-17.5 0.6-3.1 2.4-6.1 3.6-9.1 1.6-3.9 3.1-7.7 4.7-11.7-12.9-2.5-24.5-5.2-36.2-7-6.4-1-12.4-1.9-17.8-5.8-1.3-0.9-3-1.5-4.6-1.7-15.4-2.4-28.7-10-42.4-16.8-3.5-1.8-7.2-3.5-11-4.4-9.6-2.4-9.6-2.2-15.8 6.9-8.7-7-17.5-13.7-25.8-21-8-7-15.2-14.8-25.5-18.8-8-3.1-12.9-10.2-17.4-17.3-1.7-2.7-3.7-5.3-5.1-7.4-1.8-0.1-2.6-0.4-3.1-0.2-11.5 5.1-13.4 4.8-20.8-5.2-4.1-5.6-8-11.5-11.3-17.6-4.6-8.5-10.7-15.1-19.9-18.6-3.7-1.4-7-4.1-10.7-5.3-8.1-2.7-11.5-8.9-12.6-16.4-0.8-5.2-4.1-8.9-5.9-13.2-4.7-11.5-12.5-18.9-23.2-24.6-3.9-2.1-6.2-7.6-8.4-12-4.6-9.2-8.7-18.7-12.9-28.1-0.9-2.1-2.2-4.4-2.1-6.6 0.6-15.8-2.8-31.8 2.9-47.4 5.1-14 9.4-28.4 14-42.6 1.4-4.4 2.6-8.9 3.8-13.2 2.1 7.9 2.1 7.7 11.9 7.7 2.3 0 4.6 1.8 7.6 3.1 2-6.6 3.8-12.9 6-20 3.3-0.5 6.7-1.1 10.6-1.8 1.4 3.4 2.7 6.4 4.1 9.9 2-0.9 3.7-1.7 5-2.2 2.2 10.6 4.5 21.3 6.8 32.2 6.3-0.1 8.3-3.4 9.1-8.1 1.3-6.9 2.7-13.7 5.3-20.5 0.3 1.5 0.5 3.1 0.8 4.6 0.7 3.5 2.5 6.4 6.4 6.6 3.5 0.2 6.4-1.3 8.1-4.7 4.9-9.8 9.6-19.8 14.9-29.4 15.3-28 29.7-56.7 46.6-83.7 18.7-29.8 39.6-58.2 59.7-87.1 14.6-21 29.2-42.1 44.3-62.7 11.2-15.3 23.3-29.8 34.8-44.8 12.1-15.8 23.9-31.9 35.9-47.8 6.5-8.6 13-17.3 19.4-26 0.9-1.3 1.7-2.8 2.1-4.3 1-4.6 1.8-9.3 2.7-14.5-13.5 5.1-22.1 16.3-33.1 24.1-0.5-0.5-1.1-1-1.6-1.5 5.4-9.3 10.4-18.9 16.2-28 3-4.7 2.6-7.3-3.9-8.9 4.3-5.9 8.1-11.2 11.8-16.4-0.3-0.4-0.6-0.8-0.9-1.3-1.5 0.6-3.5 0.7-4.6 1.7-9.6 9.2-18.9 18.6-28.5 27.7-3.6 3.4-7.8 6.1-11.3 8.8 1.2-6.6 7.8-10.9 11.6-16.9 4-6.3 7.4-12.9 11.5-20.2-5 1.7-8.7 2.6-12 4.3-2.5 1.3-4.9 3.2-6.9 5.3-7 7.5-13.7 15.2-20.6 22.7-0.7 0.8-1.9 1.3-3.9 0.8 22.1-28.4 44.2-56.8 67.4-86.5-18.4 4.2-29.7 14.8-40.7 26.5 3.5-5 7.2-9.8 10.4-15 6.1-9.7 12.2-19.4 17.9-29.4 0.8-1.4-0.3-4-0.6-6.4-5.4 1.7-9.8 3-14.1 4.4-0.4-0.6-0.8-1.3-1.2-1.9 1.5-2.4 2.8-4.9 4.6-7.1 8.1-9.7 16.2-19.4 24.5-28.9 3-3.5 3.5-6.7 1.1-10.8-3.4-6-6-12.6-13.9-15.2 0-5.6 0.1-10.9 0-16.2-0.2-10.3-0.3-10.5-10.6-14.5-0.3-1.6-1.2-3.7-0.8-5.4 2.6-10.9 3.4-22.1 8.2-32.6 6.2-13.6 6.9-27.8-1.4-41.6-2.8-4.7-6.2-8.2-9.9-12-3.1-3.2-4.5-8.7-5.1-13.4-0.8-6.2-0.4-12.5-0.1-18.8 0.3-5-0.9-9.2-4.7-12.6-3.5-3.1-5.1-6.7-4.1-11.4 1.5-7-1.5-11.9-6.8-16.4-10.3-8.8-10.7-23.2-2-32.7-1.4-6.2-2.8-12-4.3-18.7 5.2-3.2 11.1-6.2 16.1-10.2 4.5-3.6 7.8-8.8 12.1-12.7 3.3-3 7.1-6 11.3-7.3 8.3-2.7 16-6.3 22.6-12 1.2-1.1 2.7-2.2 4.2-2.6 17.1-4.8 29.7-17.1 44.2-26.2 7-4.3 13.4-9.6 20-14.5 11.9-8.8 24.6-16.3 37.4-23.8 11.1-6.6 22.1-13.5 33.2-20.1 4.8-2.9 10.1-5 14.8-8.1 6.3-4.1 12.1-8.9 18.3-13.4 2.7-1.9 5.3-4.2 8.4-5.2 8-2.7 15.8-5.6 21.7-12.1 1.2-1.4 3.3-2.3 5.2-2.8 20.2-5.2 40.4-10.5 60.8-15.1 6.7-1.5 13.9-1.1 20.9-1.5 4.6-0.3 9.2-0.8 13.8-0.8 4.5-0.1 8.6-0.2 10.2-5.7 1.5-5.3 2.1-10-3.8-12.4 2.1-6.8 6.6-6.2 11.8-6.2 10.2-0.1 20.3-1.7 30.5-2 2.9-0.1 6 1.9 8.9 3.2 1.5 0.6 2.9 2.4 4.3 2.3 18.5-1.6 34.6 7.7 52.1 10.8 7.4 1.3 15.1 3.1 21.8 6.6 14.6 7.5 28.9 15.5 36 32.1 2.6 6.1 8.3 10.9 12.6 16.3 0.8 1 2.9 1.7 2.9 2.5 0.2 11.4 12.5 15.8 15 25.9 0.5 2.1 2.4 4 4.1 5.5 8.9 7.8 16.4 16.6 21 27.7 0.9 2.1 2.3 4.1 4 5.7 5.8 5.7 9.2 12.8 13 19.9 4.4 8.3 6.9 16.8 9.1 25.8 2.2 8.9 7 17.1 10.7 25.6 6.1 13.8 7.6 28.8 9.7 43.5 1.1 7.7-1.7 15.9-1.3 23.8 0.6 13.9 2.4 27.8 3.6 41.6 0.3 3.3 0.5 6.6 0.1 9.8-1.5 13.1-3.1 26.1-4.8 39.2-0.1 0.6-0.2 1.4-0.5 1.9-8.9 14.3-9.8 31.6-17.8 46.2-1.7 3.1-4.8 5.4-6.7 8.5-7.4 11.7-18.8 19.3-29 28.1-2.1 1.8-5.4 2.4-8.2 3.4-10.1 3.5-20.2 7.1-30.4 10.4-8.1 2.6-16.7 4.2-24.5 7.4-6.7 2.8-13 3.3-19.3 0.5-5.1-2.3-9.4 0.8-13.8 0.4-10.2-0.9-18.7 3.9-27.8 6.6-5.6 1.6-10.7 4.9-16.8 7.8-1.2-7.2-0.1-12 5.1-16.4 3.4-2.9 5.3-7.5 7.9-11.2-5.9-5.6-8.2-5.7-14.8-1.4-6.3 4.1-12.7 8.2-19 12.2-4.3 2.8-8.6 5.6-13 8.2-0.7 0.4-1.9-0.1-4.6-0.5 5.2-6.4 9.6-11.8 14.4-17.8-4.8-1.7-9.9-1.4-15 0.7-1.3 0.5-3.5 1.5-4 0.9-4.5-4.3-7.6-1-11.4 1.3-7.2 4.6-14.8 8.7-22.2 13-1.1 0.7-2.5 1.3-3.2 2.3-10.9 15.7-28.5 24.7-39.8 40-2.4 3.3-5 5.8-4.7 10.4 0.1 1.9-1.4 4.3-2.7 6-6.5 8-13.3 15.7-19.7 23.7-2.3 2.8-5 6-5.5 9.3-1.2 6.9-3.6 13.3-8.7 17.3-9.1 7-12 17.7-18.3 26.3-5 6.9-9.9 15-19.3 17.7-1.5 0.4-3.1 1.5-4.1 2.7-7.8 9-18.8 8.9-29.1 10.3-2.7 0.4-5.7-1.3-8.6-1.9-1.8-0.4-4.3-1.5-5.4-0.7-4.5 3-7.8 1.4-11.6-1.4-6.1-4.5-12.5-5.4-19.4-0.8-3.4 2.3-7.9 2.8-11.6 4.7-13.2 6.7-23.5 17.3-34.2 27.2-14.2 13.3-27.4 27.7-41 41.6-22.2 22.8-44.4 45.7-66.6 68.6-4.1 4.2-7.7 8.7-11.6 13.1-0.5-0.4-1.1-0.8-1.7-1.2 6.7-9.9 13.4-19.7 20.1-29.6-0.5-0.6-1-1.2-1.4-1.8-2.2 1-4.9 1.4-6.4 3-10.6 11.9-20.9 24-31.4 36-6.9 8-14.1 15.7-20.9 23.8-3.1 3.8-5.3 8.3-8.3 12.2-11 14.2-22.8 27.8-33.3 42.4-17.6 24.6-34.1 49.9-51.5 74.6-12.5 17.8-20.8 37.9-29.8 57.4-6.3 13.5-8.3 28.4-10.3 43.7 3.3 0.7 5.7 1.2 8 1.7v11.7c18.6-9 31-24.7 48.8-36.5-3.6 10-8.9 16.1-14.4 22-3.5 3.7-6.7 7.4-4.8 14.4 2.8-0.5 5.9-0.3 8.2-1.5 4.6-2.5 9.2-5.4 13.2-8.8 13.1-11.2 25.3-23.7 39.2-33.7 11.1-8 19.1-18.9 30-26.9 5.7-4.2 11.6-8.6 14.9-15.7 1.5-3.3 5.6-5.5 8.7-7.8 7.9-5.8 8.2-8.7 1.4-16.3-0.6-0.7-0.6-1.9-1-2.8-0.3-0.6-0.8-1-1-1.3-7.3-2.9-10.4 8.7-17.9 4.9 0.1-0.9-0.1-1.9 0.2-2.1 22.9-14.3 42.9-32.2 62.2-51 2.7-2.6 4.6-5.3 9.3-3.8 1.9 0.6 4.7-1.7 7.5-2.9 2.1 1.7 3.2 7.2 7.9 3.8 9.8-7.2 22.1-11 29.6-21.4 1.6-2.3 3-4.7 4.5-7.1 0.9-1.4 1.3-3.6 2.5-4.2 9.1-4.2 11.5-13.2 15.5-21.2 0.6-1.1 1.8-1.9 2.8-2.8l0.6 0.2c4.7-3.7 9.2-7.1 15.6-8 3.9-0.6 7.8-3.7 11.1-6.4 8.2-6.7 16-13.9 24-20.8s16.2-13.7 24.2-20.6c2.3-1.9 4.1-4.3 6.3-6.4 3-2.8 6.2-5.6 9.3-8.3 1.5-1.3 3.3-2.4 4.5-3.9 7.3-9.7 17.7-15.5 26.9-23 9.8-8 19.9-15.2 30.5-22.1 9.2-6.1 18.8-11.6 27.3-18.6 8.4-6.9 15.7-15.2 23.3-23 4.4-4.5 9.1-8.9 12.4-14.1 7.7-12 19.1-18.8 30.9-25.8 4.3-2.5 9.3-5.2 9.3-11.9 0-1.6 3.5-4.2 5.8-4.7 6.9-1.4 9.4-5.4 8.8-12-0.1-0.9 0.6-1.9 1.2-3.4 2.5-1.9 7.3 0.5 9.3-5 1.7-4.8 6.9-3.7 11.3-2.1 7.4 2.8 14.9 5.3 22.4 7.7 20.8 6.6 41.7 13 62.5 19.7 8.2 2.6 16.4 5.6 24.4 8.8 13.5 5.2 26.9 10.5 40.2 16.1 10.6 4.5 21.2 9.1 31.6 14.3 8.7 4.3 15.8 10.6 20.3 19.6 2.5 5 5.9 9.6 8.9 14.3 2.1 3.3 4.1 6.7 6.6 9.7 2.3 2.8 4.6 5.9 7.7 7.6 15.3 8.7 27.2 21.6 40.2 33.1 1.9 1.7 3.1 4.2 4.6 6.3 8.9 12.6 17.7 25.3 26.7 37.9 10.7 15.1 22.5 29.7 29.6 47.1 3 7.2 4.4 14.9 7 24 7.2-19.9 8.7-40.3 20.5-57.2 1.2 5.1-0.9 14.4-4.8 24.1 1.7 5.7 3.1 10.3 5.1 16.9 2.9-12.9 5.4-24.2 7.5-33.9 5.2-2.7 9.1-4.8 13.2-6.9 5.2 5.9 6.5 13.4 6.3 21.5-0.5 22.6-0.6 45.2-1.4 67.7-0.2 4.5-1.3 8.8-0.5 13.5 0.4 2.3-2.9 5.3-4.9 7.8-1.5 4.2 5.5 11-2.9 12.2 0 6.4-0.1 11.9 0 17.4 0.5 15.3-0.5 30.5-4 45.3-1.8 7.6-4.9 15.1-8.8 21.9-3.3 5.8-1.5 12.8-6.7 18.4-2.7 3-1.2 9.9-1.7 16.1 2.7-1.5 4.3-2.3 6.2-3.4-0.3 9.7 11.5 16.4 5.1 28.2-1.3-2.8-2.4-4.9-3.4-7-8.7 1.3-8.6 1.4-4.2 7.7 1.3 1.8 1.5 4.7 1.4 7.1-0.1 3.5-1.7 7.2-1.2 10.5 1.4 10.1 3.6 20.1 5.3 30.2 0.8 4.5 2.1 9.2 1.9 13.7-0.3 5.5 1.8 8.2 7.4 9.1-2.2 10.5-2.2 20.4 2.9 30.1 2.1 4.1 0.7 8.8-2.8 12.9-3.3 3.7-3.4 12.5 0.1 15.7 7.6 7 8.1 16.3 9.6 25.4 0.7 4.2 1.2 8.5 2.2 12.7 1.9 7.8 0.4 15-3.3 22-1.3 2.5-3 5.9-2.3 8.2 1.9 6.2 0 13 3.6 19.1 1.8 3.1 1 7.6 1.4 12.2 1.9-0.2 3.5-0.4 5.3-0.6 0.3 0.8 0.7 1.6 0.9 2.5 0.4 2.2-0.1 5.1 1.1 6.4 4.8 5.1 5.6 11.9 8.5 17.7 3.7 7.5 8.4 14.2 17.1 16.9 3.8 1.2 6.4 0.6 8.3-3.1 3.3-6.5 6.6-12.9 10.5-20.4 0.9 1.6 2.8 3.3 2.7 4.7-0.4 3.2-1.8 6.3-2.9 9.4-3.9 11-6.1 22-2.4 33.5-5.5-0.7-10.9-4.6-16.6-0.2-0.9 0.7-3.3 0-4.5-0.7-4.2-2.4-8.2-5.1-12.1-7.8-0.8-0.5-1.7-1.6-1.6-2.4 1-9.8-7-10.7-13.1-13.5-0.9-0.4-1.8-0.7-2.8-1.1-14-36.3-21.7-74.3-32.6-111.8-1.6 4.9-5.8 8-5.5 14.5 0.2 5.2-5.1 10.4-7.3 15.8-4.3 10.7-6.9 22.1-13.3 32-2.2 3.4-1.8 8.7-7.4 9.6-0.1 0 0.2 2.1 0.1 3.2-0.4 3.1-1.8 5-5.7 3.2 0-2 0.3-4.6-0.1-7-0.8-4.8 0.1-7 5.3-9.7 4.3-2.3 8.2-9.5 8.4-14.7 0.5-12.1 8.1-20.9 11.5-31.5 1.3-4.1 3.1-8.1 5.2-11.9 8.2-15.3 5.1-31 1.7-46.6-2.8-13-6.2-25.8-8.9-38.7-1-4.8-0.5-9.8-0.9-14.7-0.1-1.5-0.8-3-1.5-5.9-2 2.4-4.1 3.9-4 5.2 0.4 8.2-3.3 15.6-4.7 23.4-1.2 6.6-1.2 13.7-6.2 19.8-0.8-1.9-1.5-3.3-2.4-5.4-10.9 13.8-8 29.7-7.3 45.1h-2.5v-10.8c-0.8-0.1-1.7-0.1-2.5-0.2-3.3 8.4-4.7 17.5-3.9 26.4 0.6 6.7-0.9 11.4-5.6 16-4.1 4.1-7.3 9.2-10.9 13.8-0.4-1.9-0.7-3.7-1.1-5.6-2.7 2.8-6.2 4.7-5.2 9.8 2.2-2.3 4.2-3.7 6.1-5zm-695.7 813.4c-1.5 3.8-7.3 5.3-5.8 10.8 2.3-3.4 9.5-4.2 5.8-10.8 2.4 0.9 4.8 1.8 7.9 2.9 0.4-2.8 0.7-4.9 1.1-7.8-3.6 1.9-6.3 3.4-9 4.9zm406-23.3c0.3-0.6 0.9-1.7 1.2-2.8 3.9-12.6 4.3-25.5 4-38.5 0-1.9-0.5-4.7 0.5-5.5 7.8-6.7 4.2-15.3 4.4-23.2 0.1-2.2-0.5-5 0.6-6.5 6.2-8.3 9.4-17 5.7-27.4-1.1-3-0.9-6.6-0.8-9.9 0.1-2.5 0.5-5.7 2.1-7.3 1.3-1.3 4.5-0.8 6.5-1.1 0.4-6.7 0.8-13.2 1.3-20.3 5.5 0.9 8.5-1.5 8.1-5.7-0.7-6.8 2.5-12.6 3.4-19 1.4-10.3 4-20.4 2.4-31-0.6-4 0.5-8.6 1.9-12.5 2.6-7 1-13.9-1.1-20.2-3.4-9.9-3.2-12.4 6.4-16.2 0.9-4.1 1.9-8.5 2.9-12.8-2.3 2.3-2.2 6.8-7.9 4.7 0.4-3.8 0.8-7.7 1.1-11.6s0.3-7.9 0.7-11.8c0.4-3.2 1.3-6.3 2-9.5 0.1-0.4 0.6-0.8 0.8-1 0.7 1.5 1.3 2.9 2 4.4 0.7-0.2 1.4-0.3 2-0.5-0.6-3.4-1.1-6.9-1.7-10.3-2-11.2-3.6-22.4 7.1-30.7 1.3-1 2.1-2.6 3-3.9 3-4.5 2.4-8.4-4.3-11.7 7.4-3.9 8.9-8.6 5.2-14.7-0.5-0.8 0.9-2.9 1.5-4.3 0.7-1.8 1.9-3.4 2.2-5.2 0.7-3.7 1.3-7.6 1.5-11.4 0.3-3.9 1.8-10-0.1-11.4-6.3-4.9-4.7-11-4.9-17-0.1-1.8-1.1-3.5-1.7-5.1-1.3 0.3-2.2 0.1-2.5 0.5-4.1 4.4-6.9 11.1-15.1 7.4-0.7-0.3-2.2 1.2-3.3 2-3.2 2.3-6.4 4.6-9.8 7.1 0.6 9.2-4.3 14.5-11.7 19.2-5.7 3.6-13.3 6.4-14.2 14.9-0.4 3.6-0.7 7.2-0.7 10.8 0 3.7 0.6 7.3 0.6 11 0 4 0 8-0.5 11.9-0.4 3.2-1.7 6.3-2.6 9.5-3.1-15.7 1.2-31.7-3.4-49.4-6.3 8.3-9.7 14.7-6.9 23.7 1.4 4.5 1.4 9.8-1 15.9-2.3-11-4.2-20.6-6.4-30.9-13.1 9.5-26 18.4-26.1 36.7-0.7-1.1-0.9-2-1.2-2.9s-0.7-1.8-1-2.7c-6.8 4.4-6.8 4.4-7.1 9.5-0.6 9.5 1.9 19.2-1.6 28.7-0.5 1.3 0.1 3.8 1.1 4.6 7.2 5.7 6.5 13.2 5.3 21-0.3 1.9-0.2 4.1 0.6 5.9 1.9 4.6 3.8 8.4 2.4 14.3s1.8 12.8 2.5 19.3c1.1 10.2 1.3 20.5 2.7 30.6 0.7 5.1 2.3 10.5 5.1 14.7 2.4 3.6 3.3 7 3.8 11 1.4 12.2 2.9 24.3 4.4 36.4-3.7 0.3-6.8 3.2-3.7 6 5 4.4 3.4 9.5 4 14.5 1 8.6 1.9 17.2 3.4 25.7 1.5 8.8 3.4 17.6 5.4 26.4 3.3 14.5 6.8 29 10.3 43.5 0.1 0.6 0.4 1.3 0.8 1.8 2.8 3.8 5.5 7.9 8.4 12.3zm184.7-957.6c-2.1 1.8-3.6 2.5-3.9 3.5-3.1 9.6-6.1 19.3-8.9 29-1.2 4.2-2.7 8.4-3.1 12.7-1.4 14.8-6 28.9-9.3 43.3-1.8 8.1-8.2 15.3-5.1 24.4 0.2 0.6-2.2 2.2-3.4 3.3-1.5-3.9-1.6-7.2-0.9-10.2 3.5-14.4 7.3-28.8 10.7-43.2 4.4-19.1 8.8-38.1 12.7-57.3 1.5-7.4 1.8-15.2 1.9-22.8 0.1-2.9-1.8-5.9-2.6-8.3h-15.1c-0.3-3.3-0.6-5.8-0.8-8.4-1.3-0.1-2.3-0.5-3.1-0.3-7.6 1.8-14.8 4.5-23 4.4-7.6 0-11.8 5.6-13.6 13.5-2.1 8.9-4.6 17.8-7.5 29-0.4-11.9 0.4-21.8-6-29.4-10 1.3-14.1 6.7-14.7 15.6-0.2 3.3-1.5 6.4-2.3 9.6-6.5-0.3-10.9 1.5-12.2 7-1.2 5.2-0.3 10.9-0.3 14.2-2.3 6.6-4.6 11.3-5.4 16.2-1.1 7.4-0.2 15.2-1.7 22.5-2.8 13.2-5.2 26.4-4.6 40 0.3 5.5-1.3 11.2-2.7 16.7-1.7 6.6-4 13-6 19.2-3.4-0.8-5.7-1.4-7.9-1.9-3 20.5-8.3 40-8.2 61 2.1-0.8 3.4-1.1 4.5-1.7 24.9-12.4 50-24.6 74.7-37.4 9.1-4.7 17.4-10.8 26-16.2-1.2-6-2.7-11.1 2.7-14.6 0.7-0.4-0.2-3-0.1-4.5 0.1-1.8 0.4-3.7 1.1-5.4 0.1-0.4 3.1-0.3 3.4 0.2 0.8 1.6 1.3 3.6 1.2 5.4-0.2 2.6-1.2 5.2-1.5 7.8-0.1 1.6 0.6 3.2 0.9 4.8 15-39.4 19-81.2 32.5-120.7 2-5.8 1-12.8 1.6-21zm59.8-123.1c3.4 1.1 6.8 1.7 9.6 3.3 10.4 5.8 22.2 10.3 30.4 18.4 9.1 9.1 14.9 21.6 22 32.8 0.7 1 0.8 2.6 0.8 3.9-0.5 8.5-0.8 17.1-2 25.6-2.1 15-4.7 29.9-6.7 42.3-3.5 3.7-6.2 5.6-7.3 8.1-1.2 2.9-1.1 6.4-1.5 9.7-0.6 5.4-0.9 10.7-1.6 16.1-0.4 3.5-1.6 6.9-1.8 10.3-0.3 4.3-2.3 6.1-5.9 4.7-1.2-0.5-2.1-1.7-3.4-2.8-1.4 5.5-1.4 10.8-4 14.1-4 5.3-3 10.2-2.5 15.9 0.4 5.1-0.8 10.4-1.5 15.5-0.1 0.6-1.3 1.1-2.2 1.8-1.8-2.1-3.3-4-6-7.3-1.4 4.2-3.4 7.3-3.1 10 0.6 5.3-2.3 7.2-6.1 8.8-2.4 1-5 1.5-7.9 2.3 0.9 3.5 6 7.7-1.8 10.4-0.2-2.1-0.3-3.9-0.5-5.8-1.6-0.2-3.2-0.3-4.8-0.5-1.2 1.9-2.3 3.9-3.7 5.7-1.6 2-3.5 3.8-5.3 5.7 1.3 1.7 3.4 3.3 3.1 4.2-2.4 7-5 14.5-8.7 20.3-5.5 8.5-7.4 9.2-2.4 20.6 6.4-7 13.7-13.1 18.5-20.8 4.9-7.7 7.3-17 10.8-25.5 0.7 0.2 1.3 0.5 2 0.7-0.9 3.4-1.8 6.8-2.7 10.3 6.7-5.8 13.2-11.5 15.9-19.8 2-6.1 6.9-7.9 13.5-11.5-1.6 5.9-2.7 9.9-4.3 15.7 6.6-2.7 8.5-6.8 10.2-10.9 2.2-5.2 2.9-11.4 6.3-15.6 5.2-6.6 3.6-11.7-1.4-17.8 3.8-5 7.6-10.1 11.4-15.2 1.9 1.7 3.4 3 5.1 4.6 1-1.5 1.8-2.2 2.1-3.1 2.7-7.2 2.3-15.7 9.3-21.1 0.7-0.6 0.3-2.5 0.7-3.7 0.6-2 1.1-4.2 2.2-5.9 3.7-6 5.2-12.1 1.3-19.6 6.5 0.5 6.9-4 7.7-8.3 0.6-3.4 0-6.8 3.8-9.6 3.4-2.5 2.8-8.9-0.8-11.4-3.4-2.4-3.5-5.9-5.2-8.8-3.5-6.2-0.8-12-0.9-17.9-0.4-35.7 2-71.1 7.3-106.4 0.7-4.9 0.8-9.9 1.2-14.9 0.2-2.9-0.8-5.7-4-5.9-4.2-0.3-4.6 2.8-4.3 6.1 0.1 1-0.4 2.1-0.7 3.9-6.2-8.6-12.3-8.9-18.7-1.7-1.5 1.7-2.7 4-4.5 5.2-4.3 3-8.5 6.6-13.4 8-9.8 2.8-19.9 4.3-29.9 6.3-14.6 2.4-16.2 4.6-13.7 20.5zm-255.7 1142.8c2.6-6.6 4.7-11.2 3.4-16.8-0.7-2.7-0.9-6.1 0.1-8.6 4-10.2 1.5-20.3-0.9-30.1-3.8-15.8-9.2-31.2-13.1-47-2.9-12-4.5-24.4-6.7-36.5-0.3-1.6-0.8-3.5-1.8-4.4-5.7-4.9-6-11.5-6.6-18.2-0.5-5.4-0.8-10.8-1.9-16.2-0.7-3.4-3.1-6.5-3.7-9.9-2.7-14.7-5.3-29.4-7.6-44.2-5.6-37.5-11.1-75-16.5-112.5-1.1-7.4-1.9-14.9-2.9-22.9-5.5 2.4-7.6 5.8-7.1 11.2 0.2 2.4 2.2 6.2-2.9 7-0.8 0.1-1.3 2.7-1.6 4.3-0.7 3.9-1.5 7.8-1.6 11.7-0.1 6.3-2.2 13.7 5.2 16.2 1 5.7 1.8 10.7 2.7 15.8-1.2 2.7-2.4 5.9-4.3 10.3 5-0.2 8.1-0.4 12.5-0.6-1.7 3.2-3.1 5.3-3.9 7.6-1.6 4.5-3.6 9.1-4.1 13.8-0.4 4.8 0.9 9.7 1.3 14.6 0.5 5.7 0.8 11.5 1 15.2-1.3 4.8-2.7 7.9-2.9 11-0.3 5.6 0.2 11.2 0.3 16.8 0.2 12.6 4.4 24.2 8.3 36.6 4.2-4.1 4.1-7.1 3-11.6-2.9-11.5-4.6-23.3-6.7-35.1-0.4-2.4-0.1-4.9-0.1-7.6 1.2 0.3 1.7 0.4 1.8 0.5 1.2 8.2 2.3 16.4 3.4 24.6 1 7.8 7.3 14.8 4.1 23.3-0.2 0.5 0.2 1.3 0.3 2 2.5 11.7 5 23.4 7.3 35.1 1.2 5.7 2.1 11.5 3.4 18.4-4-0.8-6.5-1.3-10.2-2.1 8.6 22.9 8.2 47.1 17.9 68.8 0.9-10.5-1.4-20.4-4.5-30.2-2-6.3-4.2-12.7-5.5-19.1-0.6-3.1 0.4-6.6 0.7-10 0.9-0.1 1.7-0.2 2.6-0.3 1.4 3.9 3.3 7.7 4.2 11.8 4 18.1 7.1 36.5 11.8 54.4 3.7 14.4 9.1 28.3 14.2 42.3 1.4 3.6 4.5 6.3 7.6 10.6zm-507.9-1191.7l2.4 1.8c6.1-8.5 12.2-17 18.4-25.5 12-16.7 23.9-33.5 36.1-50 7.1-9.6 15.1-18.5 22.1-28.1 14.2-19.2 27.8-38.9 42.1-58.1 10.5-14.1 21.9-27.6 32.8-41.4 2.1-2.7 4.9-5.4 3.5-11.4-3 2.4-5.5 3.8-7.2 5.9-6.8 8.1-13.3 16.4-20 24.6-3.3 4.1-7 8-10.1 12.3-19.1 26.4-37.8 53-57 79.2-10.6 14.4-22.3 28.1-32.7 42.6-7.5 10.4-13.7 21.6-20.5 32.5-3.4 5.1-6.6 10.4-9.9 15.6zm796.8 180.7c-7.1 6.3-10.4 17.9-22.9 16.8-2.8 9.9-5.4 19.3-8.3 29.7-7.7 3.3-8.1 4.2-6.6 15.9 3-3.2 3.4-10.2 9.9-7 0.2 0.1 1.1-0.7 1.4-1.2 2.9-5.1 5.7-10.2 8.6-15.3 1.1-1.8 2.3-3.7 3.9-5.1 4.9-4.2 15-25 15.2-31.9 0-0.3-0.3-0.6-1.2-1.9zm-865.1 738.3c-3.8 6.8-7.5 12.9-10.8 19.3-3.9 7.6-2.8 11.8 4.2 19.1 3.9-5.1 7.7-10.1 12.2-16-2.3-6.1 2.7-14.7-5.6-22.4zm250.2 211.5c1.4-6 1.9-10.8 3.8-15.1 1.8-4.1 4.8-7.7 7.4-11.5-9.7 7.2-18.7 14.7-27.5 22.3-4.8 4.2-4.9 9.8-3.5 15.6 1.4 5.6 2.1 5.8 9 3-3.4-10.5-2.8-13.4 4.4-20 1.6 1.4 3.3 2.9 6.4 5.7zm560.8-867.6c0.7 0.3 1.5 0.6 2.2 0.9 4.3-2.6 6.2-6.9 7.1-11.8 2.5-13.6 4.7-27.3 7-40.9 0.3-1.7 0.3-3.4 0.4-5.2-0.7-0.1-1.4-0.3-2.1-0.4-4.9 19.2-9.8 38.3-14.6 57.4zm-608.1 875.1c0.4 3.2 0.7 6.1 0.9 7.4 11.7 10 14.7-4 21.7-5.1 1-6.5-3.3-5.7-6.3-5.9-0.9-2.5-1.7-4.7-2.5-6.8l-1.2 0.3c-0.2 2.5-0.4 5-0.6 8.1-3.9 0.7-7.4 1.3-12 2zm375 221.6c-0.5 0.6-1.1 1.3-1.6 1.9 4.6 6.2 9.1 12.5 13.8 18.7 1.4 1.8 2.9 3.7 4.8 4.8 1.7 1 4.1 0.8 6.1 1.2 0.2-2.1 1.1-4.6 0.4-6.3-1-2.3-3.1-4.2-5-6-3.5-3.4-7.1-6.8-10.9-9.8-2.2-1.8-5-3-7.6-4.5zm-500-317c2.6-3.9 5.4-7.3 7.3-11.2 1.2-2.5 1.9-5.9 1.3-8.6-1.3-5.8-3.5-11.3-5.5-17.3-4.1 2-5.8 5.5-3.9 9.6 2.9 6.3 1.9 12-0.5 18.1-1 2.6-3 6.2 1.3 9.4zm546.6-400.9c17.1-8.3 25.1-14.8 27-21.8-11.6 1.2-22.9 10-27 21.8zm143.7-406.9c0.9 0.1 1.7 0.1 2.6 0.2 3-10.8 6.2-21.6 9-32.5 0.9-3.7 0.1-7.3-4.7-6.6-2.3 13.4-4.6 26.1-6.9 38.9zm-509.4 923.5c-3 3.5-5.1 6.5-7.7 9-2.7 2.5-6.1 4.5-2.7 9.3 7.9-1.7 13.3-6.5 18-12.4-0.6-1.1-0.8-1.9-1.3-2.2-1.9-1.3-4-2.4-6.3-3.7zm-109.4 55c11.9-2.2 16-7.7 13.5-16-0.5-1.6-2.3-3-3.8-3.8-0.7-0.4-3 0.5-3.3 1.3-2.2 5.6-4 11.3-6.4 18.5zm409.9 67.5c5 9.9 6.6 19.5 16.5 24.2-3.1-19.6-3.1-19.6-16.5-24.2zm-432.3-187.9c9.7-10.6 11.9-16.5 7.8-21.5-1.5 2.3-3 4.4-4.3 6.7-1.5 2.6-2.8 5.3-4.5 8.4-3.8-2.2-6.8-1.9-8.1 2.1 3.1 1.4 5.8 2.7 9.1 4.3zm-62.5-44.6c1.8-6.6 2.7-11.4 4.3-15.9 1.5-4.3 3.8-8.3 5.7-12.5-0.6-0.4-1.3-0.7-1.9-1.1-6.9 6.3-9.5 15.6-15.4 23.1 2 1.9 3.7 3.3 7.3 6.4zm770.1-556.4c-0.5-0.5-1-1-1.4-1.5-7.1 7.2-14.2 14.4-21.2 21.6-1.4 1.4-2.5 3-3.6 4.7-0.6 1-0.7 2.2-1.3 4.1 13.9-6.2 19.3-18.8 27.5-28.9zm-38.5-290.1c-4.2 6.1-6.5 16-5.3 22 11-5.1 8.3-13.4 5.3-22zm34.7 132.7c7.2-4 12.4-8.4 14.5-16.4-8.7-1.6-9.5 8.1-16 8.3 0.5 3 0.9 5.2 1.5 8.1zm-566.6 750.6c4.2-3.7 8.1-7.7 8.1-14.3-7.7-2.3-7.8 4.8-10.7 7.9-2.1 2.3-1.2 5 2.6 6.4zm687.7-1125l1.8 0.3c0.7-4.4 1.7-8.9 2-13.3 0.2-4.3 2.5-9.7-3.8-12.5v25.5zm-393.7 1215.4c-2.5 8.3-1.5 11.3 5.3 18.2 4.1-8.1-2.6-12.6-5.3-18.2zm48.4 225.6c4.2 3.9 6.5 6.1 9.9 9.3 1.9-4.6 3.2-7.7 5.2-12.4-5.4 1.1-8.8 1.8-15.1 3.1zm-81.2-362.1c4.4-6.4 3.9-8.5-3.6-14.3-0.3 5.2-1.6 10.5 3.6 14.3zm-487.7 87.8c7.2-1.5 7.2-1.5 9.5-7.7-8.4-0.7-8.4-0.7-9.5 7.7zm827.8-677.4c-0.7-0.3-1.5-0.6-2.2-0.9-3.3 5.7-6.6 11.4-9.9 17 0.8 0.4 1.5 0.9 2.3 1.3 2.2-6.4 10.5-9.2 9.8-17.4zm-224.6 377.2h2.2l2.1-14.7c-7.8 4-3.7 9.7-4.3 14.7zm-93.4 315.3c0.4 5.4-1.2 11.5 4.8 15.7 2.6-6.9-1.3-11.3-4.8-15.7zm-267.5 19.8c1.9-6-2-6.9-5.6-7.7-2.9-0.7-4.4 0.8-3.6 4.2 2.8 1.1 5.7 2.2 9.2 3.5zm-146.5-69.7c7.5-2.4 9-4.8 8.4-14.1-3.1 5.1-5.7 9.5-8.4 14.1zm-29.9-84.2c3.3-3.2 7.1-4.8 5.3-9.7-0.2-0.6-1.8-1.2-2.4-1-4.5 2-4.5 5.4-2.9 10.7zm662.4-759.2c-5.8 4-4.1 7.7 0 11.3v-11.3zm12.5 274.2c-7.8 3-7.8 3.7-1.2 9.9 0.4-3.4 0.8-6.5 1.2-9.9zm11.2-280.3c0.9-3.3 4.6-6.6 0.2-10.6-2.9 3.8-4.2 7-0.2 10.6zm-124.2 971.3c-1.1-0.3-2.1-0.5-3.2-0.8-0.8 2.8-2 5.5-2.2 8.3-0.1 1.2 2 2.5 4.7 5.7 0.3-6 0.5-9.6 0.7-13.2zm129.9-868.3c-0.9-0.2-1.9-0.3-2.8-0.5-0.5 3.4-1.1 6.7-1.6 10.1 4.9-2.4 5.8-5.7 4.4-9.6zm61.9-264.8c-3.7 6.7-3.7 6.7 5.7 10.3-2.2-3.9-3.5-6.4-5.7-10.3zm-219.3 781.6c2.9-4 3.5-7 0.5-10.9-4.5 3.5-6 6.3-0.5 10.9zm190.8-528.6c-7.6-2.1-7.6-2.1-7.2 4.1 2.1-1.1 3.9-2.2 7.2-4.1zm-211.9 44.9c3.7 0.2 6.1-0.8 5.4-4.7-0.2-0.9-2-2.3-2.7-2.1-3.6 1-3.8 3.6-2.7 6.8zm28.8 315.9c4.8 0.5 6.6-0.9 4.5-7.1-2.2 3.4-3.3 5.3-4.5 7.1zm306.8-624.6c-0.3 3-2 6.1 1.1 10 2.2-4.3 2.2-7.3-1.1-10zm-198.1 230.6c2.9-4.6 2.9-4.6-0.5-8.7 0.2 3.1 0.4 5.9 0.5 8.7zm98-43.9c-1.7-1.4-2.8-2.3-3.9-3.2-0.6 1-1.8 2-1.7 2.9 0.1 1 1.2 2.3 2.2 2.6 0.6 0.1 1.7-1.2 3.4-2.3zm-296.6 1062.4c2.1-4.1 0.9-6.3-3.8-6.5 1.3 2.2 2.6 4.3 3.8 6.5zm8.4 6.8c-1.2 3.5-1 5.9 4.7 6.1-2.1-2.8-3.4-4.5-4.7-6.1zm-552.8-405c-1.2-1.4-2.1-2.3-2.9-3.2-1 1-2.2 1.9-2.8 3.1-0.2 0.3 1.4 2.2 2.3 2.2 0.9 0.1 1.9-1.2 3.4-2.1zm859.4-712.3c1.9-1.9 5.7-3.5 1-7.2-0.3 2.9-0.7 5.1-1 7.2zm-485.1-776.1c0.7-0.3 1.5-0.5 2.2-0.8-0.6-1.5-1.2-3-1.8-4.6-0.4 0.1-0.9 0.3-1.3 0.4 0.2 1.7 0.6 3.4 0.9 5zm376.2 837.6c-0.3-0.1-0.6-0.1-1-0.2-0.4 1.4-0.7 2.8-1.1 4.2 0.5 0.1 1 0.2 1.6 0.3 0.2-1.4 0.4-2.9 0.5-4.3zm-716.8 661.7c-2.7 3.8-2.7 3.8 0 6.8v-6.8zm610.7 465.7c-0.2-0.6-0.4-1.2-0.6-1.7-0.5 0.3-1.5 0.6-1.4 0.8 0.1 0.7 0.5 1.4 0.9 2l1.1-1.1zm232.3-982.4l-1.8-1.2-1.8 4.5c0.5 0.2 0.9 0.4 1.4 0.6 0.8-1.3 1.5-2.6 2.2-3.9zm-88.9-150.8c0.5-0.2 1-0.3 1.5-0.5-0.5-1.7-1-3.4-1.5-5l-1.8 0.6c0.6 1.6 1.2 3.3 1.8 4.9zm-422.2 658c-1-0.5-1.9-1.4-2.3-1.2-0.6 0.3-1.3 1.4-1.2 2.1 0.1 0.6 1.2 1 1.8 1.5 0.5-0.7 1-1.4 1.7-2.4zm410.4-673.5c-0.6-0.1-1.2-0.2-1.8-0.2-0.2 1.7-0.4 3.3-0.6 5 0.6 0.1 1.1 0.1 1.7 0.2 0.2-1.7 0.5-3.4 0.7-5zm-736.6 669.7c-0.7-0.5-1.4-0.9-2.1-1.4-0.9 1.6-1.7 3.2-2.6 4.7 0.5 0.3 1 0.6 1.4 0.9 1.1-1.4 2.2-2.8 3.3-4.2zm735.4-711.9h1.9v-6.1c-0.4 0-0.8 0-1.2-0.1-0.2 2.1-0.5 4.1-0.7 6.2zm-375.7 678.1c-1-0.6-1.7-1-2.5-1.5-0.4 0.8-1.2 1.6-1.1 2.4 0 0.5 1.1 1 1.8 1.5 0.5-0.6 1-1.4 1.8-2.4zm207.6-236.5c0.5-1.6 1.1-2.7 1.1-3.8 0-0.5-1.3-0.9-2-1.4-0.6 1-1.4 2-1.7 3.1-0.1 0.4 1.3 1.1 2.6 2.1z" fill="inherit"/>
		<path d="m1054.4 1513.7c-2.3 5-4.7 9.9-7.5 15.8 6.9-0.8 13.3-0.5 17.9-6.4 1.4-1.8 3-4 5-4.6 7.8-2.1 12.9-7.9 18.8-12.7 6.8-5.6 14.2-10.3 21.5-15.3 0.6-0.4 1.8 0.2 3.9 0.6-12.9 19.4-29.6 35.1-42.2 53.8 0.7 0.6 1.3 1.1 2 1.7 10.8-6.8 21.7-13.7 33-20.8 1.6 1.9 2.1 5.4-0.5 6.2-6.7 2.1-8.6 10.6-16 11.2-0.3 0-0.5 0.4 0.3 1.1-1.1 3.4-1.8 7-3.5 10-4.1 7.2-9.1 13.9-13.1 21.1-4 7.3-3.7 7.4 2.4 13.4 0.7 0.6 1 1.6 1.8 3.2-2.3 1.2-4.5 2.3-7.3 3.8 6.4 7.3 1.6 15.1 0.6 22.5-1.2 8.7-0.8 16.8-0.1 25.4 1.3 14.5 8.7 26.4 14.5 38.8 2.7 5.7 9.8 9.4 15.5 14.6 5.5-7.8 3.7-18.1 9.4-26.3-0.8 6.9-1.9 13.8-2.4 20.7-0.6 6.9-0.9 14 5.6 21 1.2-4.3 2.1-7.3 2.7-10.3 1.8-8.5 3.4-17 5.1-25.4 0.1-0.3 0.1-0.7 0.2-1 4-8.3 4.9-17.4 6.8-26.3 1.2-5.6 5.2-10.6 7.4-16.1 2.2-5.4 3.6-11.1 5.6-17.5 2.3 6.1 7 10.7 4.5 18.9-4.5 14.6-7.6 29.6-11.2 44.4-0.6 2.4-0.1 5 1.2 7.9 0.7-1.5 1.5-3 2-4.6l8.7-27.6c2.5-8.3 4.8-16.6 7.5-24.8 1.2-3.7 2.9-7.5 5.3-10.5 11.9-15.8 20-34.5 35.9-47.4-16.7 3.4-21.9 19.5-33 29.2-2.2-9.6-3.7-10-12.8-2.6 0.1-2.1-0.2-3.8 0.4-5.1 1.6-3.4 4.9-6.4 1.7-10.7-0.4-0.6 1-3 2.1-4.1 7-7.5 14.9-13.8 23.7-19.3 6.1-3.8 11.2-9.3 17.4-14.8 0.4 0.1 2.2 0.4 4.4 0.9 3.3-6.2 5.5-14.6 15.6-7.4 1.9-7.1 7.9-6.5 13.3-7.3 4.9-0.7 9.8-5 14.7 1.3 2.4-5.2 1.7-11.8 9.7-11.6-1.6-3.3-2.7-5.6-4.3-9-8.4 5.2-18.4 0.1-26.5 6-7.2-2-11.8 4.5-18.2 6 1.5-8.6 7-11.1 14.5-12.9 7-1.6 13.2-6.2 21-5.3 2 0.2 4.4-1.5 6.2-2.8 7.1-5 15.4-5.8 23.4-7.7 8.7-2.1 17.1-4.4 26.2-4.4 1.9 0 4.3-2.6 5.6-4.5 5.2-8.2 12.1-9.6 18.4-2.6 4.1 4.6 8.6 4.4 13.5 4 3.3-0.3 6.6-0.9 9.9-1.1 1.3-0.1 3.4-0.1 3.8 0.6 6 10.4 15.4 4.3 23.3 4.6 5.8 0.3 11.8-1.7 17.7-1.9 5-0.2 8.8-1 8-7.4 37.6-2.4 74.7-4.8 111.7-7.2-3.4 2.4-7.8 2.1-10.7 7 9.8 1.9 18.5-0.4 27.2-1.3 8.9-0.9 17.8-1.7 26.6-2.6 11.2-1.2 22.3-2.4 33.5-3.7 20-2.3 40-4.8 60-6.9 5.2-0.5 10.5 0.2 15.8 0.1 10.9-0.3 21.8-0.9 32.8-1 5 0 6.3-2.4 6-7.2h29.3c0 0.4 0.1 0.8 0.1 1.2-4.7 0.9-9.4 1.9-14.5 2.9 0.8 1.3 1.6 2.9 1.7 2.8 6.2-2.5 11.6 1.5 17.4 1.9 7.8 0.6 8.8-0.9 6.7-9.3 3.5-1.3 5.2 1.2 7.4 3 1.8 1.4 6.3 2.8 6.3 2.7 3.5-7.2 10.7-2 15.4-4.9 1.6 6.3 6.2 10.3 9.5 7.6 4.1-3.3 7.9-4.2 12.7-3.6 0.1 0 0.4-2.1 0.7-3.7 0.3 0 1.6 0 2.7 0.4 1.7 0.6 13 0.7 14.8 0.2 1.6-0.4 3.5-1 4.9-0.5 8.3 3.3 16.3-1.3 24.5-0.6 1.4 0.1 2.8-1.5 4.3-2.4-0.1-0.7-0.3-1.3-0.4-2-18.5-0.6-37-1.7-55.5-1.4-6.1 0.1-12.2 4-18.3 6.2-0.7-4-3.4-5.1-7.2-5.2-12.3-0.4-24.5-1.7-36.8-1.6-20.6 0.2-41.2 0.7-61.7 2-18.6 1.2-37 3.7-55.6 5.4-9.7 0.9-19.5 1.2-29.3 0.9 8-7 18-3.5 27-5.1 9.4-1.6 19-1.4 29-2 1.3-2.1 2.6-4.3 3.4-5.5 3.6 1 7 3.3 9.3 2.5 6.3-2.4 12.2-1.2 18.5-0.7 6.5 0.5 13.2-0.8 19.8-0.9 15.5-0.3 31-0.3 46.5-0.6 15.2-0.3 30.4-1.2 45.7-1.3 11.8-0.1 23.6 0.8 35.4 1.2 1 0 2 0.1 2.9-0.3 7-2.5 13.9-5.8 21.6-3 7.1-4.8 15.3-4.2 23.1-3.7 15.4 0.9 29.3-2.8 42.3-10.8 2.4-1.5 6-0.8 8.5-2 9.9-4.9 19.1-4.6 27.8 2.8 0.7 0.6 1.8 1.1 2.7 1.1 9.6 0.1 18.7 4 28 4.3 16.2 0.5 32.5-1.2 48.8-2.2 2.1-0.1 4.2-2.2 6.3-2.3 13.6-0.5 26.6 1.1 35.8 13.1 1.1 1.5 3 2.5 4.8 3.3 10 4.4 19.7 9.8 30.2 12.6 16.4 4.3 32.7 8.3 47.2 17.4 17.4-1.1 23.1 13 31 24 4.4 6.2 8.6 12.3 16.5 14.3 1.2 0.3 2.7 1 3.3 2 3.4 5.9 6.9 11.8 9.6 18.1 3.4 8.1 6.1 16.6 9.1 24.9 0.3 0.9 0.9 1.9 1.6 2.5 5.7 5.7 11.5 11.3 16.7 16.4 4.3 19.9 2 39.5 1 59-0.3 6.7-2.7 13.8-6 19.8-5 9.2-7 19.2-10.1 29-3.6 11.7-7.7 23.3-12.3 34.7-6 15.1-12.5 30-19.3 44.8-4 8.6-9.1 16.7-13.6 25.1-7.7 14.5-16.7 28.2-24.9 42.4-5.3 9.2-11.6 18-15.7 27.7-4.6 10.9-10.9 21.4-11.6 33.7-0.1 1.2-1 2.4-1.9 4.6-2.3-3.2-4.1-5.8-5.7-8.2 0.6-1.6 0.8-2.7 1.4-3.3 8.8-8.6 8.8-8.6 4.3-20.3-0.8-2-0.3-4.4-0.4-6.6-0.1-3.1-0.5-6.2-0.3-9.3 0.1-2.2 0.5-4.5 1.5-6.5 4.9-9.8 10.1-19.4 15-29.2 1.6-3.2 2.8-6.8 3.4-10.3 1.6-9.9 4.9-19.1 10.6-27.5 1.5-2.2 2.1-4.9 3.7-8.8-2.9 0.9-4.2 0.9-4.6 1.5-6.8 8.9-15.1 17.2-19.6 27.2-3.9 8.7-11.6 11.9-17 18.1-4.5 5.1-8.2 11-12.2 16.5-1.6 2.1-2.8 4.6-4.6 6.5-4.7 4.8-8.8 9.9-9.7 16.9-0.2 1.6-1 3.7-2.1 4.3-6.5 3.3-7.5 10.1-9.3 15.6-5 15.5-14.1 28.6-23.7 41.3-7.9 10.3-13.4 21.9-19.7 33.1-9.1 16.2-18.6 32.2-27.9 48.3-3 5.2-5.5 10.6-8.4 15.8-5.9 10.8-12 21.4-17.9 32.2-4.1 7.5-2.7 16.1-4.4 24-0.3 1.3 0.1 3.5-0.5 3.7-5.8 2.6-6.5 8.9-10.1 13.1-5.8 6.8-11.3 13.8-17.4 20.3-3.2 3.4-5.1 7.2-7.1 11.4-2.9 6.2-8 11.3-12.3 16.8-3 3.9-5.9 8-9.2 11.5-3.8 4-8.5 7.3-12.2 11.4-5.8 6.3-10.9 13.2-16.7 19.4-6.1 6.5-12.6 12.7-19.2 18.7-7.6 6.9-15.2 13.8-23.3 20.1-9.6 7.5-19.7 14.3-30.4 22 3.1 0 6.2 0.7 8.9-0.1 7.1-2.2 14-5 20.9-7.6 1.2-0.5 2.3-1.7 3.5-1.8 14.7-1.8 25.4-11.1 36.7-19.5 3.6-2.7 8.2-4.1 12.1-6.6 2.1-1.4 3.5-3.7 5.2-5.7 0.6-0.7 0.7-2.1 1.4-2.5 15.8-9.8 25.5-26.1 39.9-37.5 4.3-3.4 6.4-9.6 9.9-14.3 2.1-2.8 4.9-5 8.2-8.4 0-4.5 2.7-8 7.7-12.1 8.5-6.9 16.4-15.4 16.6-27.9 0.1-3.6 0.7-7.3 2.1-10.6 3.4-8.3 7.9-16.1 10.8-24.5 2.3-6.8 2.9-14.1 4.2-21.3 0.3-1.6-0.5-3.5 0.1-4.8 2.6-6 5.4-11.9 8.2-17.9 2.6 0.3 6.2 1.7 7.8 0.5 1.8-1.3 1.5-5.2 2.4-7.8 1.2-3.6 2.5-7.2 3.3-9.3 4.3-3.2 9.3-5.1 10.8-8.6 1.5-3.3-0.6-8.1-1.1-12.5 7.8-2.2 10.4-8.9 13.7-14.9 1.4-2.5 1.3-2.5 6.2-4.1-1.3 5.8-2.6 11.5-3.7 17.3-0.1 0.4 2 1.1 3.5 1.9 5-9.2 6.3-18.7 5.9-28.3-0.2-5.5-0.2-9.7 6.4-11.5 2.1-0.6 3.4-4.2 5.7-7.4 1.3 0.2 3.8 0.6 7.5 1.1-0.7 4.3-1.1 8.4-2.1 12.4-2.8 11.2-4.5 22.9-9.2 33.2-5.1 11.1-8.9 22.4-13 33.8-2.3 6.4-7.2 11.9-10.6 18-3.3 5.8-5.6 12.1-4.4 19-4.9 3.8-11.3 6.5-12 15.3 7.4-3.9 9.4-9.8 11.7-15.6 2.4-1.8 4.7-3.6 7.2-5.4 3.5 2.6 2.2 5-0.3 7.9-8.1 9.2-16.3 18.3-24 27.9-9.8 12.4-19.6 24.9-28.6 37.8-25.1 35.9-53.7 68.6-86.6 97.4-10.9 9.5-23 18-35.3 25.5-10 6.2-21.3 10.3-32 15.3-4.8 2.2-4.8 2.2-10.7-1.7-13.3 11.8-29.8 7.9-45.4 9-1.6 0.1-3.3-0.4-4.8-0.9-4.3-1.3-5.2 6.2-10.3 3.6-3.4-1.8-7.2-3.3-11-3.9-9.2-1.3-18.5-1.8-27.8-3-5.8-0.7-11.6-1.4-17-4.8-3.7-2.3-8.5-2.8-12.9-5.2 2.1 0.1 4.1 0.2 7.4 0.4-2.4-3.5-4.1-6-6.5-9.4-4.3 1.3-8.8 3.2-13.5 4.1-2.3 0.5-5.1-0.2-7.4-1.1-7.1-3-13.6-7.3-21.7-7.9-12.2-0.9-21.9-8.9-33.8-12.1-0.2-6.5-3.4-9.8-10.2-11.1-6.4-1.2-12.5-4.4-18.7-6.8-4.6-1.8-9.6-3.3-9.5-9.7-9.7-1.1-18.8-2.2-27.9-3.3-0.6-0.1-1.7 0-1.9-0.4-3.1-5.7-8.3-6.2-14.1-5.2 2.3-9.3 4.7-10.5 11.1-6.5 1.9 1.2 3.9 2.3 5.9 3.3 0.5 0.2 1.3-0.2 1.9-0.3 0.6-10.1-2.8-13.6-12-12.7-5.1 0.5-10.3 1.1-15.5 1-4.9-0.1-9.2 0.3-13.9 2.8-3.8 2-9.1 1.2-13.8 1.3-0.4 0-0.9-2.3-1.3-3.5 5-3.1 11.9 1.2 16.9-5.4-3.2-2-6.4-3.6-9.1-5.8-2.6-2.2-4.7-5.1-7.9-8.7-12.9-3.9-27.6-9.4-42.2 2.4 2.6-3.7 5.4-7.2 7.8-11 2.4-3.9 4.4-8 7-12.6-2.6-2-5.2-4.1-8.8-6.9-4 1-9.6 2.4-14.7 3.7-3.2-4.9-6.2-9.8-9.5-14.4-2.9-4-7.5-4.1-11.8-4-6.9 0.2-13.8 0.8-20.6 1.5-2.2 0.2-4.2 1.7-6.8 2.7 0.8 7.7 1.8 14.8 10.9 16.8 3.5 0.8 4.9 3.2 4.8 6.6-0.1 3.9-0.3 7.8-0.5 12.3 2.9 0.4 5.7 0.7 9.4 1.2-1.8 9.9-10.3 7.8-17.3 12 1.9-5.3 3.1-8.8 4.4-12.4-14.3-1.8-27.9-3.5-42-5.3-0.5 5.4 6.4 7.1 8.6 14-6.4-4-11.4-7.2-16.3-10.3-1.9-1.2-3.8-2.7-5.9-3.3-8.7-2.8-8.7-2.7-12.5 6.2-0.5 1.2-1.6 2.1-2.4 3-9.8-0.6-15.1-8-21.7-13.4-4.9-4-9.2-8.7-14.1-12.7-1.7-1.4-4.3-1.8-6.5-2.6-0.4 0.6-0.8 1.3-1.2 1.9 5.9 6 13.1 11.3 17.4 18.3 4.5 7.5 10.3 13.4 17.7 19.9-5 0.3-8.8 0.5-13.7 0.8 3.1 7.2 3.9 12.7-4.4 15.5-1.9 0.6-2.8 4.1-4.4 6.6 5.2 3.3 10.1 6 14.5 9.4 3.5 2.8 5 6.5-1.5 9.4-1.2-4-1.3-9.8-8.9-8.2-2.8 7.5 8.5 12.4 4 20.6-5.1-3.2-11-4.9-16.1-10.1-4-4.1-11.4-5.6-15.9-10.7-0.7-0.8-4.1-0.2-5.3 0.8-1.1 1-1.8 4.1-1.1 5.2 2 3.1 4.9 5.6 7.9 8.8-1.9 2.2-3.8 4.3-7.9 2.6-7-2.9-14.2-5.1-21-8.6-5.1-2.6-9.3-5.8-13.5-9.5-2.6-2.2-6.3-3.1-10.1-4.8 1.4 11.2 7.9 19.5 16.6 22.7 1 2.8 1.6 5.6 3.1 7.9 2.9 4.6 3.1 4.5-0.1 10.4 2.4 2.7 4.8 5.4 7.3 8.3-3.6 2.5-6.1 4.3-8.7 6.1-0.6 0.7-1.2 1.3-1.8 2l-3.9-9c-1 0.5-1.9 1-2.9 1.5-0.3 2.9-0.7 5.8-1.1 9.5-4-2-7.8-4-13.4-6.8 0.4 4-0.2 6.7 0.9 8 3.6 4.2 7.9 7.8 11.6 11.9 2.9 3.2 5.9 6.5 8 10.2 4 7 0 13.4-8 13.4-9.6 0-19.1 0-28.7-0.5-7.8-0.4-14.9-3.1-21-8.1-1.9-1.5-4.3-3-6.6-3.2-11.6-1-23.2-1.6-34.7-2.3-2-0.1-4-0.4-5.9-0.7-4.9-0.8-8.1-2.9-7.4-8.6 0.2-1.5 0-3.1 0-5.7-8.6 5.4-16.3 10.2-23.3 14.6-3.2-1.3-5.7-2.8-8.3-3.2s-5.3 0.3-7.9 0.6c-10.5 1.1-10.5 1.1-10-10.6 8.5 7.9 17 2.6 25.2-0.4 5-1.8 4.8-2.5 4.6-9.6 5.5-2.1 12.2-3 14.6-10.4-3.1-1.6-6-3.2-9-4.6-11.2-5.2-15.3-14.9-17.6-26.2-0.7-3.6-1.3-7.4-6.9-8.3-3.1-0.5-5.7-5.1-7.9-8.3-5.8-8.5-10.8-17.4-9.6-28.3-7.5-2.1-10.7-7.1-11.4-17.5-0.2-2.7-0.9-5.3-1.7-10.1-2.9 3.5-4.3 5.1-5.8 7-2.1-1.2-4.4-2.5-6.7-3.9 0-1.1-0.4-2.3 0.1-3 1.3-2.2 2.8-4.4 4.5-6.4 2.5-2.9 3-5.5 0.8-9-2.3-3.6-3.7-7.7-5.5-11.6-0.6-1.2-0.7-2.9-1.6-3.6-11.8-9.5-11.8-24.7-18-36.9-4.3-8.4-6.8-17.6-10.6-26.3-0.8-1.7-3.6-2.5-6-4.1 0.1-9.5-4.3-18-8.6-26.5-2.1-4.1-4.1-8 2.1-11-8.8-9.4-14.2-20.6-18.1-32.7-4.2-13.3-8.7-26.4-12.8-39.7-2.5-8.3-7.2-14.9-14-20.1-3.7-2.8-6.4-6.3-8.9-10.4-2.7-4.6-7-8.3-10.7-12.3-1.3-1.4-4.2-3-4-4 1.7-9.6-6.8-15.2-8.7-23.5-1.9-8.2-7-15.7-9.5-23.8-1.9-6.2-2.5-12.9-3-19.5-0.8-11.6-3-22.6-7.6-33.5-7.4-17.2-14.4-34.9-19.2-53-3.2-11.9-2.2-24.8-3-37.3 0-0.6 0.1-1.4 0.5-1.9 7.4-9.4 3.7-18-3-27.3 4.2-5.8 8.5-11.5 12.7-17.3 1-1.3 2.1-2.6 2.8-4.1 3.5-7.8 7.5-15.5 10.2-23.6 6.1-18.3 16.3-34 30.1-47.3 3.8-3.7 7.4-9.9 15.1-6.1 1.5 0.7 6.1-1.8 7.3-3.9 3.8-6.7 9.3-10.6 15.8-14.5 11.9-7.1 22.8-15.9 34.6-23.2 10.5-6.5 21.8-11.8 34.7-11.7l-1.1-0.4zm653.2 343c2.7 2.8 5.7 4.2 9.8 3.6 9.3-1.3 18.6-2.5 28-3.1 9.9-0.6 10-0.2 12.7-9.4 0.8-2.7 1.5-5.5 2.2-8.2-6.6 4-12.7 5.7-19.6 1.9-1.6-0.9-4-2.4-5.1-1.8-4 2.2-6.3-0.5-8.9-2.2-7.5-4.9-9.8-4.6-17 3.3 3.5 3.4 7 6.9 12.1 11.9-5.8 0-9.3-0.2-12.8 0.2-0.6 0.1-0.9 2.6-1.4 3.8-8.9-4.5-10.1-4.2-11.5 2.7 4.7 2.9 7.7-1.7 11.5-2.7zm8.7-31.3c3.3 2 6.8 3 10.3 0.8 8-4.8 16.9-5.2 25.9-5.6 14.5-0.7 29-2.9 42.3 5.5 1.8 1.2 4 1.8 7 3.1 3.6-7.4 7-14.3 11.2-22.9-4.4 0.8-7.4 0.6-9.3 1.9-5.1 3.5-10.2 3.1-15.9 2.3-5.1-0.7-10.4 0.6-15.7 1-9.3 0.7-18.5-3.4-28-0.5-4.5 1.4-9.4 2.8-14 2.5-7.1-0.5-13.2 1.3-19.4 4.7 2.2 2.9 4 5.3 5.7 7.6h-11.2c-0.7-0.9-2-2.4-4-4.9-0.9 2.6-1.5 4.1-2 5.5-6.7 1.4-9.7-2.3-11.2-8 2.8-2.4 5.5-4.7 9.9-8.5-4.1-0.3-5.7-0.5-7.3-0.5-9.8 0.6-16 8.4-24.3 12.2-0.5 0.3-0.1 2.7-0.1 4.5 13.8-5.3 14.7-2.1 21.4 6.5 4.4 5.6 9 7.1 13.9 5.8 4.1-3.2 7.2-5.4 10.1-8 1.9-1.5 3.2-3.3 4.7-5zm-389.8 74.1l-0.2-0.2c-1.8 3.4-3 7.3-5.4 10-6.6 7.3-13.8 14-20.7 21.1-1.2 1.2-1.7 3.1-3.1 5.6 10.5-0.4 18.2-2.8 22.1-12.5 1.2-3 3.9-5.3 6-8 10.2-13 20.5-26 30.6-39.2 1.6-2 2.4-4.7 4-8.2-11.6 3.8-14.5 15.3-24.9 18 2.8-3.7 5.6-7.4 8.4-11.2-3.9-2.7-6-1.2-8.2 1.5-7.2 8.6-14.3 17.4-21.9 25.6-10.8 11.7-22.1 23-33.1 34.6-0.8 0.8-1.1 2-1.6 3 3.4-0.4 5.9-1.8 7.8-3.8 9.4-9.9 18.5-20 27.9-29.8 3.2-3.2 6.1-8 12.3-6.5zm-170.3-217.6c1.9-0.8 4.5-1.2 5.6-2.6 2.8-3.7 5.1-7.8 7.3-11.8 7.1-12.7 14.3-25.3 26.4-34.2 8.2-6.1 15.8-13 23.8-19.4 2.9-2.3 5.6-4.5 4.1-9.7-6.1 1.6-11.7 3-17.4 4.5-1.4 0.4-3 0.6-4.2 1.4-3.7 2.7-7.2 5.8-10.9 8.6-16 12.4-27.8 27.3-30.8 48.2-0.5 5.1-2.5 10-3.9 15-1.2 3.9-2.6 7.8-3.6 11.7-0.4 1.8-0.1 3.8-0.1 7.6 7.3-12.9 7.3-12.9 3.7-19.3zm497.9 311.4c-0.3-2.1-0.5-4.1-0.9-7.1-4.5 2.2-7.3 3.9-5.2 9.2 2.2-0.8 4.3-1.6 6.4-2.3-0.1 5.9 0.7 11.3-2.4 17.4-4.2 8.2-5.2 18-7.7 27.7 7 1.2 11.5-1.9 15-7.2 1.5-2.3 2.2-5.9 7.1-4-4.7 8.8-8.7 16.8-20.9 16.7-5.1 0-10.3 3.4-16.6 5.7 2.8 3 4.4 4.8 6.4 6.9-3.3 2.4-6.1 4.6-9.1 6.7-1.9 1.3-5.4 2.2-5.7 3.7-1.2 7.1-7.2 9-11.9 12.4-0.8 0.6-1 2.1-1.6 3.5 7.1 2.4 9.7-3.6 13.5-6.6 4.9 6.2-6.6 7.4-2.6 13.8 2.1-0.9 4.9-1.3 6.5-2.9 5.1-5 6.9-11.6 6.6-16.8 5.4-3 10.3-4.7 13.6-7.8 9.6-9.2 18.8-18.8 27.7-28.6 3.6-4 6.5-8.4 13.4-5-0.4-6-1-11.3 5.7-12.5 2.9 4.6 5.8 9.1 8.9 14 7.2-9.6 12.3-19.1 21.1-25.8 6.6-5 6.7-7.9 3.4-16.1l-0.2 0.3c9.3 0.5 10.4-0.3 12.8-9.2-8.5-6.1-8.5-6.3-4.5-16 0.9-2.2 1.5-4.5 2.2-6.8-0.6-0.3-1.2-0.5-1.7-0.8-4.6 7.9-9.1 15.8-14.1 24.3-4.6-2.1-4.4-5-3.1-8.9 4.3-12.8 15.3-22.7 15.9-37 0-0.3 0.4-0.5 0.5-0.8 6.7-9.3 13.4-18.6 20.1-28 5.2 1.2 5 1.1 8-2.1 5.9-6.4 7.6-13 0.6-21 3-1.8 5.5-4.5 7.7-4.3 5.7 0.4 8.1-6.1 7.5-6.9-3.6-5.4 2.3-9.7 1.1-14.3-2.4-1.5-4.6-3-6.8-4.2-4.4-2.2-11.1-1.4-12.3 1.9-2.5 7.3-4.4 14.8-1 23.4-9.3-5.2-18.2-7.3-27.9 0.3 0.6-3.7 0.9-5.8 1.3-8.7-4.8-1.1-9.3-2.2-13.5-3.1 1.4 3.9 2.6 7.4 4.2 12.1-5.2 0.7-9.3 1.2-13.4 1.8 1.6-1.8 3.2-3.7 5.4-6.3-5.7-1.9-7.2-8.2-14-5.8 1.4 2.5 2.6 4.5 4.1 7.1-2.7 0.8-5 1.6-8.3 2.6 1.7-7.3-2.4-8.4-7.3-8.2-5.8 0.2-10.3 1.8-14 7.4-7.4 11.1-16 21.4-24.1 32-0.1 0.1-1.1-0.4-1.9-0.8 1.7-6.6 3.5-13.2 5.2-19.8-4.8-2-7.7 1.1-10.9 3.4-4 2.9-7.9 7.1-12.3 8-7 1.4-10.9 5.3-14.8 10.7 2.1 1.7 3.9 3.1 5.6 4.6-0.3 0.7-0.5 1.4-0.8 2.1-5.2-0.6-10.4-1.1-16.6-1.8 4.1 7.1 3.9 8.2-0.7 10.3-2.1 1-4.7 1.4-6.1 2.9-7.5 7.8-14.9 15.8-22.1 23.8-5.2 5.8-10.2 11.9-16 18.7 0.8 1.8 2.8 5.4-1.2 8.2-11.6 8.1-19.6 20.7-33 26.6-1.4 0.6-2.9 2.1-4.2 2-10.5-0.8-16.9 6.5-24.3 11.9-5.1 3.8-8.6 10.3-16 9.8-4.4 8.7 0 13.4 7.2 17.3 3.9-1.4 8.9-1.4 11.2-6.5 0.4-0.9 2.4-1.9 3-1.7 5.5 2.5 6.8-2.4 9.5-4.9 4.8-4.5 9-10.3 14.7-12.9 9.2-4.3 15.2-10.3 17.5-21.3 3 3.8 5.4 6.8 8.3 10.4 3.5-1.9 7.1-3.9 11.4-6.3-0.2 3-0.4 5.5-0.7 10.1 3.5-3 5.9-4.4 7.2-6.4 5.5-8.1 12.2-14.5 22-16.9 1.5-0.4 3-1.5 3.9-2.8 3.5-5.2 6.7-10.5 10-15.8l-0.1 0.2c2.9 3.3 5.8 6.5 8.3 9.4-2.3 4.8-9.2 5.9-5.9 12.8 5.7-3.2 8.3-8.4 8.9-13.7 0.8-7.5 6.4-9.9 12.2-15.2-0.3 6.9-0.6 12-0.9 17.8-3.8 0.9-6.2 3.5-6.1 8.3 0 2-1.7 4.1-2.6 6.2-1.4 3.2-2.7 6.4-4.1 9.5 0.8 0.4 1.5 0.7 2.3 1.1 9.3-10 17.1-21 19.3-36.6 2 2.7 3.1 4.3 4.4 6 4.9-6.1 10.1-10.9 11.3-18.6 0.4-2.4 3.4-6 5.4-6.1 7.5-0.5 10.5-5.8 11.8-11.3 1.7-7.3 6.6-9.7 12.1-12-3.1 6.3-5.7 12.5-9 18.4-3.5 6.2-12.1 8.2-14 16.2 2.2 1.4 4.2 2.6 6.1 3.8-3.2 8.6-6.8 16.8-10.4 25.1zm215.7-317.4c1.7 1 2.7 4.5 5.3 1.8 0.9-1 0.8-3 1.4-6.1-3.2 2.2-5.1 3.4-6.9 4.6 0.9-4.8 1.7-9.5 2.5-14.2-5.6-2.7-9.7-0.9-13.9 1.2-5.6 2.7-7.7 1.4-8.3-4.9-0.2-1.9 0-3.8 0-5.1-9.1-7.2-17.4-4.7-25.9-0.4-0.9 0.4-2.2 0.5-3.2 0.2-6-1.9-12.4-2.1-18.5-1.9-4.4 0.2-6.8-0.9-8.6-4.1-2.8 1.2-5.2 2.2-6.5 2.8-4.2-2.3-7.3-4.6-10.8-5.8-4-1.4-8.4-2-12.6-2.5-27.6-3.8-55.3-7.5-83-11.1-5.6-0.7-11-1.4-16.6 1.1-2.2 1-5.5-0.5-8.3-1-1.2-0.2-3-1.5-3.3-1.1-3.3 3.7-5.7 0.7-8.6-0.6-2.3-1.1-5.1-1.6-7.7-1.8-7.3-0.4-14.5-0.6-21.8-0.7-5.6 0-7.6 2.7-6.2 8.4 0.5 1.9 1.5 3.6 2.2 5.2 5.5 1.1 10.2 0.9 14.2-3.1 1.3-1.4 3.4-2.5 5.2-2.7 2-0.2 4.6 0.1 6.2 1.3 0.7 0.5 0.2 3.8-0.7 5.3-3.3 5.9-6.9 11.6-10.4 17.5 5.3 7.1 11.5 1.2 17.8 1.1 3 3.9 6.2 6.8 11.9 3.1 4.4-2.9 9.1-1.1 13.6 2.3-4.9 3-9.1 5.6-13.6 8.3 1.3 3 2.3 5.3 3.3 7.6-6.8 3.1-13.1 0.6-18.7-1.4-6.6-2.4-8.9 0.5-12.2 6.2 3.8-0.4 6.4-0.6 8.8-0.8 1.7 5-1.7 4.5-3.9 5.7-1.4 0.8-1.7 3.6-2.5 5.5 1.7 0.7 3.6 2.3 5 1.9 5.9-1.6 11.7-3.8 17.5-5.7v-7.2h13.1c1.4-1.9 2.7-3.6 3.6-4.8 4.6 1.5 8.5 2.7 12.2 3.9v-15.1c13.1-7.4 9.9-5.7 36.4-8.2-1.5 6.8 4.5 7 10.2 9.2-3.8 3.1-6.4 5.1-9.6 7.7 9.9 6 19.9-0.3 29.9 2.1-4.8 2.7-9.1 5.1-13.3 7.6 0.3 0.8 0.5 1.5 0.8 2.3 4.8-0.3 9.6-0.6 14.3-0.9 0.5 8.2-2.6 11-10.9 9.3-2.1-0.4-3.3-1.5-4.7 1-0.6 1.2-2.6 2.4-3.8 2.3-5-0.4-8.6 1.5-10.5 6.3-1.6-1.5-2.5-2.3-3.3-3-5.6 3.7-5.8 8.7-4.3 15.2-3.1-0.3-5.9 0.1-7.8-0.9-4.2-2.3-9-1.9-11.9 1.5-2 2.4-4.2 4.5-6.1 6.5-7.1-5.1-9.5 1.8-13.6 4.1-6.4-2.3-13.2-1.2-18.1 2.4-6.8 4.9-14 8.5-21.4 12-1.5 0.7-3.2 2.7-3.4 4.3-0.8 6.8-0.1 13.8-1.6 20.4-1.6 6.9 0 15.7-8.9 19.7-1.4 0.6-2.4 3.2-2.7 5-0.7 4.1-0.9 8.3-1.4 12.7 7.3 1 12.4-3.6 18.1-5.7 10.8-4 20.9-9.9 33-9.3 4.3 0.2 8.8-1.1 11.3-5.2 2.6-4.4 6.7-4.8 11.1-5.4 4.2-0.6 8.9-0.9 12.3-3 11.3-6.8 22.6-12.7 36.2-12.2 3.2 0.1 6.4-3.6 10.5-0.1-6 4.5-11.8 7-18.7 7-3.2 0-6.7 0.4-9.5 1.8-7.4 3.7-14.5 7.9-21.6 12.2-1.4 0.9-2.3 2.8-4.3 5.4 3.4 0 5.7 0.7 6.9-0.1 8.3-5.9 17.3-7.2 27.1-5.9 2.1 0.3 4.4-0.4 6.7-0.7l-0.2-0.3c-5.4 10.1-15.1 12.5-24.1 13.4-2.7 4.4-4.8 8-7 11.6 6.8 1.3 13.5-6.3 21.1-1.5 0.6 0.4 2.6-1.9 4.1-2.2 9.4-2 16.6-9.8 27-9.5 5.7 0.2 11.5-1.3 18.4-2.2-1.7-3.4-2.8-5.4-4.5-8.7 3.6-0.2 6.7-0.8 9.5-0.4 8.8 1.2 17 3.8 24.5 9.3 8.2 6.1 12.1 4.8 17.4-4.4 4-6.9 7.5-14 11.3-21 3.8-6.9 7.9-13.6 11.6-20.5 3.5-6.3 6.1-12.7-1.9-18.8 7.7-5.9 8-17 17.9-20.5 1-0.4 1.7-2.6 2-4.1 0.6-3.1 0.9-6.3 1.4-9.4-1.2-0.4-2-1-2.4-0.8-5.5 2.5-8.2-1.6-9.7-5.2-1.7-4.1 2.1-6.7 5.3-8.3 4.4-3 9.2-4.8 13.8-6.8zm-448.9 13c0-6.3 0.4-12.2-0.1-18-0.7-7.5-2.5-15-3.2-22.5-0.4-4.1 0.5-8.4 1-13.9-5.4 0-9.6-0.1-13.8 0-3.7 0.1-7.3 0.8-10.9 0.9-36.5 0.9-73.1 1.5-109.6 2.6-17.8 0.5-35.4 3-52.2 9.6-16.9 6.6-28 18.6-34 35.4-1.6 4.6-1.2 9.9-2.2 14.7-5.7 27.9-8.2 56-6.2 84.6 0.5 7.1 2.8 12.1 8.1 17 6.9 6.4 12.9 13.9 18.6 21.4 4.8 6.2 7 6.4 13.6 1.7 5.8-4.2 11.9-9 18.6-11 7.9-2.3 14.8-5.4 20.9-10.8 7.1-6.3 14.4-12.6 22-18.4 13.9-10.6 28.1-20.9 42.6-31.6 0.2 3-0.4 5.5 0.6 7.1s3.5 2.4 5 3.3c-2.2 7.1-6.8 10.3-12.7 10.6-2.7 4.4-2.5 10.4-9.1 9.9-0.4 0-1.2 0.8-1.3 1.3-2 8-8.4 8.9-15.1 9.6-1.6 0.2-3.1 2.1-5.3 3.7 3.5 1.2 5.4 2 7.9 2.8-3.4 3-6.1 5.4-9.4 8.3 3.8 2.6 6.4 4.3 10 6.7 15-10.5 30.2-21.1 45.1-31.6 8.1 6.3 7.9 6 15.4 0.4 4.8-3.6 10.1-6.3 15.2-9.5 2.1-1.3 4.1-2.7 6.1-4.2 0.2-0.2-0.8-2.4-1-2.4-2.7 0.5-5.4 1.2-8.1 2-0.9 0.3-1.4 1.6-2.3 1.9-2.7 0.9-5.6 1.6-8.3 2.4-0.5-1-1.1-2.1-1.6-3.1 17.3-17.6 38.3-29.8 61.3-41.8 1.8-12.7 1.7-26.6 1.1-41.4-3 1.2-4.7 1.7-6.7 2.3zm-36.8 195.1c-0.5-0.3-1-0.7-1.5-1-2.6 2.9-5.6 5.5-7.8 8.6-6 8.3-11.6 16.8-19.8 23.4-3.1 2.4-5.5 6.8-6.3 10.7-1.3 6.2-4.4 10.2-9.9 12.6-16.1 7.1-27.9 19.9-41.6 30.3-2.8 2.2-4 4.7-2.3 7.8 3.6 6.4 7.3 12.9 11.5 19 3.6 5.3 9.6 9.7 11.5 15.4 2.5 7.8 11.1 10.4 12.7 18.3 0.2 0.7 2.3 1 3.3 1.6 1.5 0.9 2.9 1.8 4.2 2.9 2 1.8 3.8 3.8 5.7 5.7-0.8-7.2 0.4-12.5 6-16.8 2.5-1.9 4.5-5 5.7-8 2.8-7.4 6.8-13.4 13.6-17.7 2.8-1.8 5.2-5.5 1.6-8.3-4.3-3.4-1.7-5.2 0.1-8.2s3.8-6.4 4.1-9.7c1.4-16.5 2.2-33.2 3.5-49.7 0.3-4.3 1.4-8.5 2-12.7 1.2-8 2.5-16.1 3.7-24.2zm371-330.8c14.2-6.3 25.6 0.1 37.6 1.2-0.3 5.3-5.9 10.3 2.1 15.5 0.4-7.5 6.1-8 11.5-9.2-0.3-3.5-0.6-6.3-0.8-8.3-5.2-1.8-9.5-3.7-13.9-4.7-5.1-1.2-10.6-2.7-15.7-2.2-5.9 0.6-11.4 0.2-17.3-0.4-25.3-2.5-50.8-4-76.2-4.8-19.2-0.6-38.6 0.2-57.8 0.8-5.5 0.2-10.9 2.8-16.4 3-5.8 0.2-11.6-2.2-17.4-1.8-10.5 0.8-20.8 1.6-31.4 1-4.4-0.3-9.4 0.9-14.2 1.5-3.6 0.5-7.1 2.7-10.9 4.2 1.1 1.6 1.6 2.1 1.8 2.7 0.3 0.8 0.4 1.7 0.7 2.6-5.6 0.7-5.6 0.7-9.8 4 1.4 1 2.9 1.8 4 3 5.7 6 11.3 6 19.5 3.5 11.5-3.5 24.1-4.7 34.8 4.5 1.3 1.1 3.8 1.8 5.4 1.4 12-3.4 23.9 1.2 35.9-0.1 10-1 20.3 0.2 30.5 0 2.3 0 4.5-1.9 7.1-3 12.8 5.3 21.4 5.1 31.3-1.2 3.1 2.8 6.3 3.5 10.8 2.8 14.9-2.4 29.7-5.1 45-1.2 7.3 1.9 13.4-2.1 18.3-7.5 1.2-1.3 1.1-3.9 1.6-5.8-2-0.1-5-1.2-5.9-0.3-3.8 3.9-5.9 1.1-10.2-1.2zm-549 32.1c0.6 0.5 1.3 1.1 1.9 1.6 11.7-3.5 24.2-3.5 35.6-8.2 1.7-0.7 4.3-1.1 5.7-0.3 4.1 2.5 8 1.1 11.4-0.4 12.2-5.4 25.2-2.2 37.7-4.7 2.8-0.6 5.8-0.4 8.7-0.6 5.8-0.5 11.7-2.7 17.1 1.6 1.1 0.9 3.1 0.7 4.7 0.7 8.1-0.3 16.2-1.2 24.3-1 7.1 0.2 14.3 1.6 21.9 2.6 0.5-2.1 1.1-4.6 1.7-7 6.4-0.6 13 0.7 18.9-6-7.3-1-13-2.3-18.8-2.4-34.8-0.3-69.5-1.3-104.3 1.6-16.4 1.4-32.2 4.4-47.7 9.5-5.6 1.8-10.9 4.9-16 7.8-1.4 0.9-1.9 3.5-2.8 5.2zm398.5 319.4c2.5 0.5 4.8 1.8 5.9 1.1 4.4-2.8 8.8-5.8 12.2-9.5 2-2.2 3.2-4.4 6.7-5 14.2-2.7 23.2-15.2 36.7-19.9 5.2-1.8 9.3-7 13.5-10.4 3-0.4 6.9 0.4 8.6-1.2 3.9-3.6 6.7-8.3 11-13.9-9.5-0.2-17.7-0.6-25.8-0.4-1.6 0-4.1 1.5-4.6 2.9-3.6 9.1-12.4 14-17.3 21.9-0.1 0.2-1.2-0.1-3.1-0.3 0.8-3.9 1.5-7.7 2.3-11.5-7 8.3-8.4 21-21.1 26.4 3.2-8.1 13.5-11.6 9-22.2-3.6 0.2-7.6 0-11.4 0.7-2 0.4-4.7 1.9-5.2 3.6-2.4 7.1-7.7 9.1-15.2 8.5 1 3.5 1.8 6.2 2.6 9 3.5-1.8 6.1-3.2 9.1-4.7 4.7 13.8-7.6 17.1-13.9 24.9zm-316-67.4c9-0.9 18.2 2.2 22.7-6.5 3.2-6.2 14.3-8.6 9.8-19-7.3-0.1-12.4 3.3-17.2 7.5-4.2 3.7-8.7 7-12.9 10.6-5.1 4.3-11.6 8-6.4 17.2-9.8-1.4-10.4 6-12 11-1.8 5.5-8.3 10-4.8 17.7 4.9-2.5 10.3-3.4 12-9.5 0.8-2.9 2.9-3.6 6.1-3.7 2.7-0.1 5.6-1.9 7.9-3.7 3-2.3 3.9-6.4 0.6-8.4-5-3.1-3.5-7.9-5.8-13.2zm313.4 367.6c4.8 1.7 8 3 11.3 3.9 21.7 6 43.9 4.8 66 3.7 11.5-0.6 22.9-3.5 34.2-5.5 2.7-0.5 6.3-0.3 6.2-4.7-0.6-0.4-1.2-1.2-1.7-1.1-10.7 1.5-22.2 1.2-31.9 5.2-7.1 3-12.3 2.1-18.7 0.5-5.1-1.3-11.2-3.7-15.4-1.9-6.7 2.7-12.8 0.7-17.7-1.2-9.3-3.6-18.4-1.4-27.5-1.9-0.9-0.2-2 1.1-4.8 3zm-218.4-133.8c-3 2.8-4.5 5.1-6.7 6.2-4.1 1.9-3.7 4.7-1.5 7.1 3 3.4 6.7 6.1 10.5 9.4 0.2 1.9 0.1 4.7 1 7.1 1.7 5.1 7.3 7.6 11 4.1 4.2-4 12.2-5.8 10-14.5 2.2 0.3 3.6 0.7 4.8 0.6 4.5-0.3 7.6-3.2 7-6.3-0.6-3.4-4.2-5.3-8.5-3.5-2.8 1.2-4.8 1.4-7.3-0.3-1.1-0.8-3.1-1-4.4-0.7-4 1.1-10-0.4-12.1-3.4-1.4-2-2.5-3.8-3.8-5.8zm352.5-99.8c4.6-5 9.9-5.6 14.2-7.8 4.1-2.1 6.5-7.6 9.8-11.4 3-3.5 6.7-6.4 9.1-10.2 3.6-5.5 6.6-11.4 9.2-17.5 0.9-2.1 0.9-5.5-0.3-7.3-1.7-2.6-4.9-2.6-8-0.8 0.3 3.2 0.6 6.1 0.9 9.2-9.4 5.3-14.7 13.5-16.8 24.9-1.7-2.7-2.6-4.3-3.7-6.1-1.6 0.9-3.3 1.2-3.8 2.2-3.8 6.8-7.4 13.7-11 20.6-0.3 0.7 0.2 1.9 0.4 4.2zm126.9-411.1c4.9 0 8.7-0.5 12.4 0.1 5.1 0.9 6.9 4.1 6.2 9.5-0.4 3.2-1 6.3-1.7 10.1 4.9 1.5 9 2.7 13.2 4 0.4-0.7 0.7-1.4 1.1-2.1-2.3-2.2-4.6-4.3-7-6.6 2.1-0.2 4-0.4 6.4-0.6-0.6-2.7-1-4.7-1.5-7.1 3.5 0.6 6.4 1.7 9.3 1.6 7.1-0.3 11.5 2.1 11.2 9.9 6.8-1 10-3 14.8-9-10.3-2.1-20.2-4.1-30-6.3-2.2-0.5-4.1-2-6.3-2.8-8.8-3-17.6-6.5-27.5-5.7-0.2 2.2-0.4 3.7-0.6 5zm-700.7 197.5c4.2-15.1 7.5-30.6 13-45.2s12.6-28.5 18-44.6c-15.6 12-34.6 64.8-31 89.8zm16.2 21c4.2-28.1 8.3-55.1 12.4-82-2.4 2.7-4.1 5.8-5.1 9.1-2.4 7.6-5 15.1-6.6 22.8-2.6 12.3-4.5 24.8-6.6 37.2-0.9 4.9 0.1 9.3 5.9 12.9zm558.3 406.6c0.5 2.1 0.5 3.4 1.1 3.9 6.3 6 17.5 7.3 25.1 2.7 1.9-1.1 4.1-2.9 4.6-4.8 0.5-1.7-1.2-4.1-1.8-5.9 2.2-2.3 4.2-4.4 6.2-6.6-0.5-0.8-1.1-1.5-1.6-2.3-11 4.3-21.9 8.5-33.6 13zm172.1-175.1c-5.6 6-11.7 11.5-16.6 18.1-2.3 3.1-2 8.1-3 12.2-0.2 0.9-1 1.7-1.3 2.7-2.2 6.1-4.3 12.1-6.9 19.4 11.3-9.1 28.4-39.7 27.8-52.4zm-225 37.4c-11.7 4.7-16.7 15.3-26.5 20.2-5.4 2.8-9 9.4-13.2 14.4-1.3 1.5-1.8 3.6-3.1 6.3 13.3-4.8 33.1-23.7 42.8-40.9zm-95.3-418c-14.4 16.4-14.7 19.3-3.4 29.4 10.8-10.9 12-21.4 3.4-29.4zm41.3 591.2c9.5 8.5 31.1 12.6 61.6 12.4 3.6 0 7.3 0.7 9.7-4.5-12.2-0.6-23.9-1.5-35.6-1.6-12.3 0-24.1-2.4-35.7-6.3zm183.5-692.4c-0.8-0.4-1.6-1.1-2.5-1.2-15.5-1.9-31-4.2-46.5-5.3-5.6-0.4-12.1-0.8-17.2 4.2 11.1-0.1 21.7 5.1 32.9 2.3 1.5-0.4 3.6-0.8 4.8-0.1 9.3 5 18.8 2.8 28.5 0.1zm-787.4 415.5c-0.8 0-1.6 0.1-2.4 0.1 0 4.5-0.2 9.1 0.1 13.6 0.5 7.9 1 15.8 2.2 23.5 0.5 3 2.9 5.7 4.4 8.6 0.9-8.2 0.2-15.7 0.3-23.2 0-8 0.5-15.9-4.6-22.6zm982.6 116.7c3-4 6.9-7.6 8.8-12 2.5-6.1-2.7-9.7-6.6-14.7-1.9 3.1-3.3 5.2-4.7 7.4-4.3 6.6 3.1 12.2 2.5 19.3zm-249.6-71.6c15.5-7.8 18.3-11.5 18.2-22.1-7.9 3.5-14.7 9.4-21 16.8 0.8 1.5 1.7 3.2 2.8 5.3zm-376.3-27.3c0.9 0.1 1.7 0.3 2.6 0.4 0.9-1.7 2.6-3.4 2.7-5.1 0.7-10.1 1.1-20.3 1.5-30.5 0-0.4-1.4-0.9-2.8-1.9-1.3 12.9-5.2 24.7-4 37.1zm224.7-435.5c0.1 1 0.2 1.9 0.3 2.9 12.1-0.3 24.3-0.5 36.4-0.9 1.7-0.1 3.4-1.2 5.1-1.9l-0.3-2.1c-14-1.2-27.8 0.4-41.5 2zm243.8 70.8c0.7 2.7 0.7 5.4 1.7 5.7 7.5 3 15.1 5.7 22.8 8 1.2 0.4 3-1.4 6.3-3-9.2-3.6-16.5-6.5-24-9.3-1.7-0.7-3.7-0.8-6.8-1.4zm-500.8 191.9c-9.3-2-8.7 6.9-13.6 9.1-4.8 2.2-10.2 4.3-10.6 11.6 8.7-5.7 19.5-8.7 24.2-20.7zm154.6-227.9c-0.9 2.3-1.7 3.3-1.4 4 0.9 2.6 1.5 5.8 3.3 7.4 1 0.9 4.5-0.9 6.7-1.9 3.4-1.5 6.6-3.5 10.3-5.4-5.6-4.9-12.7-0.7-18.9-4.1zm402.7 64.7c-0.6-9.6-1.1-10.1-7.8-10.5-4.1-0.2-8.2-0.5-12.7-0.8 4.4 8 12.1 9.5 20.5 11.3zm-337.6 271.1c-3.5 8.1-6.3 14.5-9.3 21.5 9.9-1.6 14.1-10.6 9.3-21.5zm-455 251.7c2.5-11.4-5.3-17.9-11.5-25.1 0.6 9.9 6.5 17.3 11.5 25.1zm100.1 129.4c-1.7 4.2-1.4 7.1 2.5 8.7 4.5 1.9 11.8 0.3 16.3-4.4-6.5-1.5-12.3-2.8-18.8-4.3zm535.2-264c9.8-6.3 16.9-17.4 15.4-24.6-4.6 8.8-12.6 14.4-15.4 24.6zm-352.5-453.5c2.6 7.2 2.6 7.2 12.5 11 0.6-3.1 1.1-6.1 1.7-9.6-5.1-0.4-9.1-0.8-14.2-1.4zm-150.3-29.9c8.6-2.6 14.9-4.4 23.1-6.8-6-1.3-17.5-0.2-20.5 1.6-0.9 0.5-1.1 2-2.6 5.2zm209.6-46.2c11 3.5 19-0.6 27.1-3-8.3 1.4-17.2-3.4-27.1 3zm57.5 667.8c-4.7 3.6-3.6 6.9-0.2 9.9 2.6 2.3 5.7 4.9 8.6 0-2.9-3.4-5.6-6.5-8.4-9.9zm-75.8-580.3c3.9 5.2 6.4 0.8 8.6-1.2 3.5-3.3 3.5-5.7 1-8.9-3 3.1-6 6.2-9.6 10.1zm425.4 531c11-4.5 11.9-6.2 9.1-15.2-3 4.9-5.4 9-9.1 15.2zm-181.3-308.4c-6.1 2.3-10.7 4.1-16.6 6.4 7.8 3.6 12.3 1.8 16.6-6.4zm-132.3 343.3c-2.4-1.8-3.9-3.8-5.1-3.6-1.8 0.3-3.3 2.1-5 3.3 1.2 1.3 2.4 3.7 3.5 3.7 1.9-0.1 3.7-1.7 6.6-3.4zm-615.1-543.3c0.6 0.5 1.1 0.9 1.7 1.4 6.9-3.6 6.9-3.6 6.1-12.7-2.9 4.2-5.4 7.8-7.8 11.3zm993.9-5c-3.1-0.8-5.8-1.5-8.6-2.2-1.1 4 0 6.6 3.4 7.5 2.9 0.8 5.1-0.6 5.2-5.3zm-285.9 246.5c6.2 2 10.1-0.3 14.6-4.3-6.3-1.7-10.5-0.6-14.6 4.3zm80.8 358.7c3.1 2.5 6 4 9.3 0.4-4-6.2-4-6.2-9.3-0.4zm-355.8-183.3c-8.5 4.7-8.5 4.7-4.1 10.5 1.6-3.9 2.8-7.2 4.1-10.5zm-290.4 52.4c0.2 4.8-0.6 10 3.8 13.8 0.7-5-1.1-9.5-3.8-13.8zm651.9-235.1c-0.1 0.7-0.2 1.5-0.2 2.2 5.7 3.3 5.7 3.3 9.6-1.3-3.4-0.4-6.4-0.7-9.4-0.9zm-816-77.4c-2.4 7.9-2.4 7.9 2.9 12.8-0.5-4.6 0.3-8.8-2.9-12.8zm464.4 247.5c1.2 0.2 2.3 0.5 3.5 0.7 1.1-3 3.4-5.8-0.8-11.7-1.3 4.9-2 8-2.7 11zm-268.8 97.9c0.8 0.1 1.5 0.1 2.3 0.2 2.5-5.2 2.5-5.2-1.7-10-0.3 4-0.4 6.9-0.6 9.8zm13.9 125.6c-1.5 1.8-3.4 3.2-3.1 3.9 0.5 1.6 2 2.9 3.1 4.3 1.1-0.9 3.1-2 3-2.8-0.3-1.6-1.7-3-3-5.4zm674.3-325.7c-0.9-0.4-1.7-0.8-2.6-1.1-1.3 3.2-2.7 6.4-4 9.7 0.7 0.3 1.3 0.5 2 0.8 1.5-3.2 3-6.3 4.6-9.4zm-146-397.9c0.2-0.8 0.3-1.7 0.5-2.5-2-2.1-4.1-4.2-7.5-1.2-0.5 0.4-0.2 1.7-0.3 3.2 2.7 0.2 5 0.4 7.3 0.5zm55.9 186.4c-5.5-5.1-5.5-5.1-8.9 0h8.9zm-688.2 250.1c0.8-0.5 1.6-1.1 2.5-1.6-1.5-2.4-0.6-6.5-7.5-6.9 2 3.5 3.5 6 5 8.5zm706.5-440c-2.3-5.4-2.3-5.4-7.7-4.2 3.1 1.7 5.4 3 7.7 4.2zm-153 619.2c-1.7-1.3-2.7-2-3.6-2.8-0.8 1.3-1.8 2.5-2.4 3.8-0.1 0.3 1.4 1.8 1.8 1.6 1.2-0.4 2.3-1.3 4.2-2.6zm398.8-223.3c-0.5-0.7-1-1.5-1.6-2.2-1.7 1.2-3.3 2.4-5 3.5 0.3 0.6 0.7 1.1 1 1.7 1.9-1 3.8-2 5.6-3zm-199.1-46.2c0.9-0.1 1.9-0.2 2.8-0.3-0.3-1.6-0.6-3.2-1.1-4.7 0-0.1-1.7 0.1-1.7 0.2v4.8zm-567.1-287.3c0 0.8 0 1.6-0.1 2.4 1.1 0.2 2.4 0.8 3.4 0.5 1.2-0.4 2.2-1.5 3.3-2.3-0.2-0.4-0.4-0.8-0.6-1.3-1.9 0.3-3.9 0.5-6 0.7zm190.7 398.9c0.7-0.1 1.4-0.3 2.1-0.4-0.3-1.8-0.7-3.5-1-5.3-0.7 0.1-1.4 0.3-2.1 0.4 0.3 1.8 0.7 3.5 1 5.3zm239.1-246.9c-1.5-1.6-2.2-3.1-3.1-3.1-0.9-0.1-2.5 1.2-2.6 2-0.1 0.9 1 2.3 2 2.7 0.7 0.3 1.9-0.8 3.7-1.6zm-232 46.4c-0.9-0.6-1.6-1.5-2.1-1.4-0.8 0.2-1.4 1.1-2.1 1.7 0.6 0.6 1.2 1.7 1.8 1.7 0.7-0.1 1.4-1.1 2.4-2zm-102.3 413.3c-0.6-1.1-0.8-2.1-1.4-2.4-0.7-0.3-1.7 0-2.5 0 0.3 1 0.4 2.1 1 2.8 0.2 0.4 1.5-0.1 2.9-0.4zm413.9 82.3c0.9-1.3 1.9-2 1.8-2.5-0.2-0.7-1.1-1.6-1.8-1.8-0.7-0.1-1.5 0.7-2.3 1.1 0.7 0.9 1.3 1.8 2.3 3.2zm226.8-322c-1.3-0.7-2.1-1.5-2.6-1.4-0.7 0.2-1.6 1.1-1.7 1.8-0.1 0.6 0.9 1.3 1.3 2 0.9-0.6 1.7-1.3 3-2.4zm-156.8-81.2c-1.1 0.5-1.6 0.7-2.2 1 0.6 0.9 1.2 1.9 1.9 2.7 0.1 0.2 1-0.3 1.5-0.5-0.3-1.1-0.7-2.2-1.2-3.2zm-247.8 251.2c0.6 0.5 1.2 1 1.7 1.5 1.2-1.6 2.3-3.2 3.5-4.8-0.5-0.4-1-0.8-1.5-1.1-1.2 1.5-2.4 2.9-3.7 4.4z" fill="inherit"/>
		<path d="m1157.3 1054c-0.8-1.3-2.6-3.2-2.3-3.9 3.9-7.2 1.4-14.5-0.2-21.4-2.5-11.2-2.2-21.7 0.9-32.8 1.5-5.3 0.1-11.9-1.7-17.3-1.4-4.3-2.1-8-1-12.4 1.4-5.8 2.1-11.7 2.8-17.6 1.5-12.2 2.8-24.4 4.3-36.6 1.4-10.9 3-21.8 4.5-32.6 0.6-3.9 2-6.9 4.5-10.4 3.9-5.4 5.7-12.6 7.4-19.2 3.5-13.8 6.6-27.7 14.5-41.2 0.9 2.2 2 3.7 2.1 5.2 0.1 1.6-0.9 3.2-1.2 4.8-2.1 10-4.1 20-6.2 29.9 0.8 0.4 1.5 0.8 2.3 1.2 4.3-5.7 8.6-11.4 12.9-17 0.5 0.3 0.9 0.6 1.4 0.8-1.3 2.5-2.3 5.3-4 7.5-7.4 9.5-11 20.5-13.2 32-1.8 9.8-3.6 19.6-4.5 29.5-0.8 8.6-0.2 17.2-0.2 25.9 0 13 0 25.9 0.1 38.9 0 1.7 0.7 3.4 2.8 5.2 0.5-1.7 1.3-3.4 1.4-5.1 1.5-17.2 2.4-34.5 4.3-51.7 1.4-12.5 3.9-24.9 6.5-37.2 1.1-5.2 2.8-9.7 7.6-14 5.5-5 7.6-13.7 11.7-22 1.1 2.3 2.8 4.1 2.7 5.7-0.4 4.6-1.8 9.1-2.4 13.7-1.6 11.1-2.9 22.3-4.6 33.4-0.9 5.8-2.6 11.6-3.6 17.4-0.8 4.3-1 8.7-0.5 13.2 6.6-4.8 1.2-13.5 6.6-18.6 3.3 4.5 4.1 9 1.5 14-2.3 4.4-2 8.9 1.1 14.3 1.8-2.1 3.3-3.6 4.5-5.2 3.5-4.7 6.1-10.5 10.5-14.1 7.7-6.3 16.3-11.3 24.7-16.8 5.8-3.8 11.9-7.3 17.7-11 6.1-3.9 12.6-5.7 19.9-5.1 1.8 0.1 3.7-0.7 7.2-1.5-3.2-2.4-5.1-3.8-7.4-5.6 4.3-1.9 8.3-3.8 12.4-5.5 3.1-1.3 9 3.3 9.4-4.9-6 0.3-11.5 1.3-17 0.7-10.4-1-19.3 1.9-27.5 8-1.7 1.3-4.3 1.3-8.4 2.4 8-9.1 17-13 26.4-15.2 12.3-2.9 24.8-4.5 38.2-6.9-1.2-1.7-2.2-3.8-2.8-3.8-5.5 0.6-11 1.9-16.6 2.4-6.1 0.5-12.4 1.2-18.3-0.1-6.7-1.5-6.5-2.4-8.1 4.3-0.2 0.9-0.7 1.8-0.9 2.5-5.8 2.5-11.4 4.8-17.3 7.3 0-2-0.2-3 0-3.2 9.7-6 16.6-15.8 28.1-19.2 23.2-6.9 47.1-8.4 71.1-8.5 26.6-0.1 53.2-0.4 79.7 0.3 14.8 0.4 29.5 3 44.3 4.1 9.6 0.7 19.2 0.1 28.8 0.6 3.7 0.2 8.1 1 10.9 3.2 3.7 2.8 6.4 3.3 10.8 1.8 3.5-1.2 7.9-1 11.7-0.4 21.7 3.5 43.3 7.2 63.7 16 5.7 2.5 12.1 3.4 17.9 5.7 12 4.8 23.8 10 35.6 15.3 9.7 4.3 19.3 8.7 28.7 13.5 12 6.1 24.4 11.7 35.6 19.2 10.9 7.4 20.8 16.4 30.5 25.4 13.8 12.7 29.6 22.4 45.5 31.9 7.6 4.6 15.5 8.2 21.5 15.5 4.9 5.9 12.8 9.3 19.3 13.9 7 4.9 13.8 10 20.8 14.8 6.7 4.6 13.6 8.9 20.4 13.3 8.2 5.2 15.7 10.9 21.8 18.7 4.1 5.1 9.2 9.5 13.9 14.1 6.6 6.6 9.2 14.2 7.6 23.6-1.1 6.4-1.7 12.7-0.5 19.6 1.3 7.6-0.9 16-9.2 20.5-3.5 1.9-6.7 4.3-10 6.4-7.1 4.6-8.1 9.1-6.4 17.6 1.5 7.6 1.3 15.6 1 23.5-0.3-7.9 1.1-16.1-5.6-23.1-6.8 4.7-13.7 8.5-22 7.7-2.3-0.2-5.1 0-6.7-1.2-6.3-5-12.3-3.4-18.8-0.3v7.3c-2.5-1.5-4.3-2.6-6.7-4-2.5 7 5.5 11 3.5 17.5-4.3 1.1-9.7 0.7-11.7 6.5-0.3 0.9-2.7 2-3.3 1.7-7.4-4.1-8.4 2.4-11.8 6.2-3.2 3.7-5.8 9.6-13 7.2v-6.4c-3.3 1.2-6.1 2.2-9.5 3.4 1.3 3.2 2.2 5.5 3.2 8-5.6 2.7-11.2-3.5-16.5 1.5-3.8 3.7-9.5-1.6-14.4 2.3-4.2 3.3-10.2 4.3-16.1 6.6-0.9-2.4-1.8-4.7-2.7-7.1-8.9 2.4-17.1 9.4-26.5 1.8-3.6 2.6-7.5 4.6-10.5 7.7-4.6 4.8-8.9 7.9-16.3 6.4-2.9-0.6-7 3.1-10.2 5.4-5.1 3.6-9.9 7.6-15.6 12-1.4-2.7-2.4-4.5-3.5-6.7-4.6-0.2-5.6 3.3-5.5 6.5 0.2 4.7-2.9 5.6-5.9 7.9-8.8 6.8-20.4 9.6-27 19.6-1.5 2.2-4.6 3.3-6.9 4.9-1.3 0.9-2.9 1.7-3.9 2.9-4.9 6.4-10.7 11.5-17 16.6-15.4 12.4-29.7 26.2-44.5 39.3-0.8 0.7-2.6 0.3-3.9 0.5l0.2 0.3c1.4-2.3 2.7-4.7 4.1-7l-2.1-1.8c-5 5.6-12 8.9-15.4 16.3-0.3 0.6 0.8 1.7 1.2 2.6l-0.3-0.2c-2.6 6.2-8.7 7.3-14.1 9.3-4.6 1.7-7 4.5-5.9 10.1-4.3 1-8.3 1.9-14.1 3.3 3-3.8 4.9-6.3 6.9-8.7l-0.6-1.2c-2 0.9-4 1.8-7.1 3.2-0.6-2.8-1.5-5.2-1.6-7.5-0.1-7.3-1.5-9.4-8.2-10.9-4.8-1-10-1.1-11.6-7.8 1.6-0.5 3.1-1 4.6-1.5 0-0.6 0.3-1.4 0-1.8-1.7-2.4-3.3-5.4-7.1-4.1-1.5 0.5-2.9 1.7-3.9 2.9-3 3.8-5.8 7.9-8.9 12-2.4-0.8-4.5-1.5-7.1-2.3-0.4-2.8-0.8-5.9-1.3-9.7-5.3 1.4-10.2 2.9-12.1 7.8-2.2 5.7-6.7 6.6-11.8 6.9 3.3-5 6.6-9.9 10.6-15.9-14.4-0.3-18.6 11.5-26.3 17.4-3.2-1.5-6-2.8-9.2-4.3v24.1c1.8-1.4 3.5-2.5 5.1-3.9 6.7-5.9 13.4-11.8 20.2-17.6-2 2.9-3.7 6.1-6.1 8.7-4 4.4-8.9 8.1-12.6 12.7-2.6 3.2-4.7 7.2-5.6 11.2-1.5 6.7-5.6 10.2-11.6 12.5-6.9 2.7-13.6 5.7-21.3 9-4.2-1-9.3-2.2-14.5-3.5-4.4-1.1-8.4-2.8-12.9 1.1-3.1 2.7-7 0.8-9.1-2.9-2.6-4.5-5.5-8.3-11.9-7.8-0.7 2.6-0.5 6.1-2.2 7.7-1.3 1.3-4.8 0.4-7.3 0.5-3.7 0.2-5.9 2.1-7.1 5.8-0.9 2.5-2.9 4.6-4.9 7.6-2.8-4.5-4.7-7.6-7.1-11.6-4 6.1 3.2 9.2 1.2 15-12-10.9-23.5-21.5-35-32 1.3 8.9 11.4 13.1 9.7 22.9-4.8 5.5-11 2.5-16.8 3-5.5-11.2-14.3-14.8-26.4-10.3-2.2-7.9-5.1-14.4-12.2-19.2-5 12 8.8 17.1 7.6 27.5-2.3-3.1-4.7-6.2-8.1-10.6-0.8 2.4-1.3 3.9-1.8 5.5h0.1c-4.2-0.5-8.4-1-13.3-1.6 0.3-1.4 0.7-3.4 1.3-6.2-2.3-0.7-4.6-1.4-7.7-2.4-0.4 3.1-0.8 5.6-1.1 7.8-3.8 0.9-7.5 1.7-12.2 2.8-5.9-3-11.8-8.4-19.5-10.8-2.1-0.7-4.2-2-5.8-3.6-11-11.1-19.6-24-26.9-37.9-3.3-6.3-8.4-11.6-12.7-17.3-0.7-1-1.6-2.2-1.7-3.4-0.6-5.9-4.8-8.5-9.7-11-0.3-5.4-0.5-10.7-6.3-14.4-4.7-3.1-4.9-9.4-2.2-15.5 1.2-2.7 2.8-5.3 4-8 1.6-3.4 1.4-6.9-2.2-8.6-6.6-3.2-7.5-9.8-7.4-15.3 0.2-11.3-3-21.7-5.6-32.2-6.1-23.9-9.1-48.3-12.6-72.6-1.8-12.4-1.6-25-5.5-37.3-2.6-8.3-1.8-17.7-2.4-26.6-1.2-16.5-2.3-33-3.4-49.5-0.1-1.6-0.1-3.3 0.1-4.9 1.4-18.2 2.5-36.4 4.2-54.5 1.7-18.5 2.4-37.3 6.4-55.4 3.3-15.4 5.2-31.4 13-45.8 2.3-4.2 2.5-10.7 1.2-15.5-1.6-6 0.2-10.2 4.1-16.6 0.5 10.7 7.8 18.3 4.6 28.1-2.9 8.7 1.3 16.6 2.9 27.1 6.8-10.4 5.7-20.5 8.1-29.6 2.5-9.3 4.6-18.7 6.1-28.3 1.5-9.8 1.7-19.8 3.2-29.6 1.4-9.3 3.7-18.4 6.2-27.6 0 30.4 9.7 60.1 4.5 90.8 5.6-4 4.5-9.5 5.7-14.7 2 6.3 2.4 12.8 0.4 19.2-3.9 12.5-4.4 25.3-4 39 4.3-2.7 3.1-6.4 3.5-9.4 0.9-7.4 0.6-15 6.9-20.6 1.6-1.4 2.6-3.9 3.1-6.1 3.4-13.5 6.6-27 9.9-40.4 0.2-0.9 0.9-1.7 2.4-4.3-1.3 10.3-2 18.8-3.5 27.2-2.3 12.7-6 25.2-7.6 38-3.6 27.6-7.6 55.1-6.6 83.2 0.6 17.8 3.5 35.3 3.7 53.1 0.1 7.3 2 14.6 3.2 22.3 1.5-1.1 2.9-2.2 4.2-3.2-1.1 5.8-4.5 11.6-0.2 18.9 5.5-7.4 4.5-13.2 0.2-18.9zm292.5-17.3c-5.2-2-10.8-3.2-15.4-6.2-13.1-8.6-25.6-18-38.4-26.9-10.4-7.2-20.7-14.3-33.3-17.4-17.5-4.3-34.8-8.6-53.1-7-7 0.6-12.2 3.1-17.1 8.6-14.7 16.6-16.8 36.9-17.6 57.4-0.6 15.2 0.3 30.5 1.5 45.7 1 12.9 3.1 25.7 5.1 38.4 1.3 8.5 4.6 16.5 6.9 24.7 2.5 8.9 4.8 17.7 8.1 26.3 1.4 3.7 1.6 7.6 5.7 9.8 1.2 0.6 1.4 2.8 2.2 4.2 5.2 9.1 10.4 18.2 15.9 27.8 3.4-2.8 5.7-4.6 8-6.4l-0.2-0.3c0.1 1.2 0.1 2.4 0.2 4 4.7-3.3 9.4-5.7 12.8-9.3 5.3-5.5 9.7-11.7 15.2-17.2 8.1-8 14.6-17.6 21.5-26.8 8.5-11.4 17.5-22.1 30-29.3 1.8-1.1 3.2-3.2 4.4-5.1 2-3.4 4.1-6.8 5.4-10.5 3.9-10.5 11.3-16.7 22-19.3 1.5-8.9 6.4-16 12.3-22 4.5-4.6 6.9-9.2 7.1-15.4 0.1-2.3 0.4-4.7 1.2-6.8 1.2-3.1 1.3-5.5-1-8.2-3.5-4.2-6.5-8.8-9.7-13.1 2.5 0.7 5 2 7.5 2 3.6 0 5.4-5 2.8-7.4-2.1-1.9-4.9-3.5-7.6-4.3-1.8-0.5-4.1 0.9-6.4 1.5 1.6 3.3 2.8 5.9 4 8.5zm-71 141.4c-5.8 8.8-10.1 17.3-16.3 24-4.1 4.4-1.4 6.6 0.6 10.2 1.4-3 2.8-6 4.1-9 6.6 2.2 7.3 2.3 10.8-1.5 2.4-2.7 3.9-6.3 6.5-8.8 17.2-16.2 29.7-36 43.1-55.2 2.1-3 4-6.1 5.6-9.4 0.7-1.4 0.3-3.3 0.6-7.1-3.1 3-4.7 4.4-6.2 6-11.1 12.1-17.8 28-31.9 37.5-1.5 1-2.2 3.2-3.2 4.9-2.6 4.5-5.1 9.1-8.1 14.3-2.2-2.1-3.8-3.9-5.6-5.9zm-21.1 36.7c-8.1 9.8-15.4 18.7-23.2 28.2 2.2 2.4 4.3 4.6 6.4 6.8 12.1-11.5 18.9-25.3 16.8-35zm-235.5-207.9c-5.7 9.2-0.4 48.8 8.3 62.5-0.3-5.1-1.1-10-2.1-15-0.8-4.5-3.1-9.3-2.3-13.6 1.7-9.8-0.8-19.1-1.7-28.5-0.2-1.7-1.3-3.2-2.2-5.4zm126.6 28c8.2-5.1 9.8-10.7 4.7-22.1-0.9 8.9-7.3 14.1-4.7 22.1zm-5.4-29.1c-2.2 4.2-3.4 6.6-5.6 10.9 6.4-3.7 6.4-3.7 5.6-10.9zm598.4 164.2l-1.5 2.1c1.4 0.9 2.8 1.8 4.2 2.5 0 0 1-1.3 0.9-1.4-1.1-1.2-2.4-2.2-3.6-3.2z" fill="inherit"/>
		<path d="m1618.9 669.9c3.2-2.1 6.8-3.8 9.6-6.4 10.8-10.1 22.7-19.3 31.7-31.6-8.1-1.8-8.1-1.8-18.6 5.9-6.1-4.9-6.1-4.8-11.3-0.4-7.4 6.2-14.7 12.5-22.5 18.2-4.7 3.4-10.4 5.6-15.6 8.3-3.5 1.9-7.6 3.3-10.2 6-4.3 4.5-7.2 10.5-14.6 10.3-2.2 6.4-8.8 5.4-13.3 7.9-1.5 0.8-3.4 1.4-4.1 2.7-5 9-14.9 9.7-22.8 13.5-8.4 4.1-16.8 8.1-25.4 11.5-11.7 4.6-24.4 5-36.7 7-11.7 1.9-23.5 3.9-35.2 5.9-3.8 0.7-7.7 2.2-11.9-1.7 2.1-1.3 3.9-2.4 5.7-3.3 4.4-2.1 8.8-4.2 13.4-6.1 3-1.2 6.2-2.1 9.3-3.1 7.6-2.4 15.1-4.9 22.7-7.1 7-2.1 14.1-3.6 21.1-5.8 2.6-0.8 4.8-2.7 7.7-4.4-5.1-5.7-10.1-0.2-16.9-2 29.9-9.2 53.3-25 74.8-43.8 1.9-1.6 2.9-4.2 4.9-7-2.9-2.1-5.2-3.7-7.4-5.2-7.7 7.9-14.9 15.2-22.5 23-5.3-4.6-9.1-1.7-13.5 1-13.1 7.9-26.3 15.4-41.1 20-4.3 1.3-8.3 4-12.3 6.4-7.6 4.6-15.8 8.6-22.4 14.5-9.1 8.2-20.7 9.4-30.8 14.3-10.4 5-20.7 7.6-31.7 9.8-7 1.4-13.6 5.1-20.4 7.5-2.2 0.8-4.6 0.9-8.9 1.6 4.9-6.6 14.8-4.2 14.1-12.6 12.9-4.4 25.7-8.1 37.9-13.3 4.3-1.8 9.5-4.9 11-10.8-4.2-4-9.1-1.6-12.2 0-8 4.1-13.8 1.7-19.6-3.7-1.2-1.1-2.7-1.9-4.1-2.8 5.8-4.5 14.8-3.9 20.3-11.6-11.8-2.5-20.2 5.7-29.5 4.7-10.1-1.1-16.7 8.4-26.7 6.4-0.1-0.9-0.1-2.3-0.3-4.4h-19.3c7.2-10.9 20.7-8.3 27-17.4-6.4-1.6-10.6-1-22.4 3.8-0.8-1.4-2-3.4-3-5.1-3.4 0.9-6.1 1.6-8.8 2.3-0.2-0.5-0.5-1-0.7-1.5l5.1-3.3c7.4-4.7 7.6-5.7 2.5-14.7-15.8 5.1-31.7 10.2-49.3 15.8 8.6-6.7 19.3-9.1 20.4-21.1-3.7-1.5-6.8 1.1-10 3-2 1.2-4.3 4-5.7 3.6-7.8-2.2-12.3 3.3-17.9 6.4-3.9 2.2-8.2 2.2-12.9-0.4 7.8-4.7 15-9.1 22.2-13.4-0.3-0.7-0.6-1.4-0.9-2.1-4.3 0.9-8.6 1.8-13.4 2.7v-6.8c-9.6 4.7-17.2 0.1-24.6-4.9-2.6 1.2-4.9 2.3-8.2 3.9-2.1-2.2-4.2-4.5-7.1-7.5 8.4-5.2 15.9-10 23.4-14.6 11-6.7 22-13.5 33.3-19.8 11.8-6.6 23.9-12.6 35.9-18.9 1.8-0.9 3.8-1.8 5-3.2 7.9-9.4 13.5-20.2 17.6-32.2-2.3 1.9-4.7 3.8-7 5.7-0.4-0.3-0.8-0.6-1.3-0.8 2.2-4.3 4.5-8.5 6.7-12.8 1.2-2.4 2.7-4.7 3.4-7.2 1.6-5.8 0.5-7.3-6.7-9.7 1.1-5.4-0.9-9.2-6.6-11.1-2.7-0.9-5-3.2-7.4-5-7.3-5.7-15.3-10.1-23.5-14.6-14-7.8-28.5-15-40.5-26.5-6.5-6.3-13-13.1-20.9-18.4-10.7-7.3-20.6-16.3-29.4-25.9-8.7-9.6-13.6-21.8-17.3-34.3-3.2-10.8-7-21.4-10.9-31.9-2.8-7.7-5.1-14.6 1.6-22.1 3.7-4.1 5.3-10.5 6.7-16.1 3.3-13.4-3.6-24.7-10-35.1-6.7-11-12.1-22.7-18.5-33.8-3.2-5.5-3.1-10.4 0.9-16.5 8.6-13.2 16.9-26.5 27.3-38.4 1.4-1.6 2.2-3.9 3-6 2.6-7.3 5.9-14.1 13.3-18.7 3.8 3.4 7.4 7 13.6 4.1 4.9-2.3 5.3-1.5 8.7-8.2-5.3-7.8-11.2 2.7-16.8-0.1 7.7-9.1 6.1-17.2 0.4-30.2-5.8 0.9-11.9 2-18 2.8-3.9 0.5-8.4 1.7-11.8 0.4-6.7-2.5-12.9-2.3-19.5-0.1-1.1 0.4-2.4-0.2-4.4-2 2.6-1.7 4.9-4 7.7-4.9 6.6-2.3 13.3-4.1 20-5.7 4.2-1 7.3-2.4 8.2-7.3 0.4-2 2.7-3.6 4.1-5.4 0.7 0.4 1.3 0.8 2 1.3-0.8 2.5-1.6 5.1-2.5 8.2h13.5c1.7-2.5 2.7-5.6 4.8-7 7.4-4.7 8.3-7 4.3-15-0.6-1.1-1-2.3-1.7-3.9 2.2-1.3 4.1-2.4 6.6-3.9-1.5-2.3-2.8-4.4-4.2-6.6 0-0.2-0.2-0.7-0.1-0.8 6.2-5.5 1.7-14.2 5.9-20.6 7.3 1.2 12.9 9.7 21.1 3.1 1.9 9 6.4 16.1 3.4 24.4-0.5 1.4 0.8 4.8 1.9 5.2 6.3 2.3 7.5 8.8 11.8 13.2 2.7-1.7 5.3-3.4 8.1-5.1 5.4 7.2 2.1 17.3 9.8 23.1 1.6-1.9 2.8-4.6 4.7-5.3 2.2-0.8 5 0.3 8.8 0.7-0.7 3.1-1 5.6-1.8 7.9-1.3 3.8-3.1 7.3-4.4 11.1-2.1 6.6-2 6.6 2.2 14 7 1.1 11.2-3.2 16.2-8.1 1.3 5.8 2.7 12 4.1 18.1 0.9 4.2 2.4 7.7 7.5 7.7 5.3-0.1 4.5 4.8 5.9 7.7 17.3-5.3 27.2-4.1 33.6 4.1-4.6 3.1-5.9-3.2-9.9-3-0.6 1.1-1.3 2.4-2.2 4-1.9-0.9-3.8-1.8-6.7-3.3 0.5 8.1 2.4 14.4 8.7 19.8-2.1 0.9-4.1 1.2-5.3 2.3-1.5 1.4-3.6 3.8-3.2 5.1 2.2 6.6 4.5 13.3 7.9 19.3 2.4 4.2 6.6 7.3 10.6 11.5-3.6 0.7-6.8 1.3-10 1.9 2.6 18 9.8 24.6 27.2 29.9 10.9 3.3 20.9 9.4 31.2 14.3 8.4 4 16.4 8.9 25.2 11.8 13.4 4.4 24.8 12.6 37.2 18.7 5.9 2.9 11.3 6.8 17.2 9.9 17 9 34.1 17.9 51.3 26.5 3.4 1.7 7.7 2.3 11.5 2.2 8.6-0.3 15.8 1.4 20.6 9.3 1.3 2.2 3.6 4.1 5.9 5.3 9.7 5.1 19.3 10.6 29.4 14.6 7.7 3 16.1 4.6 24.2-0.2 3.1 5.9 6.7 8.4 13.1 7.4 5-0.8 10.3 0.7 17 1.3 2.5-3.3 5.7-7.8 9.4-12.7 7.9 5.1 13.3 11.6 18.2 18.6 1.9 2.7 2.7 6.5 7.4 3.7 0.3-0.2 3.3 2.8 3.8 4.6 1.3 4.4 1.9 9.1 3 13.6 0.8 3.5 1.2 7.6 6.6 6.8 3.9 6.6 12.1 7.2 17.3 12.1 3.1 3 6.9 5.2 10.7 7.3 1.7 1 4.1 0.8 7 1.3-1.5-9.4-12.2-10.6-13.7-19.2 1.6-0.1 3.8-0.9 4.5-0.2 5.3 5.1 13.9 6 17 13.9 0.8 2.1 2.2 4.5 4 5.4 3.1 1.5 8 3.7 9.9 2.3 2.6-1.7 4.3-6.7 4-10.1-0.4-5.1 0.4-8.3 5.8-10.8 1.7 5.7 4.5 10.1 10.3 12.2 2.1 0.8 4.2 3.8 4.7 6.1 2.8 13.4 0.8 26.1-5.8 38.4-1.2-11.3-2.3-22.1-3.6-32.9-0.1-0.9-1.9-1.6-3.4-2.8-8.6 13.3-2.4 27.7-5.2 41.4 12.1 3.2 8.9 13.5 9.3 20.8 0.4 7.4 2.5 13.2 5.8 19.3 1.4 2.6 3.2 5.4 3.2 8.2 0.1 13.2 1.5 26.7-4.1 39.3-3 6.7-4.7 14.6-13.7 16.7-1.1 0.2-2 1.7-2.7 2.7-3.7 5.1-8.5 4.3-13.4 2.6-4-1.4-7.9-3.3-12.6-5.3-17.1 15.8-34.2 31.6-51.7 47.8-6.2-4.5-12-1.3-17 2.2-9.4 6.6-18.2 14-27.3 21-2.1 1.6-4.4 3.1-6.3 4.9-3.2 2.3-6 1.7-8.8 0.6zm-385.7-495.5c-3.9 1.6-7.3 2.1-7.5 3.2-1 5.8-5.7 6.5-9.7 8.7-3.1 1.7-6.5 3.9-8.4 6.8-4.8 7.4-9.4 15.1-13 23.2-2.9 6.6-4.7 13.8-6 20.9-1.1 6.2 2.9 8.9 8.4 6.1 4.3-2.2 8.7-4.6 12.6-7.6 7.3-5.6 14.7-10.9 23.6-13.8 2.5-0.8 4.8-3.5 6.2-5.9 4.2-7 3.5-14.9 3.9-23-3.5 1.1-6.1 2-10.1 3.2v-21.8zm116.2 490.7c0.8 0.8 1.5 1.6 2.3 2.4 6.8-3 13.8-5.8 20.5-9 3.8-1.9 7.7-4.1 10.6-7.1 1.4-1.4 0.7-4.9 0.9-7.5l0.3-2.4c-5.6-0.5-10.8-1-15.9-1.5-6.4 8.5-12.5 16.8-18.7 25.1zm83.8-5.5c-12.9 2.7-25.2 5.8-37.6 7.8-7.4 1.2-10.5 7-16.8 11.5 24.1-2.7 48.6-11.4 54.4-19.3zm-173-463.5c5.3 0 7.4-3 8.6-6.6 1.7-4.9 3.2-9.9 4.2-15 0.2-1-2.2-3.1-3.8-3.7-0.8-0.3-2.9 1.3-3.6 2.6-4.4 6.9-3.7 15-5.4 22.7zm143.4 462.8c0.5 0.8 1 1.5 1.4 2.3 8.9-1.5 17.4-4.1 23.3-12.2-7.6-2.5-12.2 5.9-19.5 5-1.5-0.2-3.5 3.2-5.2 4.9zm-102.1-461.8c2.3-1.3 4.6-2.3 6.4-3.9s4.4-4.3 4-5.7c-0.7-2.1-3.7-3.5-6.3-5.7-2.8 5.7-7.9 8.8-4.1 15.3zm4.8 47.2c-2.4 3.4-4 6.7-2.3 11.4 6.7-6.5 6.7-6.5 2.3-11.4zm92.1 420.2c0.5-1.1 0.9-2.3 1.4-3.4-2.1-0.8-4.2-1.7-6.3-2.5-0.4 1.1-1.3 3.1-1.2 3.2 2 1 4.1 1.8 6.1 2.7zm-102.2-455.5c0.9-0.1 1.9-0.2 2.8-0.3-0.4-2.3-0.7-4.5-1.1-6.8-0.6 0-1.2 0.1-1.8 0.1 0.1 2.4 0.1 4.7 0.1 7z" fill="inherit"/>
		<path d="m1324.8 1480c4.7-5.2 10.9-6.2 17.2-6.4 15.5-0.4 31-0.4 46.5-0.9 7.5-0.3 15.1-1.7 22.6-1.9 10.2-0.3 20.7 1.6 30.6-0.1 12.7-2.2 25.7 1 38.4-3.7 6.7-2.5 15-0.6 22.6-1.1 10.5-0.7 21-1.8 31.5-2.6 5.7-0.5 11.4-0.9 13.9-7.4 6.9 5.5 6.9 5.5 13.4 1 4.8-3.3 5.6-3 12.8 5.4-4.3 0.9-8 2-11.7 2.4-28.1 2.9-56.2 6.1-84.4 8.2-27.8 2.1-55.7 2.9-83.6 4.3-9.5 0.5-19 0.7-28.5 1-0.7 0-1.3 0.1-1.9 0.2-10.8 3-24.8 3.5-39.4 1.6z" fill="inherit"/>
		<path d="m27.7 1829.7c-1.7-2.3-3.3-4.7-5.4-7.6 4.1-9 9.2-20 14.6-31.9 10.7 1.5 16.8-11.3 28-10.4 2.4 3.5 1.4 6.1-0.9 8.4-1.6 1.6-3.3 3.2-5 4.8-7.9 7.8-16.2 15.4-23.7 23.6-3.2 3.8-5.1 8.9-7.6 13.1z" fill="inherit"/>
		<path d="m273 1486.5c5.5 9.5 5.2 14.3-0.6 18.7-2.5 1.9-4.1 3.5-5 6.8-1.4 5.3-3.9 10.3-6.1 15.7-4.3-0.9-7.4-1.6-11.2-2.4-4.2 6.9-7.7 14.1-12.4 20.4-4.3 5.9-5.4 14.4-14.7 18.4 0.6-2.9 0.6-4.8 1.4-6.1 8.7-14 17.2-28.2 26.6-41.8 3.4-5 9.9-7.9 13.6-12.7 3.4-4.5 5.1-10.3 8.4-17z" fill="inherit"/>
		<path d="m910.8 1518.3c0.6-2.4 0.6-5.2 1.9-7.1 4.5-6.7 9.4-13.1 14.2-19.5 3.1-4.2 6.2-8.5 9.5-12.5 2.4-2.9 5.5-5.3 7.9-8.3 2.3-3 4.5-6.3 5.9-9.8 1.5-4 3.7-6.6 8.3-7.6 0.2 1.4 0.8 2.6 0.5 3.2-6.1 8.3-9.9 18.1-17.6 25.5-5.8 5.6-10.2 12.7-16.8 17.7-1.2 0.9-2.2 2.8-2.1 4.2 0.5 8.1-6.5 10.2-9.6 15.5-0.7-0.6-1.4-0.9-2.1-1.3z" fill="inherit"/>
		<path d="m234.2 1647.4c3.2-8.3 6.4-16.7 10.2-26.6 4.9 9.6-6.7 16.3-0.5 23.9-2.3 7.1-4.7 14.2-7.1 21.6-2.9 0.4-6 0.9-9.8 1.4-0.9-8.2 3-14.4 7.4-20.4v6.8c4.5-3.4 6.2-6.1-0.2-6.7z" fill="inherit"/>
		<path d="m185.1 1640.3c0.4 9.4-5.4 15.3-7.6 22.2s-7.3 12.8-10.9 18.8c1.5-10 11.7-33.5 18.5-41z" fill="inherit"/>
		<path d="m1624.4 368.2c1.3-11.1 5.9-20.6 10.7-30.5 0.2 2.3 1.2 5.1 0.3 6.9-3.9 7.6 0.6 18.8-11 23.6z" fill="inherit"/>
		<path d="m85.3 1957.6c3.5-7.9 6.8-15.6 10.4-23 0.8-1.6 2.9-2.5 4.7-4 2.6 3.2 1.3 5.9 0.1 8.5-2.8 6-11.3 16.6-15.2 18.5z" fill="inherit"/>
		<path d="m999.7 1209.9c4-9.1 7.4-16.9 10.8-24.8 0.4 0.2 0.8 0.4 1.2 0.5-1.7 9.1-3.4 18.2-5.2 28.2-2.5-1.3-4.9-2.7-6.8-3.9z" fill="inherit"/>
		<path d="m1251.4 2257.2c3.1 1.1 6.8 1.5 9.3 3.5 2.2 1.8 3 5.2 4.1 8.1 0.1 0.3-2.6 2.3-3.8 2.2-4.5-0.6-9.7-8.5-9.6-13.8z" fill="inherit"/>
		<path d="m93.4 1818.2c2.5 6.1 4.4 10.7 6.6 16-2.2 1.3-4.1 2.4-5.8 3.4-0.8-0.6-1.7-0.8-1.7-1.2-0.9-5.5-6-10.9 0.9-18.2z" fill="inherit"/>
		<path d="m842.3 1764.8c-2-3-3.5-4.3-3.5-5.5 0.3-6.3 0.1-12.8 3.7-18.5 2.6 7.3 2.8 14.5-0.2 24z" fill="inherit"/>
		<path d="m973.3 1292.1c3.1 2.5 5.1 4.1 8.3 6.7-5.1 3-8.8 5.1-12.4 7.2-0.4-0.4-0.8-0.9-1.2-1.3 1.6-4 3.3-8 5.3-12.6z" fill="inherit"/>
		<path d="m302.1 646c-5 6.9-10.1 13.8-15.1 20.8-0.8-0.5-1.5-1.1-2.3-1.6 5-6.9 9.9-13.8 14.9-20.7 0.9 0.5 1.7 1 2.5 1.5z" fill="inherit"/>
		<path d="m1316.7 692.2c-3.1 5-7 6.6-17 8.1 2.8-4.9 2.8-4.9 17-8.1z" fill="inherit"/>
		<path d="m264.4 1529.2c3.1 0.2 5.5 0.3 8.7 0.5-2.4 5.1-3.9 10-8.6 14.2-1.9-5.4-1.1-9.7-0.1-14.7z" fill="inherit"/>
		<path d="m1364.6 191c-4.7-3.6-11.9-2.8-9-11.3 4.5 2.2 9.8 2.6 9 11.3z" fill="inherit"/>
		<path d="m860 1609.3c1.7-7.4 3.2-13.8 4.6-20.2 1.8 16.7 1.8 16.7-4.6 20.2z" fill="inherit"/>
		<path d="m292.1 2159.3c-3.9-7.7-3.9-7.7 6.9-13 2.5 7-5.7 6.6-6.9 13z" fill="inherit"/>
		<path d="m1251.5 75.4c-9.1-7.5-9.1-7.5-7.8-16 2.7 5.7 5.3 10.8 7.8 16z" fill="inherit"/>
		<path d="m804.1 1844.9c-3.6-8.1 0.1-15 2.7-22.1-0.8 7.3-1.7 14.7-2.7 22.1z" fill="inherit"/>
		<path d="m1393.5 732c6.2-1.4 12.4-2.8 18.5-4.2-5.8 3-11.1 7.6-17.9 6.9l-0.6-2.7z" fill="inherit"/>
		<path d="m1473.9 2161.2c4.8 4.9 3.7 9.3-3 14.6-2.4-5.7 1.9-9.5 3-14.6z" fill="inherit"/>
		<path d="m1276.9 1486.9c3.2-5.1 6.4-6.8 11.9-4.3-2.6 5.1-5.5 7.4-11.9 4.3z" fill="inherit"/>
		<path d="m1054.5 1513.9c1.2-6.5 6.6-9.3 11.9-14.1-1.2 8.7-8.7 9.5-12.1 13.9 0.1 0 0.2 0.2 0.2 0.2z" fill="inherit"/>
		<path d="m125.5 1797.9c-1-1.8-3.2-4.4-2.7-5.1 1.6-2.3 4.3-4 6.5-5.9 0.6 0.5 1.2 0.9 1.9 1.4-1.1 3-2.3 6.1-3.4 9.1-0.8 0.2-1.6 0.4-2.3 0.5z" fill="inherit"/>
		<path d="m816.5 1747v-21.5c1.3 1.1 3.2 2 3.2 2.8-0.4 6.2-1.1 12.4-1.7 18.5-0.5 0.1-1 0.2-1.5 0.2z" fill="inherit"/>
		<path d="m1218.4 39.2c-3.6 3.3-5.8 5.2-8.8 8 0.1-9.2 0.1-9.2 8.8-8z" fill="inherit"/>
		<path d="m858.6 1616.8c3 5.4 5.8 9.4-0.8 13.4-2.5-4.6-0.3-8.3 0.8-13.4z" fill="inherit"/>
		<path d="m401.5 845.5l-0.6-0.2c-2.6 1.1-5.1 2.1-8.4 3.5 2.4-6.4 2.4-6.4 10.2-7.7-0.5 1.7-0.9 3-1.2 4.4z" fill="inherit"/>
		<path d="m230.7 1675.8c-1.4 4.4-2.9 8.8-4.3 13.2-0.9-0.3-1.7-0.5-2.6-0.8 1.3-4.3 2.7-8.6 4-12.9 1.1 0.2 2 0.4 2.9 0.5z" fill="inherit"/>
		<path d="m1359.7 1485.8l15.3-2.7c0.1 0.8 0.2 1.5 0.4 2.3-5.1 0.8-10.1 1.6-15.2 2.4-0.1-0.7-0.3-1.3-0.5-2z" fill="inherit"/>
		<path d="m119.3 1799.4c0.9 3.4 1.7 6.6 2.6 9.9-7.5-1.3-7.5-1.5-2.6-9.9z" fill="inherit"/>
		<path d="m847.1 1703.6v13.5c-3.6-4.6-2.3-9.2 0-13.5z" fill="inherit"/>
		<path d="m793.5 2016.7v15.9c-0.7 0-1.3-0.1-2-0.1 0.3-5.3 0.6-10.6 0.9-15.9 0.4 0.1 0.8 0.1 1.1 0.1z" fill="inherit"/>
		<path d="m1145.2 1573.2c-2.3 3.4-4.5 6.8-6.8 10.1-0.5-5.1 2.3-8.2 4.9-11.5 0.6 0.5 1.2 0.9 1.9 1.4z" fill="inherit"/>
		<path d="m110.6 1809c1.1 4.4-1.2 6.6-4.6 8.6-1.1-6.2-1.1-6.2 4.6-8.6z" fill="inherit"/>
		<path d="m863.2 1565.6c8.4-0.6 5.8 5 9 9.2-6-1.8-6.5-5.3-9-9.2z" fill="inherit"/>
		<path d="m1618.9 669.8c0 1.5 0.6 3.8-0.1 4.5-3.8 3.8-8 7.2-12.1 10.7-0.4-0.5-0.9-1-1.3-1.5l13.7-13.7c-0.2 0.1-0.2 0-0.2 0z" fill="inherit"/>
		<path d="m308.2 681.2c1.7-5.7 4.7-10.5 10.2-13.3-1.8 5.7-5.1 10.2-10.4 13.1l0.2 0.2z" fill="inherit"/>
		<path d="m1190.8 1527.7c-1.9 6-6.5 6.4-10.8 7.3 3.4-2.3 4.5-7.7 10.8-7.3z" fill="inherit"/>
		<path d="m819.3 1686.6c4.6 0.4 4.8 3.3 4.2 6.9-5.4-1.4-5.4-1.4-4.2-6.9z" fill="inherit"/>
		<path d="m876.7 1538.8c-0.7 3.5-1.4 7-2 10.5-1-0.2-1.9-0.3-2.9-0.5 0.6-3.5 1.2-6.9 1.7-10.4 1.1 0.1 2.1 0.2 3.2 0.4z" fill="inherit"/>
		<path d="m275.9 1552c1.2-3.2 2.4-6.5 3.5-9.7 2.8 4.7 1.7 7.9-3.5 9.7z" fill="inherit"/>
		<path d="m213.8 1632l-1.2-10.5c0.7-0.1 1.5-0.2 2.2-0.3 0.4 3.4 0.9 6.8 1.3 10.2-0.7 0.3-1.5 0.4-2.3 0.6z" fill="inherit"/>
		<path d="m453.4 2106.8c-0.6-2.5-1.2-5.1-1.9-8.3 6.7 2.7 6.7 2.7 1.9 8.3z" fill="inherit"/>
		<path d="m1325.3 2227.6c3.8 0.4 7.3-0.3 9.1 4.9-4-0.1-7.4 0.4-9.1-4.9z" fill="inherit"/>
		<path d="m1013.6 1177.4c1.3-3.3 2.6-6.6 3.9-9.9 0.8 0.3 1.5 0.6 2.3 0.9-1.2 3.3-2.4 6.7-3.6 10-0.8-0.4-1.7-0.7-2.6-1z" fill="inherit"/>
		<path d="m1124.7 1478.7c1.7-1.7 3.3-3.4 5-5.1 0.6 0.5 1.1 1 1.7 1.6-1.5 1.8-3.1 3.7-4.6 5.5-0.7-0.7-1.4-1.4-2.1-2z" fill="inherit"/>
		<path d="m1556.1 1333c-1.1 7-5.5 10.1-12.2 10.2l0.3 0.2c4-3.4 8.1-6.7 12.1-10.1l-0.2-0.3z" fill="inherit"/>
		<path d="m817.8 1719.2l0.6-9.9c3.6 3.5 2 6.9 1.5 10.2l-2.1-0.3z" fill="inherit"/>
		<path d="m1150.9 1560.9c1.8-2.3 3.6-4.7 5.4-7 1.3 4.6-0.3 7.1-3.5 8.4-0.6-0.4-1.3-0.9-1.9-1.4z" fill="inherit"/>
		<path d="m828.4 1825c0.2-2.7 0.4-5.5 0.5-8.2 4 3 2.8 5.7-0.5 8.2z" fill="inherit"/>
		<path d="m223 2158.6c-2.3 1.4-4.6 2.7-6.9 4.1 0.1-5.5 3.8-4.2 6.9-4.1z" fill="inherit"/>
		<path d="m1142.1 214.9c0.7 2.9 1.4 5.7 2.1 8.6-0.5 0.1-1 0.3-1.6 0.4-0.6-2.9-1.3-5.7-1.9-8.6 0.4-0.2 0.9-0.3 1.4-0.4z" fill="inherit"/>
		<path d="m492.4 1945.6c-1.1 1.7-2.3 3.3-3.4 5l-1.5-0.6c0.1-1.4-0.1-3 0.5-4.2 0.4-0.9 1.8-1.3 2.8-1.9 0.5 0.6 1.1 1.2 1.6 1.7z" fill="inherit"/>
		<path d="m282.9 638.8c-1.4 1.9-2.9 3.9-4.9 6.7-0.4-1.9-1-2.9-0.7-3.3 1.3-1.7 2.8-3.2 4.3-4.8 0.4 0.5 0.8 0.9 1.3 1.4z" fill="inherit"/>
		<path d="m808.2 1795.2c0.2-2.4 0.4-4.8 0.6-8.3 1.6 1.5 2.8 2.2 2.7 2.6-0.4 2-1.2 4-1.9 6-0.5-0.1-0.9-0.2-1.4-0.3z" fill="inherit"/>
		<path d="m135.7 1795.7c-0.9 2-1.9 4.1-2.8 6.1-0.7-0.3-1.3-0.5-2-0.8 0.8-2.1 1.6-4.2 2.3-6.3 0.8 0.4 1.7 0.7 2.5 1z" fill="inherit"/>
		<path d="m484.7 2076c-1.4 1.7-2.7 3.5-4.5 5.8-1-1.9-1.9-3.1-1.7-3.4 1.2-1.6 2.7-3 4.1-4.4 0.6 0.7 1.4 1.4 2.1 2z" fill="inherit"/>
		<path d="m87.9 1979c-0.4 1.8-0.7 3.6-1.1 5.5-0.7-0.1-1.3-0.2-2-0.2 0.1-1.9 0.2-3.7 0.3-5.6 0.9 0 1.8 0.1 2.8 0.3z" fill="inherit"/>
		<path d="m1065.7 1140.2c-0.1 1.7-0.3 3.5-0.4 5.2l-2.1-0.3 0.9-5.1c0.5 0.1 1 0.1 1.6 0.2z" fill="inherit"/>
		<path d="m835.7 1772.6c0.4-1.8 0.8-3.5 1.1-5.3 0.7 0.1 1.4 0.2 2 0.4-0.3 1.8-0.7 3.6-1 5.4-0.7-0.3-1.4-0.4-2.1-0.5z" fill="inherit"/>
		<path d="m1088.8 1378.4c-1.7 1.4-2.6 2.7-3.5 2.7-0.9 0.1-2.5-0.9-2.7-1.7-0.3-0.9 0.7-2.2 1.1-3.3 1.3 0.6 2.7 1.3 5.1 2.3z" fill="inherit"/>
		<path d="m221.9 1612.2c-1.3 1-2 1.9-2.7 1.8-0.8 0-1.9-0.7-2.1-1.3s0.6-1.6 1-2.4c1 0.5 2.1 1 3.8 1.9z" fill="inherit"/>
		<path d="m1224.2 1395.9c0.8 2.5 1.6 5 2.9 8.7-2.7-0.7-4.4-1.1-7.2-1.8 1.7-2.7 3-4.8 4.3-6.9z" fill="inherit"/>
		<path d="m18.1 1833.3c-0.4 2-0.8 3.9-1.2 5.9-0.7-0.1-1.3-0.2-2-0.3l0.9-6c0.8 0.2 1.6 0.3 2.3 0.4z" fill="inherit"/>
		<path d="m814.1 1870.6c-1.1 1.2-1.9 2.1-2.7 3l-2.3-2.3c0.8-0.8 1.6-1.8 2.6-2.2 0.4-0.2 1.3 0.7 2.4 1.5z" fill="inherit"/>
		<path d="m245.1 1553.5c-1 1.9-2.1 3.7-3.7 6.6-2-4.6-0.6-6.4 3.7-6.6z" fill="inherit"/>
		<path d="m74.9 1831.4c-0.1-1.4-0.2-2.8-0.4-4.3 0.5-0.1 1-0.2 1.4-0.2 0.4 1.5 0.8 2.9 1.1 4.4-0.7-0.1-1.4 0-2.1 0.1z" fill="inherit"/>
		<path d="m842.3 1730.9c0.8-1.4 1.5-2.8 2.4-4.2 0-0.1 1.1 0.5 1.7 0.8-0.8 1.5-1.7 2.9-2.5 4.4-0.6-0.3-1.1-0.6-1.6-1z" fill="inherit"/>
		<path d="m450.5 2085.4c2.4 1.8 3.6 2.6 4.7 3.5-0.2 0.4-0.4 0.9-0.6 1.3-0.9-0.3-2-0.3-2.6-0.8-0.6-0.6-0.6-1.7-1.5-4z" fill="inherit"/>
		<path d="m125 1775c-0.7 1.6-1.4 3.2-2.1 4.9-0.6-0.2-1.1-0.4-1.7-0.7 0.5-1.6 1.1-3.2 1.6-4.8 0.7 0.2 1.5 0.4 2.2 0.6z" fill="inherit"/>
		<path d="m1246.7 879.5c-1.4 1.2-2.9 2.3-4.3 3.5-0.3-0.3-0.6-0.5-0.9-0.8 1.3-1.4 2.6-2.8 3.9-4.2 0.5 0.5 0.9 1 1.3 1.5z" fill="inherit"/>
		<path d="m975 1429c-0.2 1.5-0.3 2.9-0.5 4.4h-1.5c-0.1-1.5-0.2-2.9-0.3-4.4h2.3z" fill="inherit"/>
		<path d="m849.7 1690.7c-0.7-0.6-1.2-0.8-1.2-1 0-1.9 0.1-3.8 0.2-5.7 0-0.1 0.7-0.2 1-0.3 0.2 1.9 0.5 3.9 0.7 5.8 0.1 0.2-0.3 0.5-0.7 1.2z" fill="inherit"/>
		<path d="m473.4 1945.2c-1-1.6-2-3.2-3-4.9 0.7-0.5 1.5-0.9 2.2-1.4 1 1.6 2 3.2 3 4.9-0.7 0.5-1.4 1-2.2 1.4z" fill="inherit"/>
		<path d="m699.1 486.3c-1.4 0.9-2.9 1.7-4.3 2.6-0.3-0.4-0.5-0.8-0.8-1.2 1.3-1.1 2.5-2.2 3.8-3.3 0.5 0.6 0.9 1.2 1.3 1.9z" fill="inherit"/>
		<path d="m1573.9 705.1c1.2-1 2.3-2 3.5-3.1 0.3 0.2 0.7 0.4 1 0.7-0.5 0.8-0.8 1.8-1.4 2.4s-1.6 0.9-2.4 1.3c-0.2-0.4-0.5-0.9-0.7-1.3z" fill="inherit"/>
		<path d="m308 681c-0.8 2-1.7 4.1-2.5 6.1-0.6-0.4-1.3-0.8-1.9-1.2 1.6-1.5 3.2-3.1 4.8-4.7-0.2 0-0.4-0.2-0.4-0.2z" fill="inherit"/>
		<path d="m1136.6 137.6c-0.8 0.6-1.7 1.2-2.5 1.9-0.2-0.3-0.4-0.6-0.7-0.9 0.8-0.7 1.6-1.3 2.4-2 0.3 0.4 0.6 0.7 0.8 1z" fill="inherit"/>
		<path d="m270.4 684.6c-0.7 1-1.3 1.9-2 2.9l-1-1c0.7-1 1.4-1.9 2.1-2.9 0.2 0.3 0.6 0.7 0.9 1z" fill="inherit"/>
		<path d="m1128.4 145.5c-0.5 1.2-1.1 2.4-1.6 3.6l-1.2-0.6c0.6-1.2 1.2-2.3 1.8-3.5l1 0.5z" fill="inherit"/>
		<path d="m1119.5 1630.8c-0.4 1.4-0.9 2.8-1.3 4.2-0.5-0.1-1-0.3-1.5-0.4 0.4-1.4 0.8-2.8 1.1-4.2 0.6 0.1 1.1 0.2 1.7 0.4z" fill="inherit"/>
		<path d="m854.3 1653.3c0.1-1.8 0.2-3.6 0.2-5.4 0.4 0 0.8-0.1 1.2-0.1 0.3 1.8 0.6 3.6 0.9 5.5-0.8-0.1-1.5-0.1-2.3 0z" fill="inherit"/>
		<path d="m472.2 1915.9c-0.7 1.1-1.1 2-1.7 2.4-0.3 0.2-1.7-0.7-1.7-1 0-0.8 0.4-1.8 1.1-2.3 0.2-0.3 1.3 0.5 2.3 0.9z" fill="inherit"/>
		<path d="m454.9 1982.8c-1.2 0.9-2.3 1.9-2.5 1.8-0.9-0.7-1.7-1.6-2.1-2.6-0.1-0.3 1.4-1.8 1.5-1.7 1 0.6 1.8 1.4 3.1 2.5z" fill="inherit"/>
		<path d="m830.9 1809.6c0.2-2.1 0.3-3.3 0.5-4.4 0.5 0.7 1.2 1.4 1.4 2.3 0.1 0.2-0.8 0.8-1.9 2.1z" fill="inherit"/>
		<path d="m833 1798.3c-0.2-3.2-0.3-4.6-0.3-6.1 0.3-0.1 0.7-0.3 1-0.4 0.4 0.9 1.2 1.7 1.2 2.6 0 0.8-0.8 1.6-1.9 3.9z" fill="inherit"/>
		<path d="m1253.8 872.8c-0.4 0.4-0.9 0.8-1.3 1.2l-1.2-2.1c0.6-0.2 1.2-0.8 1.6-0.7 0.4 0.2 0.6 1 0.9 1.6z" fill="inherit"/>
		<path d="m829.6 1762.7c0.2-1.7 0.5-3.5 0.7-5.2 0.4 0 0.7 0.1 1.1 0.1v5.2c-0.6 0-1.2 0-1.8-0.1z" fill="inherit"/>
		<path d="m1385.5 736.1c-1.5 0.4-3 0.7-4.5 1.1-0.1-0.4-0.3-0.9-0.4-1.3 1.4-0.5 2.9-1 4.3-1.5 0.2 0.5 0.4 1.1 0.6 1.7z" fill="inherit"/>
		<path d="m657.4 1782.1c8.9 2.8 12.2 0.4 13.7-9.4 7.9-0.4 7.9-0.4 10.8-9.5 4.9-1.7 9.7-3.3 14.6-5 3.5 5 0.2 7.2-2.6 9.5-7.1 5.9-14.1 12-21.4 17.7-5.4 4.2-10.6 8.2-10.2 16.5-2.8-6.6-8.3-11.7-4.9-19.8z" fill="inherit"/>
		<path d="m670.4 1869.2c-2.5-2.8-4.6-4.2-5.3-6.1-3.1-8.6-5.5-42.7-4-52.6 6.1 5.5 13.1 35.9 9.3 58.7z" fill="inherit"/>
		<path d="m644.9 1828.8c14 10 12.6 20.8 5.4 33.2-1.8-11.1-3.4-21.4-5.4-33.2z" fill="inherit"/>
		<path d="m733.2 1726c-3.6 8.2-13.7 18.1-22.7 21.2 3.5-4.1 6.4-10.6 10.7-11.7 5.8-1.4 6-8.3 12-9.5z" fill="inherit"/>
		<path d="m653.7 1743.3c-3.3-11.3-3.6-20.1 0.4-26.3 0.6 8.7 1.2 17.4 1.8 26.2-0.7 0-1.4 0-2.2 0.1z" fill="inherit"/>
		<path d="m683.3 1950.9c1.2 1 3.2 1.9 3.4 3 1.3 7.1 5.3 14 0.9 21.9-1.4-8.3-2.9-16.6-4.3-24.9z" fill="inherit"/>
		<path d="m683.3 1950.9c0.8-5.6-4.2-10.8-1.3-18.8 4.1 7.6 1.5 13.3 1.3 18.8z" fill="inherit"/>
		<path d="m682.3 1918c-0.5 3.7-0.8 6.4-1.2 9.9-2.9-5.6-2.9-5.6 1.2-9.9z" fill="inherit"/>
		<path d="m667.8 1963.8c0.9-2.4 1.7-4.4 2.4-6.4 1.2 0.7 3.1 1.2 3.4 2.1 0.8 3.4-1.3 4.5-5.8 4.3z" fill="inherit"/>
		<path d="m738.5 1680.4c0.2-2.7 0.5-5.5 0.7-8.2 0.5 0.1 1.1 0.1 1.6 0.2-0.2 2.8-0.3 5.5-0.5 8.3-0.7-0.2-1.3-0.2-1.8-0.3z" fill="inherit"/>
		<path d="m714 1680.8c0.9-1 1.8-2 2.6-3 0.6 0.6 1.2 1.1 1.8 1.7-1.1 0.8-2.2 1.6-3.4 2.5-0.3-0.4-0.6-0.8-1-1.2z" fill="inherit"/>
		<path d="m641.5 1798.7c3.9-0.5 4.3 1.3 2.5 6-1.2-3-1.9-4.6-2.5-6z" fill="inherit"/>
		<path d="m641.4 1798.6c-0.2-3-0.5-6-0.7-9.1h0.8c0 3 0 6.1-0.1 9.1 0.1 0.1 0 0 0 0z" fill="inherit"/>
		<path d="m783 1181.8v-8.5h0.6v8.3c-0.2 0.1-0.4 0.1-0.6 0.2z" fill="inherit"/>
		<path d="m785 1157.1v-5.7h0.4v5.6c-0.2 0.1-0.3 0.1-0.4 0.1z" fill="inherit"/>
		<path d="m1e3 995.9c4.3 19.5-0.7 36.9-2.9 55.8-3.2-10-1.4-46.8 2.9-55.8z" fill="inherit"/>
		<path d="m1006.5 956.7c-0.6 2.6-0.6 5.6-2 7.6-2.7 4-2.3 7.7-1.4 12.1 1.6 7.2 1.1 8.8-3.1 14.2 0.6-11.6-0.9-23.4 3.7-34.5 0.8 0.3 1.8 0.4 2.8 0.6z" fill="inherit"/>
		<path d="m1009.7 1088.8c-0.2 1.4-0.3 2.8-0.6 4.1 0 0.1-1.5-0.2-2.4-0.2 0.2-1.4 0.4-2.8 0.5-4.2 0.9 0.1 1.7 0.2 2.5 0.3z" fill="inherit"/>
		<path d="m1349.9 1745.4c-0.9 5.7-1.7 10.2-2.4 14.6-0.7-0.1-1.3-0.3-2-0.4-0.7-4.8-1.5-9.7 4.4-14.2z" fill="inherit"/>
		<path d="m1378 1724c-1-2.3-2.1-3.6-1.8-4.3 0.4-0.9 1.8-1.4 2.8-2 0.4 0.8 1.2 1.6 1.1 2.3-0.1 1-0.9 1.9-2.1 4z" fill="inherit"/>
		<path d="m1362.6 1731c-0.7-0.5-1.6-0.9-1.5-1.2 0.2-0.8 0.6-1.5 1-2.3 0.5 0.3 1.3 0.6 1.3 0.9-0.1 0.9-0.5 1.7-0.8 2.6z" fill="inherit"/>
		<path d="m1734.2 1785.5c1.3-5.6 5.2-8.2 10.4-9.5 5.1-1.3 10.2-2.3 16.5-3.7 0.5-2.6 1.1-6 1.7-9.4 6.2-3.1 12.7-6.3 20.1-10.1-0.3 1.8-0.6 2.9-0.7 4-0.3 7.1 2.5 10.2 9.2 11.2 3 0.4 7.3-1.6 9.9 5.1-9.9-5-16.4-0.2-23.3 3.7-3.1 1.7-7.2 1.7-10.9 2.4-11 2-22.1 4-33.1 6.1l0.2 0.2z" fill="inherit"/>
		<path d="m1831.8 1745.1c-0.8 3.7-1 7.7-2.6 11-2.7 5.2-6.5 9.8-10.1 15.1-1.2-0.9-3-1.7-3-2.4 0.3-3.5 0-7.8 1.9-10.2 4-5 9.3-8.9 14-13.3l-0.2-0.2z" fill="inherit"/>
		<path d="m1663.7 1752.2c4.3-0.3 8.5-0.7 13-1 0.7 1.5 1.3 3 2.2 5.1-5.9 2.5-10.3-1.6-15.3-1.3 0-0.9 0.1-1.8 0.1-2.8z" fill="inherit"/>
		<path d="m1729.3 1648.6h-8.8c2.9-6.4 2.9-6.4 8.8 0z" fill="inherit"/>
		<path d="m1723 1756.3c-2 5.1-4.5 5.9-8.1 2 3.1-0.8 5.6-1.4 8.1-2z" fill="inherit"/>
		<path d="m1832 1745.3c0.9-2.1 1.5-4.5 2.9-6.1 0.8-0.9 3.1-0.5 4.7-0.7 0.3 0.7 0.6 1.4 0.9 2.1l-8.7 4.5 0.2 0.2z" fill="inherit"/>
		<path d="m1682.2 1744.8c0.9 1.7 1.9 3.3 2.7 5.1 0 0.1-2 1.3-2.1 1.2-1.2-1.5-2.2-3.1-3.2-4.6 0.9-0.6 1.8-1.2 2.6-1.7z" fill="inherit"/>
		<path d="m1705.8 1760.2c-6.2 2-7.6 0.4-7.3-4.7 2.3 1.5 3.9 2.5 7.3 4.7z" fill="inherit"/>
		<path d="m1644.7 1651c-1.2 0.7-2 1.5-3.1 1.8-0.3 0.1-1.5-1.7-1.3-2 0.5-1 1.6-1.6 2.4-2.4 0.5 0.7 1.1 1.4 2 2.6z" fill="inherit"/>
		<path d="m1724.9 1988.1c-6.1 7.3-12.4 14.4-18.3 21.9-3.5 4.4-3.5 4.7-12 1.8-0.4-4 2-6.8 5.4-6.9 5.5-0.3 8.1-3.3 10.7-7.5s6.1-7.8 9.7-12.2c1.4 1.1 2.9 2.2 4.4 3.2l0.1-0.3z" fill="inherit"/>
		<path d="m1683.9 1883.4c0.1 12.1-3 15-16.6 16.9 5.2-5.3 10.7-10.8 16.6-16.9z" fill="inherit"/>
		<path d="m1605.7 1971.6c-5.9 3.4-11.8 6.8-18.3 10.4 0-4.3 0-4.3 11.5-14.7 2.1 1.5 4.4 3 6.6 4.5 0.1 0 0.2-0.2 0.2-0.2z" fill="inherit"/>
		<path d="m1631.2 1915.9c-7.7-5.7-7.7-5.7 3.9-13.5-0.1 5.3-2.1 9.2-3.9 13.5z" fill="inherit"/>
		<path d="m1628.8 1924.9c0 4.9 1.1 10.1-4.3 14.8-1.6-6.6-0.1-11.1 4.3-14.8z" fill="inherit"/>
		<path d="m1580.9 1980.7c-2.5 3.5-3.4 8.6-9.2 8.9 0.7-7.7 0.7-7.7 9.2-8.9z" fill="inherit"/>
		<path d="m1639.1 1931.7c1.7-3.8 3.5-7.7 5.2-11.5-2.1 3.9 2.3 10-3 12.8-0.7-0.5-1.4-0.9-2.2-1.3z" fill="inherit"/>
		<path d="m1604.5 1932.2c1.5 5 1.4 7.5-4.6 8.8 1.7-3.3 2.8-5.3 4.6-8.8z" fill="inherit"/>
		<path d="m1673.3 2017.7c-0.9 1.1-1.4 1.7-1.9 2.4-0.6-0.6-1.4-1.2-1.8-1.9-0.1-0.2 0.6-1.3 1-1.3 0.7-0.1 1.5 0.4 2.7 0.8z" fill="inherit"/>
		<path d="m1736.4 1886.6c-1.8-0.6-3.6-1.1-5.4-1.7 0.2-0.5 0.3-1 0.5-1.5 1.8 0.5 3.7 1.1 5.5 1.6-0.3 0.6-0.5 1.1-0.6 1.6z" fill="inherit"/>
		<path d="m1676.7 2012.1c1.6-1 3.3-2 4.9-3 0.2 0.4 0.5 0.7 0.7 1.1-1.5 1.2-3.1 2.3-4.6 3.5-0.3-0.5-0.7-1.1-1-1.6z" fill="inherit"/>
		<path d="m1723.7 1927.9c-0.8 0.8-1.4 1.5-2 2.1l-2.1-2.1c0.6-0.6 1.2-1.6 1.9-1.6 0.7-0.2 1.4 0.8 2.2 1.6z" fill="inherit"/>
		<path d="m1708.7 1880c1.4 2.8 3.4 5.8-2.8 7.7 1.1-3.2 2-5.5 2.8-7.7z" fill="inherit"/>
		<path d="m1361.6 1965.9c-0.6 1.9-1.1 3.7-1.7 5.6-0.5-0.1-0.9-0.2-1.4-0.4l1.2-5.7c0.7 0.2 1.3 0.3 1.9 0.5z" fill="inherit"/>
		<path d="m1696.2 1551.2h-35.5c12-4.7 23.9-1.6 35.8-3.5-0.1 1.2-0.2 2.4-0.3 3.5z" fill="inherit"/>
		<path d="m1593.7 1549.7c-10.1 8.3-18.9 1.1-27.2 2.4 8.4-0.8 16.8-1.5 27.2-2.4z" fill="inherit"/>
		<path d="m1549.7 1551.9h8.1c-0.8 1.3-1.2 2.7-1.6 2.7-2.1 0-4.3-0.3-6.4-0.5-0.1-0.8-0.1-1.5-0.1-2.2z" fill="inherit"/>
		<path d="m1709.4 1551.9c-2.4-0.2-4.7-0.3-8.3-0.6 3.9-4.6 6.1-2.6 8.4-1.5 0 0.7 0 1.4-0.1 2.1z" fill="inherit"/>
		<path d="m1611.2 1550.7h-5.6c0-0.2-0.1-0.4-0.1-0.6l5.7-0.3v0.9z" fill="inherit"/>
		<path d="m1666.2 1862c1.7-3.8 3.3-7.6 5.4-12.3 1.8 7.9 1.4 8.9-5.4 12.3z" fill="inherit"/>
		<path d="m1326.5 1899.5c-1.4-5-0.3-8.9 4.9-11.8 2.7 6.3-0.1 9.4-5.2 11.6 0.1 0.1 0.3 0.2 0.3 0.2z" fill="inherit"/>
		<path d="m1328.4 1215.8c1-2.5 1.9-4.9 2.9-7.4 0.8 0.5 1.5 0.9 2.3 1.4-1.8 1.9-3.6 3.8-5.4 5.8-0.1 0 0.2 0.2 0.2 0.2z" fill="inherit"/>
	</g>
</g>
</svg>