  <svg
    xmlns="http://www.w3.org/2000/svg"
    enable-background="new 0 0 103.1 91"
    version="1.1"
    viewBox="0 0 103.1 91"
    x="0px"
    xml:space="preserve"
    y="0px"
    style="fill: rgb(0, 0, 0)"
    role="img"
  >
    <g id="flower" style="fill: rgb(214, 0, 0)">
      <path
        d="m95.3 80.9c-0.4-0.3-0.9-0.5-1.3-0.6 0.1-0.1 0.2-0.2 0.2-0.3 1.2-1.6 0.8-3.8-0.7-4.9-1.6-1.2-3.8-0.8-4.9 0.7-0.1 0.1-0.1 0.2-0.2 0.3-0.2-0.4-0.6-0.8-1-1.2-1.6-1.2-3.8-0.8-4.9 0.7-1 1.4-0.9 3.3 0.2 4.5-0.9 0.1-1.7 0.6-2.2 1.4l-0.1 0.1c-0.2-0.3-0.4-0.6-0.7-0.8-1-0.7-2.4-0.5-3.2 0.5-0.1 0.1-0.1 0.1-0.1 0.2-0.2-0.3-0.4-0.5-0.6-0.7-1-0.7-2.4-0.5-3.2 0.5-0.7 0.9-0.6 2.1 0.2 2.9-0.6 0.1-1.1 0.4-1.4 0.9-0.7 1-0.5 2.4 0.5 3.2 0.7 0.5 1.6 0.6 2.3 0.2-0.1 0.8 0.2 1.6 0.9 2.1 1 0.7 2.4 0.5 3.2-0.5 0.4-0.5 0.5-1.1 0.4-1.6 1 0.4 2.1 0.2 2.8-0.7 0.2-0.3 0.3-0.6 0.4-1 1 0.5 2.1 0.5 3 0-0.2 1.2 0.3 2.5 1.4 3.3 1.6 1.2 3.8 0.8 4.9-0.7 0.6-0.7 0.8-1.6 0.7-2.5 1.5 0.7 3.3 0.3 4.3-1.1 0.9-1.5 0.6-3.7-0.9-4.9zm-16.6 5.2c0.1-0.2 0.3-0.3 0.5-0.2s0.3 0.3 0.2 0.5-0.3 0.3-0.5 0.2-0.3-0.3-0.3-0.4c-0.2 0-0.6 0-1-0.1 0 0.1-0.1 0.2-0.1 0.2l-0.2 0.2c0.2 0.3 0.3 0.7 0.4 0.9 0.2-0.1 0.4 0 0.5 0.1 0.1 0.2 0.1 0.4-0.1 0.5s-0.4 0.1-0.5-0.1-0.1-0.4 0-0.5c-0.2-0.1-0.4-0.3-0.7-0.7-0.2 0.1-0.3 0.1-0.5 0.2 0 0.4-0.1 0.7-0.2 0.9 0.2 0 0.3 0.2 0.3 0.4s-0.2 0.4-0.4 0.4-0.4-0.2-0.4-0.4 0.1-0.4 0.3-0.4c0.1-0.1 0-0.4 0-0.8-0.2 0-0.4-0.1-0.5-0.2-0.3 0.3-0.5 0.5-0.7 0.6 0.1 0.1 0.1 0.4 0 0.5-0.1 0.2-0.4 0.2-0.5 0.1-0.2-0.1-0.2-0.4-0.1-0.5 0.1-0.2 0.3-0.2 0.5-0.1 0.1-0.2 0.2-0.5 0.4-0.9-0.1-0.1-0.2-0.3-0.3-0.4-0.4 0.1-0.8 0.1-1 0.1 0 0.2-0.1 0.4-0.3 0.4-0.2 0.1-0.4-0.1-0.5-0.3s0.1-0.4 0.3-0.5c0.2-0.1 0.4 0 0.5 0.2 0.2-0.1 0.5-0.3 0.8-0.5v-0.6c-0.4-0.2-0.7-0.4-0.8-0.5-0.1 0.2-0.3 0.2-0.5 0.2-0.2-0.1-0.3-0.3-0.2-0.5s0.3-0.3 0.5-0.2 0.3 0.2 0.3 0.4c0.2 0 0.6 0 1 0.1 0-0.1 0.1-0.2 0.1-0.2l0.2-0.2c-0.2-0.3-0.3-0.7-0.4-0.9-0.2 0.1-0.4 0-0.5-0.1-0.1-0.2-0.1-0.4 0.1-0.5s0.4-0.1 0.5 0.1 0.1 0.4 0 0.5c0.2 0.1 0.4 0.4 0.7 0.7 0.2-0.1 0.3-0.1 0.5-0.2 0-0.4 0.1-0.7 0.2-0.9-0.2 0-0.3-0.2-0.3-0.4s0.2-0.4 0.4-0.4 0.4 0.2 0.4 0.4-0.1 0.4-0.3 0.4c0.1 0.2 0.1 0.5 0.2 0.9 0.2 0 0.4 0.1 0.5 0.2l0.7-0.7c-0.1-0.1-0.1-0.3 0-0.5s0.4-0.2 0.5-0.1c0.2 0.1 0.2 0.4 0.1 0.6-0.1 0.1-0.3 0.2-0.5 0.1-0.1 0.2-0.2 0.5-0.4 0.9 0.1 0.1 0.2 0.3 0.3 0.5 0.4-0.1 0.8-0.1 1-0.1 0-0.2 0.1-0.4 0.3-0.4 0.2-0.1 0.4 0 0.5 0.3 0.1 0.2-0.1 0.4-0.3 0.5s-0.4 0-0.5-0.2c-0.2 0.1-0.5 0.3-0.8 0.5v0.6c0.1 0 0.4 0.2 0.6 0.3zm12-3.6c0.6 0.2 1 0.5 1.3 0.7 0.1-0.3 0.4-0.4 0.7-0.3s0.5 0.4 0.4 0.8c-0.1 0.3-0.5 0.5-0.8 0.4s-0.5-0.4-0.4-0.7c-0.3 0-0.9 0-1.5-0.2-0.1 0.1-0.1 0.3-0.2 0.4s-0.2 0.2-0.3 0.3c0.3 0.5 0.5 1.1 0.6 1.4 0.3-0.1 0.6-0.1 0.8 0.2s0.1 0.7-0.1 0.8c-0.3 0.2-0.7 0.1-0.8-0.1-0.2-0.2-0.1-0.6 0.1-0.8-0.3-0.2-0.7-0.5-1.1-1-0.3 0.1-0.5 0.2-0.8 0.3-0.1 0.6-0.2 1.2-0.3 1.5 0.3 0 0.5 0.3 0.5 0.6s-0.3 0.6-0.6 0.6-0.6-0.3-0.6-0.6 0.2-0.6 0.5-0.6c-0.1-0.3-0.2-0.8-0.3-1.5-0.3 0-0.6-0.1-0.8-0.3-0.4 0.5-0.8 0.8-1.1 1 0.2 0.2 0.2 0.5 0.1 0.8-0.2 0.3-0.6 0.3-0.8 0.1-0.3-0.2-0.3-0.6-0.1-0.8s0.5-0.3 0.8-0.2c0.1-0.3 0.3-0.8 0.6-1.3-0.2-0.2-0.4-0.4-0.5-0.7-0.6 0.1-1.2 0.2-1.5 0.2 0 0.3-0.1 0.6-0.4 0.7s-0.7-0.1-0.8-0.4c-0.1-0.3 0.1-0.7 0.4-0.8s0.6 0 0.7 0.3c0.3-0.2 0.7-0.5 1.3-0.7v-0.9c-0.6-0.3-1-0.6-1.3-0.7-0.1 0.3-0.4 0.4-0.7 0.3s-0.5-0.4-0.4-0.8c0.1-0.3 0.5-0.5 0.8-0.4s0.5 0.4 0.4 0.7c0.3 0 0.9 0 1.5 0.2 0.1-0.1 0.1-0.3 0.2-0.4s0.2-0.2 0.3-0.3c-0.3-0.5-0.5-1.1-0.6-1.4-0.3 0.1-0.6 0.1-0.8-0.2s-0.1-0.7 0.1-0.8c0.3-0.2 0.7-0.1 0.8 0.1 0.2 0.2 0.1 0.6-0.1 0.8 0.3 0.2 0.7 0.5 1.1 1 0.3-0.1 0.5-0.2 0.8-0.3 0.1-0.6 0.2-1.2 0.3-1.5-0.3-0.1-0.5-0.3-0.5-0.6s0.3-0.6 0.6-0.6 0.6 0.3 0.6 0.6-0.2 0.6-0.5 0.6c0.1 0.3 0.2 0.8 0.3 1.5 0.3 0 0.6 0.1 0.8 0.3 0.4-0.5 0.8-0.8 1.1-1-0.2-0.2-0.2-0.5-0.1-0.8 0.2-0.3 0.6-0.3 0.8-0.1 0.3 0.2 0.3 0.6 0.1 0.8s-0.5 0.3-0.8 0.2c-0.1 0.3-0.3 0.8-0.6 1.3 0.2 0.2 0.4 0.4 0.5 0.7 0.6-0.1 1.2-0.2 1.5-0.2 0-0.3 0.1-0.6 0.4-0.7s0.7 0.1 0.8 0.4c0.1 0.3-0.1 0.7-0.4 0.8s-0.6 0-0.7-0.3c-0.3 0.2-0.7 0.5-1.3 0.7 0.1 0.4 0.1 0.7 0 0.9z"
        style="fill: inherit"
      ></path>
      <path
        d="m73 75.7c1.6-0.7 2.4-2.5 1.8-4.2 0-0.1-0.1-0.2-0.2-0.3 0.4 0 0.9-0.1 1.3-0.2 1.6-0.7 2.4-2.5 1.8-4.2-0.6-1.4-2.1-2.2-3.5-1.9 0.3-0.7 0.3-1.6 0-2.4-0.3-0.7-0.8-1.2-1.3-1.5 0.7 0.2 1.3 0.3 2 0.3 1.5 0 4.4 0.6 7.6 1.3 2.3 0.5 4.7 1 6.7 1.3 0.5 0.1 13.3 0.3 13.9 0.5v-3.6c-0.9-0.4-9.7 0.1-11.4 0-1.3 0-5.7-0.7-6.7-0.9-0.2 0-0.4-0.1-0.5-0.1-0.2-0.1-0.3-0.1-0.5-0.2-1-0.7-1.6-1.7-2.1-2.7-0.2-0.4-0.4-0.8-0.6-1.1l-0.3-0.2c-0.8-1.2-1.7-2.6-1.5-4 0.1-0.6 0.8-2.2 1.2-2.7 0.4-0.4 0.5-0.9 0.4-1.5-0.1-0.8-0.6-1.6-1.3-2.1-0.2-0.1-0.4-0.2-0.7-0.3-0.8-0.2-2.2-0.1-3.5 0-0.9 0.1-1.7 0.1-2.2 0.1s-0.7-0.1-0.9-0.3c-0.1-0.1-0.2-0.1-0.2-0.2l-0.3-0.3c-0.3-0.2-0.7-0.3-1.1-0.4-1.6-0.3-2.8-0.7-3.9-1.2 0.1 0 0.1 0 0.2-0.1 1.4-0.6 2.1-2.2 1.5-3.6 0-0.1-0.1-0.2-0.1-0.3 0.4 0 0.8 0 1.2-0.2 1.4-0.6 2.1-2.2 1.5-3.6-0.5-1.2-1.8-1.9-3.1-1.7 0.2-0.6 0.3-1.4 0-2.1-0.6-1.4-2.2-2.1-3.6-1.5-1 0.4-1.6 1.3-1.7 2.3-0.8-0.6-1.8-0.8-2.8-0.4-1.4 0.6-2.1 2.2-1.5 3.6 0.3 0.7 0.8 1.2 1.4 1.5-1.1 0.7-1.6 2.1-1.1 3.4 0.6 1.4 2.2 2.1 3.6 1.5h0.1c0.1 0.1 0.3 0.2 0.4 0.3l0.6 0.3c0.1 0.1 0.3 0.1 0.4 0.2s0.2 0.1 0.2 0.1c0.3 0.7 1.2 1.4 1.7 1.7l0.5 0.3c1.4 0.9 2.2 1.4 3.3 1.3 0.1 0 0.4 0.1 0.5 0.2s0.3 0.2 0.4 0.3c0.2 0.1 0.4 0.3 0.6 0.4 1.3 0.8 3.3 1.7 6.7 0.8 0.3-0.1 0.6-0.1 0.7 0s0.1 0.3 0.1 0.4c-0.1 0.2-0.3 0.6-0.6 0.9-0.4 0.5-0.8 1-0.9 1.4l-0.3 0.9c-0.3 0.9-0.5 1.8-0.2 2.9 0 0.1 0.1 0.2 0.1 0.3 0.3 0.9 0.9 2.7 1.8 4.3-1.9-0.5-3.8-1.1-5.5-1.7-3.3-1.1-6.7-3.2-9.1-4.7-1.7-1-2.9-1.8-3.7-2-0.1 0-0.2-0.1-0.6-0.3-0.7-0.5-1.8-1.4-2.9-2.2-1.1-0.9-2.2-1.8-3.1-2.4-0.3-0.2-0.5-0.3-0.7-0.4-0.1 0-0.2-0.1-0.3-0.2-1-0.6-0.7-2.2-0.4-3.9 0.3-1.6 0.6-3.3-0.4-4.2-0.1-0.1-0.3-0.2-0.5-0.4-0.1-0.1-0.2-0.2-0.4-0.3 2-1.6 2.8-4.4 1.8-6.9l-0.3-0.6c0.8 0 1.7-0.1 2.5-0.4 3-1.2 4.5-4.7 3.3-7.7-1.1-2.7-3.9-4.1-6.6-3.6 0.5-1.4 0.6-2.9 0-4.4-1.3-2.8-4.7-4.2-7.7-3-2.1 0.8-3.4 2.7-3.7 4.8-1.6-1.4-3.9-1.8-6-0.9-0.3 0.1-0.6 0.3-0.9 0.5-0.1-0.9-0.4-1.9-1.1-2.6-0.4-0.5-1-0.9-1.5-1.1 0.1-0.1 0.3-0.2 0.4-0.3 1.8-1.7 2-4.5 0.3-6.4-1.7-1.8-4.5-2-6.4-0.3-0.1 0.1-0.3 0.2-0.4 0.3-0.2-0.6-0.5-1.2-1-1.7-1.7-1.8-4.5-2-6.4-0.3-1.6 1.5-1.9 3.9-0.8 5.7-1.1 0-2.3 0.3-3.2 1.2l-0.3 0.3c0-0.1-0.1-0.2-0.1-0.3-0.7-1.4-2.3-2-3.7-1.3-0.1 0-0.2 0.1-0.3 0.1 0-0.4-0.1-0.8-0.3-1.2-0.7-1.4-2.3-2-3.7-1.3-1 0.6-1.6 1.9-1.3 3.2-0.6-0.2-1.3-0.2-2 0.1-1.4 0.7-2 2.3-1.3 3.7 0.5 1 1.4 1.5 2.4 1.6-0.6 0.8-0.7 1.9-0.3 2.8 0.7 1.4 2.3 2 3.7 1.3 0.7-0.3 1.1-0.9 1.4-1.5 0.8 1 2.2 1.4 3.4 0.8 1.4-0.7 2-2.3 1.3-3.7-0.2-0.4-0.4-0.7-0.7-0.9 0.1 0 0.2-0.1 0.3-0.1s0.2-0.1 0.3-0.2c0 1 0.4 2 1.1 2.8 1.2 1.3 2.9 1.7 4.4 1.4-0.5 1.5-0.2 3.2 0.9 4.5 0.2 0.2 0.4 0.4 0.6 0.5-0.2 0.1-0.3 0.3-0.4 0.4s-0.1 0.1-0.1 0.2c-0.2-0.3-0.4-0.5-0.6-0.8-1-0.7-2.4-0.5-3.2 0.5s-0.7 2.2 0 3c-0.6 0.1-1.1 0.4-1.4 0.9-0.7 1-0.5 2.4 0.5 3.2 0.7 0.5 1.6 0.6 2.3 0.2-0.1 0.8 0.2 1.6 0.9 2.1 1 0.7 2.4 0.5 3.2-0.5 0.4-0.5 0.5-1.1 0.4-1.6 1 0.4 2.1 0.2 2.8-0.7 0.7-1 0.5-2.4-0.5-3.2-0.3-0.2-0.6-0.3-0.9-0.4l0.2-0.2c0.5-0.7 0.6-1.5 0.2-2.3 0.8-0.1 1.6-0.5 2.3-1.1 0.9-0.8 1.4-1.9 1.5-3 1.3 0.9 2.9 1.1 4.3 0.6-0.1 0.9 0.1 1.8 0.4 2.7 0.6 1.5 1.7 2.6 3.1 3.2-2.4 1.5-3.4 4.5-2.3 7.2 1.2 3 4.7 4.5 7.7 3.3 0.8-0.3 1.6-0.8 2.1-1.5 0.1 0.2 0.1 0.4 0.2 0.6 1.2 2.9 4.4 4.4 7.4 3.4l0.1 0.1c0.4 0.5 0.8 3.8 0.5 4.3-0.5 0.4-0.7 1.8-0.7 2.3-0.1 0.7 0 2.1 0.6 2.6 0.3 0.2 0.7 0.5 1.2 0.9 1.4 1 3.6 2.6 4.1 3.7 0.2 0.5 0.5 0.8 0.9 1.1 0.4 0.2 0.7 0.3 1.2 0.5 0.5 0.1 1.1 0.3 1.8 0.8l0.1 0.1c0.4 0.3 0.9 0.6 1.5 1 1.7 1.1 3.9 2.5 5.7 3.5-0.8 0.3-1.6 0.7-2.4 1.1-1.7 0.8-3.3 1.6-4.3 1.1-1.3-0.7-2.8-0.5-4.2-0.2-0.5 0.1-1 0.2-1.5 0.2-0.6 0-1.4 0.4-2.1 0.7-0.5 0.2-1 0.4-1.4 0.5-0.1 0-0.3 0-0.5-0.1-0.4-0.3-0.2-0.9-0.1-1.3 0.4-1 0.3-1.7-0.3-2.1-0.2-0.2-0.5-0.2-0.8-0.3-0.1 0-0.2 0-0.2-0.1-0.9-0.3-2.7-0.2-3.5 0.4l-0.1 0.1c-1 0.8-2.1 1.6-3.2 1.7-0.8 0-1.7 0.6-2.6 1.2-0.3 0.2-0.7 0.4-0.9 0.6-0.2-0.3-0.6-0.8-1-1.1-0.1-0.1-0.2-0.1-0.3-0.2-0.2-0.2-0.8-0.8-1.4-1.6 2.1-0.9 3.1-3.3 2.3-5.4-0.1-0.1-0.1-0.3-0.2-0.4 0.6 0 1.2-0.1 1.7-0.3 2.1-0.9 3.2-3.3 2.3-5.4-0.8-1.9-2.7-2.9-4.6-2.5 0.4-1 0.4-2.1 0-3.1-0.9-2.1-3.3-3.2-5.4-2.3-1.5 0.6-2.4 1.9-2.6 3.4-1.1-1-2.8-1.3-4.3-0.7-2.1 0.9-3.2 3.3-2.3 5.4 0.4 1 1.2 1.8 2.2 2.2-1.7 1.1-2.4 3.2-1.6 5.1 0.9 2.1 3.3 3.2 5.5 2.3 0.6-0.2 1.1-0.6 1.5-1 0 0.1 0.1 0.3 0.1 0.4 0.5 1.3 1.6 2.2 2.9 2.5 0.3 0.4 0.7 0.8 1.2 1.2 1.1 1 2.2 2.1 2.3 3.1 0 0.3 0.2 0.5 0.4 0.7 0.5 0.3 1.4 0.3 2.2-0.2 0.7-0.4 5.2-2.5 6.6-3 1.2-0.5 1.7-0.6 1.8-0.6v0.2c0 0.8 0.1 1.8 0.7 2.7 0.3 0.5 0.8 1 1.3 1.4 0.6 0.4 1.1 0.5 1.5 0.4-0.2 0.4-0.3 0.8-0.3 1.2-1.1-0.9-2.8-1.2-4.2-0.7-2.1 0.9-3.1 3.3-2.3 5.4 0.4 1 1.2 1.8 2.2 2.2-1.7 1.1-2.4 3.2-1.6 5.1 0.9 2.1 3.3 3.1 5.4 2.3 0.6-0.2 1.1-0.6 1.5-1 0 0.1 0.1 0.3 0.1 0.4 0.9 2.1 3.3 3.2 5.4 2.3s3.1-3.3 2.3-5.4c-0.1-0.1-0.1-0.3-0.2-0.4 0.6 0 1.2-0.1 1.7-0.3 1.3-0.5 2.2-1.7 2.5-3 0 0.2 0.1 0.3 0.1 0.5 0.7 1.6 2.5 2.4 4.2 1.8 0.5-0.2 0.8-0.5 1.2-0.8 0 0.1 0.1 0.2 0.1 0.3 0.5 1.2 2.4 2 4 1.3zm-11.5-36.8c-0.2-0.2-0.1-0.5 0.1-0.7s0.4-0.1 0.6 0c0.1-0.2 0.4-0.6 0.7-0.9-0.1-0.1-0.1-0.2-0.2-0.3 0-0.1-0.1-0.2-0.1-0.3-0.5 0-0.9-0.1-1.2-0.1 0 0.2-0.2 0.4-0.4 0.4-0.3 0-0.5-0.2-0.5-0.4 0-0.3 0.2-0.5 0.4-0.5s0.4 0.1 0.5 0.4c0.2-0.1 0.6-0.2 1.1-0.3 0-0.2 0.1-0.4 0.2-0.7-0.4-0.3-0.7-0.6-0.9-0.8-0.2 0.2-0.4 0.2-0.6 0.1s-0.3-0.4-0.2-0.7c0.1-0.2 0.4-0.3 0.7-0.2 0.2 0.1 0.3 0.4 0.2 0.6 0.2 0.1 0.7 0.2 1.1 0.4 0.1-0.2 0.3-0.3 0.5-0.4-0.2-0.5-0.2-0.9-0.2-1.2-0.2 0.1-0.5-0.1-0.6-0.3-0.1-0.3 0-0.5 0.3-0.6 0.2-0.1 0.5 0 0.6 0.3 0.1 0.2 0 0.5-0.2 0.6 0.2 0.2 0.4 0.5 0.6 1 0.2-0.1 0.5-0.1 0.7 0 0.2-0.5 0.4-0.9 0.5-1.1-0.2-0.1-0.3-0.3-0.3-0.6 0.1-0.3 0.3-0.4 0.6-0.3s0.4 0.3 0.3 0.6c-0.1 0.2-0.3 0.4-0.5 0.4 0 0.3 0 0.7-0.1 1.2 0.2 0.1 0.4 0.2 0.6 0.4 0.4-0.3 0.8-0.5 1-0.6-0.1-0.2-0.1-0.5 0.1-0.6 0.2-0.2 0.5-0.1 0.7 0.1s0.1 0.5-0.1 0.7c-0.2 0.1-0.4 0.1-0.6 0-0.1 0.2-0.4 0.6-0.7 0.9 0.1 0.1 0.1 0.2 0.2 0.3 0 0.1 0.1 0.2 0.1 0.3 0.5 0 0.9 0.1 1.2 0.1 0-0.2 0.2-0.4 0.4-0.4 0.3 0 0.5 0.2 0.5 0.4 0 0.3-0.2 0.5-0.4 0.5s-0.4-0.1-0.5-0.4c-0.2 0.1-0.6 0.2-1.1 0.3 0 0.2-0.1 0.5-0.2 0.7 0.4 0.3 0.7 0.6 0.9 0.8 0.1-0.2 0.4-0.2 0.6-0.1s0.3 0.4 0.2 0.7c-0.1 0.2-0.4 0.3-0.7 0.2-0.2-0.1-0.3-0.4-0.2-0.6-0.2-0.1-0.7-0.2-1.1-0.4-0.1 0.2-0.3 0.3-0.5 0.4 0.2 0.5 0.2 0.9 0.2 1.2 0.2 0 0.5 0.1 0.6 0.3s0 0.5-0.3 0.6c-0.2 0.1-0.5 0-0.6-0.3-0.1-0.2 0-0.5 0.2-0.6-0.2-0.2-0.4-0.5-0.6-1-0.2 0.1-0.5 0.1-0.7 0-0.2 0.5-0.4 0.9-0.5 1.1 0.2 0.1 0.3 0.3 0.3 0.6 0 0.2-0.2 0.3-0.3 0.3s-0.1-0.1-0.2-0.1c-0.1-0.2-0.3-0.3-0.4-0.4 0.1-0.2 0.3-0.4 0.5-0.4 0-0.2 0-0.7 0.1-1.2-0.2-0.1-0.4-0.2-0.6-0.4-0.4 0.3-0.8 0.5-1 0.6 0.1 0.2 0.1 0.5-0.1 0.6-0.3 0.1-0.6 0-0.7-0.2zm-51.2-26.8c-0.2 0-0.4-0.3-0.4-0.5-0.2 0-0.7 0.1-1.2 0l-0.3 0.6c0.3 0.4 0.5 0.8 0.6 1 0.2-0.1 0.4-0.1 0.6 0.1s0.2 0.5 0 0.7-0.5 0.2-0.7 0-0.2-0.4 0-0.6c-0.2-0.1-0.6-0.3-1-0.7-0.1 0.1-0.2 0.1-0.3 0.2-0.1 0-0.2 0.1-0.3 0.1 0 0.5 0 0.9-0.1 1.2 0.2 0 0.4 0.2 0.5 0.4 0 0.3-0.1 0.5-0.4 0.5s-0.5-0.1-0.5-0.4c0-0.2 0.1-0.4 0.3-0.5-0.1-0.3-0.2-0.7-0.3-1.2-0.2 0-0.5 0-0.7-0.1-0.3 0.4-0.6 0.7-0.7 0.9 0.2 0.1 0.2 0.4 0.1 0.6s-0.4 0.3-0.6 0.2-0.3-0.4-0.2-0.6 0.4-0.3 0.6-0.2c0-0.2 0.1-0.7 0.4-1.1-0.2-0.1-0.3-0.3-0.5-0.5-0.5 0.2-0.9 0.3-1.1 0.3 0.1 0.2 0 0.5-0.3 0.6-0.2 0.1-0.5 0-0.6-0.2s0-0.5 0.2-0.6 0.5 0 0.6 0.2c0.2-0.2 0.5-0.4 0.9-0.7-0.1-0.2-0.1-0.4-0.1-0.7-0.5-0.1-0.9-0.3-1.1-0.4-0.1 0.2-0.3 0.4-0.5 0.3-0.3-0.1-0.4-0.3-0.4-0.6s0.3-0.4 0.6-0.4c0.2 0 0.4 0.3 0.4 0.5 0.2 0 0.7-0.1 1.2 0 0-0.4 0.1-0.6 0.2-0.8-0.3-0.3-0.5-0.7-0.6-1-0.2 0.2-0.5 0.2-0.6 0-0.2-0.2-0.2-0.5 0-0.7s0.5-0.2 0.7 0 0.2 0.4 0 0.6c0.2 0.1 0.6 0.3 1 0.7 0.1-0.1 0.2-0.1 0.3-0.2 0 0 0.1 0 0.2-0.1 0-0.5 0-0.9 0.1-1.2-0.2 0-0.4-0.2-0.5-0.4 0-0.2 0.2-0.4 0.5-0.5 0.3 0 0.5 0.1 0.5 0.4 0 0.2-0.1 0.4-0.3 0.5 0.1 0.3 0.2 0.7 0.3 1.2 0.2 0 0.5 0 0.7 0.1 0.3-0.4 0.6-0.7 0.7-0.9-0.1-0.2-0.2-0.4-0.1-0.6s0.4-0.3 0.6-0.2c0.3 0.1 0.4 0.4 0.2 0.6-0.1 0.2-0.3 0.3-0.5 0.3 0 0.2-0.1 0.7-0.4 1.1 0.2 0.1 0.3 0.3 0.5 0.5 0.5-0.2 0.9-0.3 1.1-0.3 0-0.2 0-0.5 0.3-0.6 0.2-0.1 0.5 0 0.6 0.2s0 0.5-0.2 0.6-0.5 0-0.6-0.2c-0.2 0.2-0.5 0.4-0.9 0.7 0.1 0.2 0.1 0.4 0.1 0.7 0.5 0.1 0.9 0.3 1.1 0.4 0.1-0.2 0.3-0.4 0.5-0.3 0.3 0 0.4 0.3 0.4 0.6-0.1 0.3-0.4 0.5-0.6 0.4zm10.6 13.9c0.1-0.2 0.3-0.3 0.5-0.2s0.3 0.3 0.2 0.5-0.3 0.3-0.5 0.2-0.3-0.2-0.3-0.4c-0.2 0-0.6 0-1-0.1 0 0.1-0.1 0.2-0.1 0.2l-0.2 0.2c0.2 0.3 0.3 0.7 0.4 0.9 0.2-0.1 0.4 0 0.5 0.1 0.1 0.2 0.1 0.4-0.1 0.5s-0.4 0.1-0.5-0.1-0.1-0.4 0-0.5c-0.2-0.1-0.4-0.3-0.7-0.7-0.2 0.1-0.3 0.1-0.5 0.2 0 0.4-0.1 0.7-0.2 0.9 0.2 0 0.3 0.2 0.3 0.4s-0.2 0.4-0.4 0.4-0.4-0.2-0.4-0.4 0.1-0.4 0.3-0.4c-0.1-0.2-0.1-0.5-0.2-0.9-0.2 0-0.4-0.1-0.5-0.2-0.3 0.3-0.5 0.5-0.7 0.6 0.1 0.1 0.1 0.3 0 0.5s-0.4 0.2-0.5 0.1c-0.2-0.1-0.2-0.4-0.1-0.5 0.1-0.2 0.3-0.2 0.5-0.1 0.1-0.2 0.2-0.5 0.4-0.9-0.1-0.1-0.2-0.3-0.3-0.4-0.4 0.1-0.7 0.1-1 0.1 0 0.2-0.1 0.4-0.3 0.4-0.2 0.1-0.4 0-0.5-0.3-0.1-0.2 0.1-0.4 0.3-0.5s0.4 0 0.5 0.2c0.2-0.1 0.5-0.3 0.8-0.5v-0.6c-0.4-0.2-0.7-0.4-0.8-0.5-0.1 0.2-0.3 0.3-0.5 0.2s-0.3-0.3-0.2-0.5 0.3-0.3 0.5-0.2c0.2 0.1 0.3 0.3 0.3 0.4 0.2 0 0.6 0 1 0.1 0-0.1 0.1-0.2 0.1-0.2l0.2-0.2c-0.2-0.3-0.3-0.7-0.4-0.9-0.2 0.1-0.4 0-0.5-0.1-0.1-0.2-0.1-0.4 0.1-0.5s0.4-0.1 0.5 0.1 0.1 0.4 0 0.5c0.2 0.1 0.4 0.3 0.7 0.7 0.2-0.1 0.3-0.1 0.5-0.2 0-0.4 0.1-0.7 0.2-0.9-0.2 0-0.3-0.2-0.3-0.4s0.2-0.4 0.4-0.4 0.4 0.2 0.4 0.4-0.1 0.4-0.3 0.4c0.1 0.2 0.1 0.5 0.2 0.9 0.2 0 0.4 0.1 0.5 0.2 0.3-0.3 0.5-0.5 0.7-0.6-0.1-0.1-0.2-0.4 0-0.5 0.1-0.2 0.4-0.2 0.5-0.1 0.2 0.1 0.2 0.4 0.1 0.5-0.1 0.2-0.3 0.2-0.5 0.1-0.1 0.2-0.2 0.5-0.4 0.9 0.1 0.1 0.2 0.3 0.3 0.4 0.4-0.1 0.8-0.1 1-0.1 0-0.2 0.1-0.4 0.3-0.4 0.2-0.1 0.4 0.1 0.5 0.3s-0.1 0.4-0.3 0.5-0.4 0-0.5-0.2c-0.2 0.1-0.5 0.3-0.8 0.5v0.6c0.3 0.2 0.6 0.4 0.8 0.5zm8.1-15.2c-0.4 0-0.7-0.2-0.8-0.6-0.4 0.2-1 0.4-1.8 0.6 0 0.4-0.1 0.7-0.2 1.1 0.7 0.4 1.2 1 1.4 1.2 0.2-0.3 0.7-0.4 1-0.2 0.4 0.2 0.5 0.7 0.3 1.1s-0.7 0.5-1.1 0.3c-0.3-0.2-0.5-0.6-0.3-1-0.4-0.1-1.1-0.3-1.8-0.6-0.1 0.1-0.2 0.3-0.4 0.4-0.1 0.1-0.3 0.2-0.4 0.3 0.3 0.8 0.4 1.5 0.4 1.9 0.4-0.1 0.8 0.1 0.9 0.4 0.2 0.4 0 0.8-0.4 1s-0.8 0-1-0.4 0-0.8 0.3-1c-0.3-0.3-0.7-0.8-1.1-1.6-0.4 0.1-0.7 0.1-1.1 0.1-0.2 0.8-0.5 1.4-0.7 1.8 0.3 0.1 0.6 0.5 0.5 0.9s-0.5 0.7-0.9 0.6-0.7-0.5-0.6-0.9 0.4-0.6 0.8-0.6c0-0.4-0.1-1.1 0-1.9-0.3-0.1-0.7-0.3-1-0.5-0.6 0.5-1.3 0.8-1.6 1 0.2 0.3 0.2 0.7-0.1 1s-0.8 0.3-1.1-0.1c-0.3-0.3-0.3-0.8 0.1-1.1 0.3-0.3 0.7-0.3 1 0 0.2-0.4 0.6-0.9 1.1-1.5-0.2-0.3-0.4-0.6-0.5-1-0.8 0-1.5-0.1-1.9-0.2 0 0.4-0.3 0.7-0.7 0.7s-0.8-0.3-0.9-0.7c0-0.4 0.3-0.8 0.7-0.8s0.7 0.2 0.8 0.6c0.4-0.2 1-0.4 1.8-0.6 0-0.4 0.1-0.7 0.2-1.1-0.7-0.5-1.2-1-1.4-1.2-0.2 0.3-0.7 0.4-1 0.2-0.4-0.2-0.5-0.7-0.3-1.1 0.3-0.3 0.8-0.5 1.2-0.3 0.3 0.2 0.5 0.6 0.3 0.9 0.4 0.1 1.1 0.3 1.8 0.6 0.1-0.1 0.2-0.3 0.4-0.4 0.1 0 0.3-0.1 0.4-0.2-0.3-0.8-0.4-1.5-0.4-1.9-0.4 0.1-0.8-0.1-0.9-0.4-0.2-0.4 0-0.8 0.4-1s0.8 0 1 0.4 0 0.8-0.3 1c0.3 0.3 0.7 0.9 1.1 1.6 0.4-0.1 0.7-0.1 1.1-0.1 0.2-0.9 0.5-1.5 0.7-1.9-0.3-0.1-0.6-0.5-0.5-0.9s0.5-0.7 0.9-0.6 0.7 0.5 0.6 0.9-0.4 0.6-0.8 0.6c0 0.4 0.1 1.1 0 1.9 0.3 0.1 0.7 0.3 1 0.6 0.6-0.5 1.3-0.8 1.6-1-0.2-0.3-0.2-0.7 0.1-1s0.8-0.3 1.1 0.1c0.3 0.3 0.3 0.8 0 1.1s-0.7 0.3-1 0c-0.2 0.4-0.6 0.9-1.1 1.5 0.2 0.3 0.4 0.7 0.4 1 0.8 0 1.5 0.1 1.9 0.2 0-0.4 0.3-0.7 0.7-0.7s0.8 0.3 0.9 0.7c0 0.4-0.3 0.7-0.8 0.8zm14.1 20.2c-0.1 0.5-0.7 0.9-1.2 0.7-0.5-0.1-0.9-0.7-0.7-1.2 0.1-0.5 0.6-0.8 1.1-0.8 0-0.5-0.1-1.5 0.1-2.5-0.4-0.2-0.9-0.4-1.2-0.8-0.9 0.6-1.7 1-2.2 1.2 0.3 0.4 0.2 1-0.2 1.3-0.4 0.4-1.1 0.3-1.4-0.1-0.4-0.4-0.3-1.1 0.1-1.4s1-0.3 1.3 0c0.3-0.4 0.8-1.2 1.6-2l-0.3-0.6s-0.2-0.5-0.2-0.7c-1.1 0-2-0.2-2.5-0.3 0 0.5-0.4 0.9-0.9 0.9-0.6 0-1-0.4-1.1-0.9 0-0.6 0.4-1.1 0.9-1.1s0.9 0.3 1.1 0.8c0.5-0.2 1.4-0.5 2.4-0.7 0-0.5 0.2-1 0.3-1.4-0.9-0.6-1.5-1.3-1.8-1.7-0.3 0.4-0.9 0.5-1.3 0.2-0.5-0.3-0.6-0.9-0.3-1.4s0.9-0.6 1.4-0.3c0.4 0.3 0.6 0.8 0.4 1.3 0.5 0.1 1.4 0.4 2.3 0.9 0.3-0.4 0.7-0.7 1.1-0.9-0.3-1-0.4-1.9-0.5-2.5-0.5 0.1-1-0.1-1.2-0.6s0-1.1 0.6-1.3c0.5-0.2 1.1 0 1.3 0.6 0.2 0.5 0 1-0.4 1.3 0.3 0.4 0.9 1.2 1.4 2.1 0.5-0.1 1-0.1 1.4-0.1 0.3-1 0.8-1.8 1.1-2.3-0.5-0.2-0.7-0.7-0.6-1.2s0.7-0.9 1.2-0.7c0.5 0.1 0.9 0.7 0.7 1.2-0.1 0.5-0.6 0.8-1.1 0.8 0 0.5 0 1.5-0.1 2.5 0.4 0.2 0.9 0.4 1.2 0.8 0.9-0.6 1.7-1 2.2-1.2-0.3-0.4-0.2-1 0.2-1.3 0.4-0.4 1.1-0.3 1.4 0.1 0.4 0.4 0.3 1.1-0.1 1.4s-1 0.3-1.3 0c-0.3 0.5-0.8 1.2-1.6 2l0.3 0.6s0.2 0.5 0.2 0.7c1.1 0 2 0.2 2.5 0.3 0-0.5 0.4-0.9 0.9-0.9 0.6 0 1 0.4 1.1 0.9 0 0.6-0.4 1.1-0.9 1.1s-1-0.3-1.1-0.8c-0.5 0.2-1.4 0.5-2.4 0.7 0 0.5-0.2 1-0.3 1.4 0.9 0.6 1.5 1.3 1.8 1.7 0.3-0.4 0.9-0.5 1.3-0.2 0.5 0.3 0.6 0.9 0.3 1.4s-0.9 0.6-1.4 0.3c-0.4-0.3-0.6-0.8-0.4-1.3-0.5-0.1-1.4-0.4-2.3-0.9-0.3 0.4-0.7 0.7-1.1 0.9 0.3 1 0.4 1.9 0.5 2.5 0.5-0.1 1 0.1 1.2 0.6s0 1.1-0.6 1.3c-0.5 0.2-1.1 0-1.3-0.6-0.2-0.5 0-1 0.4-1.3-0.3-0.4-0.9-1.2-1.4-2.1-0.5 0.1-1 0.1-1.4 0.1-0.3 1-0.8 1.8-1.1 2.3 0.5 0.2 0.7 0.7 0.6 1.2zm-13.2 23.7c-0.4-0.1-0.6-0.5-0.5-0.9s0.4-0.6 0.8-0.5c0-0.4 0-1 0.1-1.8-0.3-0.1-0.6-0.3-0.9-0.5-0.6 0.4-1.2 0.7-1.5 0.9 0.2 0.3 0.1 0.7-0.2 0.9-0.3 0.3-0.8 0.2-1-0.1-0.3-0.3-0.2-0.8 0.1-1s0.7-0.2 0.9 0c0.2-0.3 0.6-0.9 1.1-1.4-0.1-0.1-0.2-0.3-0.2-0.5-0.1-0.2-0.1-0.3-0.1-0.5-0.8 0-1.4-0.1-1.8-0.2 0 0.3-0.3 0.6-0.7 0.7-0.4 0-0.7-0.3-0.8-0.7 0-0.4 0.3-0.7 0.7-0.8 0.4 0 0.7 0.2 0.8 0.6 0.3-0.1 1-0.4 1.7-0.5 0-0.3 0.1-0.7 0.2-1-0.6-0.4-1.1-0.9-1.3-1.2-0.2 0.3-0.6 0.3-0.9 0.1s-0.4-0.7-0.2-1c0.2-0.3 0.7-0.4 1-0.2s0.4 0.6 0.3 0.9c0.4 0.1 1 0.3 1.7 0.6 0.2-0.3 0.5-0.5 0.8-0.7-0.2-0.7-0.3-1.4-0.3-1.7-0.3 0.1-0.7-0.1-0.8-0.4-0.1-0.4 0-0.8 0.4-0.9 0.4-0.2 0.8 0 0.9 0.4 0.1 0.3 0 0.7-0.3 0.9 0.2 0.3 0.6 0.8 1 1.5 0.3-0.1 0.7-0.1 1-0.1 0.2-0.7 0.6-1.3 0.7-1.6-0.3-0.1-0.5-0.5-0.4-0.8 0.1-0.4 0.5-0.6 0.9-0.5s0.6 0.5 0.5 0.9c-0.1 0.3-0.4 0.6-0.8 0.5 0 0.4 0 1-0.1 1.8 0.3 0.1 0.6 0.3 0.9 0.5 0.6-0.4 1.2-0.7 1.5-0.9-0.2-0.3-0.1-0.7 0.1-0.9 0.3-0.3 0.8-0.2 1 0.1 0.3 0.3 0.2 0.8-0.1 1s-0.7 0.2-0.9 0c-0.2 0.3-0.6 0.9-1.1 1.4 0.1 0.1 0.2 0.3 0.2 0.5 0.1 0.2 0.1 0.3 0.1 0.5 0.8 0 1.4 0.1 1.8 0.2 0-0.4 0.3-0.6 0.7-0.7 0.4 0 0.7 0.3 0.8 0.7 0 0.4-0.3 0.7-0.7 0.8-0.4 0-0.7-0.2-0.8-0.6-0.3 0.1-1 0.4-1.7 0.5 0 0.3-0.1 0.7-0.2 1 0.6 0.4 1.1 0.9 1.3 1.2 0.2-0.3 0.6-0.3 0.9-0.1s0.4 0.7 0.2 1-0.7 0.4-1 0.2-0.4-0.6-0.3-0.9c-0.4-0.1-1-0.3-1.7-0.6-0.2 0.3-0.5 0.5-0.8 0.7 0.2 0.7 0.3 1.4 0.3 1.7 0.3-0.1 0.7 0.1 0.8 0.4 0.1 0.4 0 0.8-0.4 0.9s-0.8 0-0.9-0.4c-0.1-0.3 0-0.7 0.3-0.9-0.2-0.3-0.6-0.8-1-1.5-0.3 0.1-0.7 0.1-1 0.1-0.2 0.7-0.5 1.3-0.7 1.6 0.1 0 0.1 0.1 0.2 0.1v0.4s0.1 0.3 0.1 0.5c-0.1 0.2-0.4 0.4-0.7 0.3zm28.6 17.4c-0.4 0-0.7-0.2-0.7-0.6-0.3 0.1-1 0.4-1.7 0.5 0 0.3-0.1 0.7-0.2 1 0.6 0.4 1 0.9 1.3 1.2 0.2-0.3 0.6-0.3 0.9-0.1s0.4 0.7 0.2 1-0.6 0.4-1 0.2c-0.3-0.2-0.4-0.6-0.3-0.9-0.4-0.1-1-0.3-1.6-0.6-0.2 0.3-0.5 0.5-0.8 0.7 0.2 0.7 0.3 1.4 0.3 1.7 0.3-0.1 0.7 0.1 0.8 0.4 0.1 0.4 0 0.8-0.4 0.9s-0.8 0-0.9-0.4c-0.1-0.3 0-0.7 0.3-0.9-0.2-0.3-0.6-0.8-1-1.5-0.3 0.1-0.7 0.1-1 0.1-0.2 0.7-0.5 1.3-0.7 1.6 0.3 0.1 0.5 0.5 0.4 0.8-0.1 0.4-0.5 0.6-0.9 0.5s-0.6-0.5-0.5-0.9c0.1-0.3 0.4-0.6 0.8-0.5 0-0.4 0-1 0.1-1.8-0.3-0.1-0.6-0.3-0.9-0.5-0.6 0.4-1.2 0.7-1.5 0.9 0.2 0.3 0.1 0.7-0.1 0.9-0.3 0.3-0.8 0.2-1-0.1-0.3-0.3-0.2-0.8 0.1-1s0.7-0.2 0.9 0c0.2-0.3 0.6-0.8 1.1-1.4-0.1-0.1-0.2-0.3-0.2-0.5-0.1-0.2-0.1-0.3-0.1-0.5-0.7 0-1.4-0.1-1.7-0.2 0 0.3-0.3 0.6-0.7 0.7-0.4 0-0.7-0.3-0.8-0.7 0-0.4 0.3-0.7 0.7-0.8 0.4 0 0.7 0.2 0.7 0.6 0.3-0.1 1-0.3 1.7-0.5 0-0.3 0.1-0.7 0.2-1-0.6-0.4-1-0.9-1.3-1.2-0.2 0.3-0.6 0.3-0.9 0.1s-0.4-0.6-0.2-1c0.2-0.3 0.7-0.4 1-0.2s0.4 0.6 0.3 0.9c0.4 0.1 1 0.3 1.6 0.6 0.2-0.3 0.5-0.5 0.8-0.7-0.2-0.7-0.3-1.4-0.3-1.7-0.3 0.1-0.7-0.1-0.8-0.4-0.1-0.4 0-0.8 0.4-0.9s0.8 0 0.9 0.4c0.1 0.3 0 0.7-0.3 0.9 0.2 0.3 0.6 0.8 1 1.5 0.3-0.1 0.7-0.1 1-0.1 0.2-0.7 0.5-1.3 0.7-1.6-0.3-0.1-0.5-0.5-0.4-0.8 0.1-0.4 0.5-0.6 0.9-0.5s0.6 0.5 0.5 0.9c-0.1 0.3-0.4 0.6-0.8 0.5 0 0.4 0 1-0.1 1.8 0.3 0.1 0.6 0.3 0.9 0.5 0.6-0.4 1.2-0.7 1.5-0.9-0.2-0.3-0.1-0.7 0.1-0.9 0.3-0.3 0.8-0.2 1 0.1 0.3 0.3 0.2 0.8-0.1 1s-0.7 0.2-0.9 0c-0.2 0.3-0.6 0.8-1.1 1.4 0.1 0.1 0.2 0.3 0.2 0.4 0.1 0.2 0.1 0.3 0.1 0.5 0.8 0 1.4 0.1 1.8 0.2 0-0.3 0.3-0.6 0.7-0.7 0.4 0 0.7 0.3 0.8 0.7-0.1 0.5-0.4 0.9-0.8 0.9zm4.5-5c0.3 0.8 0.9 1.4 1.7 1.7-0.7 0.4-1.2 1.1-1.4 1.9-0.1-0.3-0.1-0.6-0.2-0.8-0.8-1.9-2.7-2.9-4.6-2.5 0.4-1 0.4-2 0-3.1-0.3-0.8-0.9-1.4-1.5-1.9h0.3c5 0.5 7.2-0.4 8.7-1 0.7-0.3 1.2-0.5 1.8-0.5 0.6-0.1 1.5-0.1 2.4-0.1-0.1 0-0.1 0-0.2 0.1-1.1 0.5-1.8 1.5-2 2.6-0.9-0.7-2.1-1-3.3-0.5-1.6 0.5-2.4 2.4-1.7 4.1zm8.1 5.3c-0.1-0.3 0-0.5 0.2-0.7-0.2-0.2-0.5-0.6-0.7-1.1-0.3 0.1-0.5 0.1-0.8 0.1-0.2 0.6-0.4 1-0.6 1.2 0.2 0.1 0.4 0.4 0.3 0.6-0.1 0.3-0.4 0.5-0.7 0.4s-0.5-0.4-0.4-0.7 0.3-0.4 0.6-0.4c0-0.3 0-0.8 0.1-1.4-0.2-0.1-0.5-0.2-0.7-0.4-0.5 0.3-0.9 0.6-1.2 0.7 0.1 0.2 0.1 0.5-0.1 0.7s-0.6 0.2-0.8-0.1c-0.2-0.2-0.2-0.6 0.1-0.8 0.2-0.2 0.5-0.2 0.7 0 0.2-0.2 0.4-0.7 0.9-1.1-0.1-0.1-0.1-0.2-0.2-0.3s-0.1-0.3-0.1-0.4c-0.6 0-1.1-0.1-1.3-0.2 0 0.3-0.2 0.5-0.5 0.5s-0.6-0.2-0.6-0.5 0.2-0.6 0.5-0.6 0.5 0.2 0.6 0.4c0.3-0.1 0.7-0.3 1.3-0.4 0-0.3 0.1-0.5 0.2-0.8-0.5-0.3-0.8-0.7-1-0.9-0.2 0.2-0.5 0.3-0.7 0.1-0.3-0.2-0.3-0.5-0.2-0.8 0.2-0.3 0.5-0.3 0.8-0.2 0.2 0.1 0.3 0.4 0.2 0.7 0.3 0.1 0.8 0.2 1.3 0.5 0.2-0.2 0.4-0.4 0.6-0.5-0.2-0.5-0.2-1-0.3-1.3-0.3 0.1-0.5-0.1-0.6-0.3-0.1-0.3 0-0.6 0.3-0.7s0.6 0 0.7 0.3 0 0.5-0.2 0.7c0.2 0.2 0.5 0.6 0.7 1.1 0.2 0.2 0.5 0.2 0.7 0.2 0.2-0.6 0.4-1 0.6-1.2-0.2-0.1-0.4-0.4-0.3-0.6 0.1-0.3 0.4-0.5 0.7-0.4s0.5 0.4 0.4 0.7-0.3 0.4-0.6 0.4c0 0.3 0 0.8-0.1 1.4 0.2 0.1 0.5 0.2 0.7 0.4 0.5-0.3 0.9-0.6 1.2-0.7-0.1-0.2-0.1-0.5 0.1-0.7s0.6-0.2 0.8 0.1c0.2 0.2 0.2 0.6-0.1 0.8-0.2 0.2-0.5 0.2-0.7 0-0.2 0.2-0.4 0.7-0.9 1.1 0.1 0.1 0.1 0.2 0.2 0.3s0.1 0.3 0.1 0.4c0.6 0 1.1 0.1 1.4 0.2 0-0.3 0.2-0.5 0.5-0.5s0.6 0.2 0.6 0.5-0.2 0.6-0.5 0.6-0.5-0.2-0.6-0.4c-0.3 0.1-0.7 0.3-1.3 0.4 0 0.3-0.1 0.5-0.2 0.8 0.5 0.3 0.8 0.7 1 0.9 0.2-0.2 0.5-0.3 0.7-0.1 0.3 0.2 0.3 0.5 0.2 0.8-0.2 0.3-0.5 0.3-0.8 0.2-0.2-0.1-0.3-0.4-0.2-0.7-0.3-0.1-0.8-0.2-1.3-0.5-0.2 0.2-0.4 0.4-0.6 0.5 0.2 0.6 0.2 1 0.3 1.3 0.3-0.1 0.5 0.1 0.6 0.3 0.1 0.3 0 0.6-0.3 0.7-0.3-0.1-0.6-0.3-0.7-0.6z"
        style="fill: inherit"
      ></path>
      <path
        d="m102.8 49.4c-0.6-1.6-2.3-2.4-3.9-2.1 0.3-0.8 0.3-1.7 0-2.6-0.7-1.8-2.8-2.6-4.5-1.9-1.2 0.5-2 1.6-2.2 2.8-1-0.8-2.3-1.1-3.5-0.6-1.8 0.7-2.6 2.8-1.9 4.5 0.4 0.9 1 1.5 1.8 1.9-1.4 0.9-2 2.7-1.4 4.3 0.7 1.8 2.8 2.6 4.5 1.9 0.5-0.2 0.9-0.5 1.3-0.9 0 0.1 0.1 0.2 0.1 0.4 0.7 1.8 2.8 2.6 4.5 1.9 1.8-0.7 2.6-2.8 1.9-4.5-0.1-0.1-0.1-0.2-0.2-0.3 0.5 0 1-0.1 1.5-0.3 1.9-0.7 2.8-2.7 2-4.5zm-3.8 1.9c-0.3 0-0.6-0.2-0.6-0.5-0.3 0.1-0.8 0.3-1.4 0.4 0 0.3-0.1 0.6-0.2 0.8 0.5 0.4 0.9 0.8 1.1 1 0.2-0.2 0.5-0.3 0.8-0.1s0.4 0.5 0.2 0.8c-0.3 0.3-0.6 0.4-0.9 0.3-0.3-0.2-0.3-0.5-0.2-0.7-0.3-0.1-0.8-0.2-1.4-0.5-0.2 0.2-0.4 0.4-0.7 0.6 0.2 0.6 0.3 1.1 0.3 1.5 0.3-0.1 0.6 0.1 0.7 0.4s0 0.7-0.3 0.8-0.7 0-0.8-0.3c-0.1-0.3 0-0.6 0.2-0.7-0.2-0.2-0.5-0.7-0.8-1.2-0.3 0.1-0.6 0.1-0.8 0.1-0.2 0.6-0.5 1.1-0.6 1.3 0.3 0.1 0.4 0.4 0.3 0.7s-0.4 0.5-0.7 0.4c-0.3-0.1-0.5-0.4-0.4-0.7s0.3-0.5 0.6-0.4c0-0.3 0-0.9 0.1-1.5-0.3-0.1-0.5-0.3-0.7-0.5-0.5 0.4-1 0.6-1.3 0.7 0.1 0.2 0.1 0.6-0.1 0.8-0.3 0.2-0.6 0.2-0.8-0.1s-0.2-0.6 0.1-0.8c0.2-0.2 0.6-0.2 0.8 0 0.2-0.3 0.5-0.7 0.9-1.2-0.1-0.1-0.1-0.2-0.2-0.4-0.1-0.1-0.1-0.3-0.1-0.4-0.6 0-1.2-0.1-1.5-0.2 0 0.3-0.3 0.5-0.6 0.6-0.3 0-0.6-0.2-0.6-0.6 0-0.3 0.2-0.6 0.6-0.6 0.3 0 0.6 0.2 0.6 0.5 0.3-0.1 0.8-0.3 1.4-0.4 0-0.3 0.1-0.6 0.2-0.8-0.5-0.4-0.9-0.8-1.1-1-0.2 0.2-0.5 0.3-0.8 0.1s-0.4-0.6-0.2-0.8c0.2-0.3 0.5-0.4 0.8-0.2s0.3 0.5 0.2 0.7c0.3 0.1 0.8 0.2 1.4 0.5 0.2-0.2 0.4-0.4 0.7-0.6-0.2-0.6-0.3-1.1-0.3-1.5-0.3 0.1-0.6-0.1-0.7-0.4s0-0.7 0.3-0.8 0.7 0 0.8 0.3c0.1 0.3 0 0.6-0.2 0.7 0.2 0.2 0.5 0.7 0.8 1.2 0.3-0.1 0.6-0.1 0.8-0.1 0.2-0.6 0.5-1.1 0.6-1.3-0.3-0.1-0.4-0.4-0.3-0.7s0.4-0.5 0.7-0.4c0.3 0.1 0.5 0.4 0.4 0.7s-0.3 0.5-0.6 0.5c0 0.3 0 0.9-0.1 1.5 0.3 0.1 0.5 0.3 0.7 0.5 0.5-0.4 1-0.6 1.3-0.7-0.2-0.2-0.1-0.6 0.1-0.8 0.3-0.2 0.6-0.2 0.8 0.1s0.2 0.6-0.1 0.8c-0.2 0.2-0.6 0.2-0.8 0-0.2 0.3-0.5 0.7-0.9 1.2 0.1 0.1 0.1 0.2 0.2 0.4 0.1 0.1 0.1 0.3 0.1 0.4 0.6 0 1.2 0.1 1.5 0.2 0-0.3 0.3-0.5 0.6-0.6 0.3 0 0.6 0.2 0.6 0.6 0.1 0.1-0.2 0.4-0.5 0.4z"
        style="fill: inherit"
      ></path>
    </g>
  </svg>