<?xml version="1.0" encoding="UTF-8"?>
<!-- Generator: Adobe Illustrator 22.1.0, SVG Export Plug-In . SVG Version: 6.00 Build 0)  -->
<svg xmlns="http://www.w3.org/2000/svg" enable-background="new 0 0 158.3 167.6" id="qr1" version="1.1" viewBox="0 0 158.3 167.6" x="0px" xml:space="preserve" y="0px">
<g fill="#D60000" id="qrbg">
	<rect fill="inherit" height="5.6" width="4.8" x="125.2" y="47.2"/>
	<rect fill="inherit" height="4.3" width="4.6" x="43.3" y="32.7"/>
	<path d="m155.8 34.4h-12.9v-14.5h-15.1v-14.1h-41.1c-0.9-3.4-4-5.8-7.6-5.8s-6.6 2.4-7.5 5.8h-41v14.1h-15.1v14.5h-15.5v96.7h15.4v14.5h15.2v14.1h40.8c0 4.3 3.5 7.8 7.8 7.8s7.8-3.5 7.8-7.8h40.8v-14.1h15.1v-14.5h15.4v-96.6h-2.5zm-76.7-30.5c1.4 0 2.6 0.7 3.3 1.8h-6.5c0.7-1 1.9-1.8 3.2-1.8zm0 159.8c-2.1 0-3.9-1.7-3.9-3.9h7.8c0 2.1-1.7 3.9-3.9 3.9zm76.7-35.1h-15.4v14.6h-15.1v14.1h-92.2v-14.1h-15.1v-14.6h-15.5v-91.6h15.5v-14.6h15.1v-14.1h92.2v14.1h15.1v14.6h15.4v91.6z" fill="inherit"/>
	<rect fill="inherit" height="4.3" width="4.6" x="110.4" y="128.6"/>
	<rect fill="inherit" height="4.3" width="4.6" x="110.4" y="32.7"/>
	<rect fill="inherit" height="4.3" width="4.6" x="43.3" y="128.6"/>
	<rect fill="inherit" height="5.6" width="4.8" x="28.2" y="47.2"/>
	<rect fill="inherit" height="5.6" width="4.8" x="125.2" y="112.7"/>
	<rect fill="inherit" height="5.6" width="4.8" x="28.2" y="112.7"/>
	<path d="m137.4 25.4h-15.1v-14.1h-86.3v14.1h-15.1v14.6h-15.4v85.7h15.4v14.6h15.1v14.1h86.3v-14.1h15.1v-14.6h15.4v-85.8h-15.4v-14.5zm-15.1 4.3h10.7v10.2h-10.7v-10.2zm0 14.6h10.7v11.5h-10.7v-11.5zm-81.9-14.6h10.5v10.2h-10.5v-10.2zm-15.1 0h10.7v10.2h-10.7v-10.2zm0 14.6h10.7v11.5h-10.7v-11.5zm10.7 91.5h-10.7v-10.2h10.7v10.2zm0-14.6h-10.7v-11.5h10.7v11.5zm81.9 14.6h-10.5v-10.2h10.5v10.2zm15.1 0h-10.7v-10.2h10.7v10.2zm0-14.6h-10.7v-11.5h10.7v11.5zm15.4-76.9v76.9h-11v-15.8h-19.5v15.8h-14.8v18.9h14.8v9.8h-77.5v-9.8h14.8v-18.9h-14.8v-15.8h-19.5v15.8h-11v-76.9h11v15.8h19.5v-15.8h14.8v-18.9h-14.8v-9.8h77.5v9.8h-14.8v18.9h14.8v15.8h19.5v-15.8h11zm-108 91.5v-10.2h10.5v10.2h-10.5zm77.5-106.1v10.2h-10.5v-10.2h10.5z" fill="inherit"/>
</g>
</svg>